<svg id="city_my" data-name="city my" xmlns="http://www.w3.org/2000/svg" width="20" height="20" viewBox="0 0 20 20">
  <path id="Path_3090" data-name="Path 3090" d="M435.416,453h.685v1.159h.872v1.467h.745v3.667h-2.3v4.077h.678v-3.425h3.949v3.439h.857V464H429.21v-.645h.879v-6.307h2.98v6.3h.685V455.6h.745v-1.467h.872Zm1.565,7.773v2.574h.671v-2.574Zm1.542,0v2.574h.671v-2.574Zm-2.436-5.185v-.631h-.663v.631Zm-1.438,1.467h.671v-.631h-.671Zm1.535-.631v.631h.671v-.631Zm-4.277,1.467h-.671v.631h.671Zm3.412.631v-.631h-.671v.631Zm.864-.631v.631h.671v-.631Zm-4.277,1.547h-.678v.623h.678Zm0,3.711v-.638h-.663v.638Zm-.671-2.2v.631h.678v-.631Z" transform="translate(-425.07 -447.93)" fill="#797c8b"/>
  <path id="Path_3091" data-name="Path 3091" d="M435.07,448.93a10,10,0,1,0,10,10,10,10,0,0,0-10-10Zm0,.833a9.167,9.167,0,0,1,7.117,14.942H427.962a9.167,9.167,0,0,1,7.108-14.942Z" transform="translate(-425.07 -448.93)" fill="#797c8b"/>
</svg>
