<svg xmlns="http://www.w3.org/2000/svg" width="20" height="20" viewBox="0 0 20 20">
  <path id="earth-americas-solid" d="M2.254,7.539l.367.641A2.5,2.5,0,0,0,4.105,9.344l2.262.645a1.561,1.561,0,0,1,1.133,1.5v1.559a1.13,1.13,0,0,0,.625,1.012,1.13,1.13,0,0,1,.625,1.012V16.6a.917.917,0,0,0,1.168.883A1.841,1.841,0,0,0,11.2,16.16l.109-.437a2.494,2.494,0,0,1,1.184-1.562l.316-.18a1.872,1.872,0,0,0,.945-1.629v-.324A1.875,1.875,0,0,0,13.2,10.7l-.152-.152A1.875,1.875,0,0,0,11.723,10H10.039A2.524,2.524,0,0,1,8.8,9.672L7.449,8.9a.811.811,0,0,1-.359-.437.786.786,0,0,1,.4-.957l.23-.117a1.081,1.081,0,0,1,.832-.059l.906.3a.745.745,0,0,0,.809-1.184l-.531-.637A1.247,1.247,0,0,1,9.746,4.2l.613-.715A1.251,1.251,0,0,0,10.5,2.051L10.4,1.887c-.137-.008-.27-.012-.406-.012A8.128,8.128,0,0,0,2.254,7.539ZM18.125,10a8.11,8.11,0,0,0-1.031-3.965l-1,.4a1.254,1.254,0,0,0-.723,1.555l.66,1.98a1.247,1.247,0,0,0,.883.816l1.137.285A8.134,8.134,0,0,0,18.121,10ZM20,10A10,10,0,1,1,10,0,10,10,0,0,1,20,10Z" fill="#797c8b"/>
</svg>
