<svg id="state_my" data-name="state my" xmlns="http://www.w3.org/2000/svg" width="20" height="20" viewBox="0 0 20 20">
  <path id="Path_3092" data-name="Path 3092" d="M478,349.973a9.167,9.167,0,1,1-9.167,9.167A9.167,9.167,0,0,1,478,349.973m0-.833a10,10,0,1,0,10,10A10,10,0,0,0,478,349.14Z" transform="translate(-468 -349.14)" fill="#181c32"/>
  <path id="Path_3093" data-name="Path 3093" d="M471.65,358.693v-.225a.634.634,0,0,1,.046-.147c.218-.866.428-1.732.659-2.555.033-.222.191-.373.363-.346h5.452a.281.281,0,0,1,.26.119.506.506,0,0,1,.1.34v.442h.659c.257,0,.349.1.415.433l.237,1.273s0,.087.046.1a.373.373,0,0,0,.356-.087l1.351-1.775c.343-.45.257-.4.732-.4a.287.287,0,0,1,.278.126.524.524,0,0,1,.091.368v1.654a1.094,1.094,0,0,1-.066.364c-.185.511-.382,1.013-.574,1.515a.842.842,0,0,0-.046.251v1.03a.647.647,0,0,1-.152.476l-.3.4a.3.3,0,0,0-.089.2.335.335,0,0,0,.056.218c.138.268.277.537.409.805a.517.517,0,0,1,.078.321.471.471,0,0,1-.124.294l-.626.823a.287.287,0,0,1-.527,0l-.844-1.108a.229.229,0,0,0-.145-.078h-.844c-.077-.018-.153.041-.178.139-.05.216-.212.351-.382.32h-.119c-.072,0-.105,0-.132.113-.073.312-.152.615-.231.927a.353.353,0,0,1-.336.32h-.659a.338.338,0,0,1-.323-.225c-.145-.294-.3-.563-.435-.866a.333.333,0,0,0-.4-.268.6.6,0,0,1-.659-.364.211.211,0,0,0-.165-.087h-1.108a.356.356,0,0,1-.237-.1c-.461-.433-.91-.866-1.358-1.334a.587.587,0,0,1-.145-.32c-.086-.736-.158-1.472-.244-2.217C471.723,359.264,471.69,358.979,471.65,358.693Z" transform="translate(-467.145 -350.374)" fill="#181c32"/>
</svg>
