<svg xmlns="http://www.w3.org/2000/svg" width="16.961" height="16.961" viewBox="0 0 16.961 16.961">
  <path id="grid-3x3-gap-fill" d="M1,2.211A1.211,1.211,0,0,1,2.211,1H4.634A1.211,1.211,0,0,1,5.846,2.211V4.634A1.211,1.211,0,0,1,4.634,5.846H2.211A1.211,1.211,0,0,1,1,4.634Zm6.057,0A1.211,1.211,0,0,1,8.269,1h2.423A1.211,1.211,0,0,1,11.9,2.211V4.634a1.211,1.211,0,0,1-1.211,1.211H8.269A1.211,1.211,0,0,1,7.057,4.634Zm6.057,0A1.211,1.211,0,0,1,14.326,1h2.423a1.211,1.211,0,0,1,1.211,1.211V4.634a1.211,1.211,0,0,1-1.211,1.211H14.326a1.211,1.211,0,0,1-1.211-1.211ZM1,8.269A1.211,1.211,0,0,1,2.211,7.057H4.634A1.211,1.211,0,0,1,5.846,8.269v2.423A1.211,1.211,0,0,1,4.634,11.9H2.211A1.211,1.211,0,0,1,1,10.692Zm6.057,0A1.211,1.211,0,0,1,8.269,7.057h2.423A1.211,1.211,0,0,1,11.9,8.269v2.423A1.211,1.211,0,0,1,10.692,11.9H8.269a1.211,1.211,0,0,1-1.211-1.211Zm6.057,0a1.211,1.211,0,0,1,1.211-1.211h2.423a1.211,1.211,0,0,1,1.211,1.211v2.423A1.211,1.211,0,0,1,16.749,11.9H14.326a1.211,1.211,0,0,1-1.211-1.211ZM1,14.326a1.211,1.211,0,0,1,1.211-1.211H4.634a1.211,1.211,0,0,1,1.211,1.211v2.423a1.211,1.211,0,0,1-1.211,1.211H2.211A1.211,1.211,0,0,1,1,16.749Zm6.057,0a1.211,1.211,0,0,1,1.211-1.211h2.423A1.211,1.211,0,0,1,11.9,14.326v2.423a1.211,1.211,0,0,1-1.211,1.211H8.269a1.211,1.211,0,0,1-1.211-1.211Zm6.057,0a1.211,1.211,0,0,1,1.211-1.211h2.423a1.211,1.211,0,0,1,1.211,1.211v2.423a1.211,1.211,0,0,1-1.211,1.211H14.326a1.211,1.211,0,0,1-1.211-1.211Z" transform="translate(-1 -1)" fill="#fff"/>
</svg>
