<svg width="228" height="154" viewBox="0 0 228 154" fill="none" xmlns="http://www.w3.org/2000/svg">
<path d="M113.423 135.647C151.205 135.647 181.834 132.201 181.834 127.95C181.834 123.699 151.205 120.252 113.423 120.252C75.6401 120.252 45.0115 123.699 45.0115 127.95C45.0115 132.201 75.6401 135.647 113.423 135.647Z" fill="#A8D1F1"/>
<path opacity="0.8" d="M181.547 53.6101C168.223 51.2774 171.49 23.2198 142.623 25.0885C128.459 26.0058 117.165 34.2813 106.948 26.4722C105.52 25.3812 104.017 24.3945 102.45 23.5199C102.267 23.4177 102.084 23.3177 101.901 23.2198C88.8242 16.205 72.5176 17.4214 58.9551 24.646C58.7716 24.7435 58.5881 24.8411 58.4061 24.9421C48.1666 30.5498 39.5558 39.5996 35.188 51.1218C29.9671 64.8942 26.6876 92.1838 45.4778 112.255H181.007C198.409 98.4872 204.379 57.6072 181.547 53.6101Z" fill="white"/>
<path d="M97.5646 81.0063H91.5758C90.837 81.0063 90.1053 81.1529 89.4227 81.4378C88.74 81.7227 88.1197 82.1404 87.5972 82.6669C87.0748 83.1934 86.6603 83.8185 86.3775 84.5065C86.0948 85.1944 85.9492 85.9318 85.9492 86.6764V98.1312H103.062V86.5466C103.062 85.8191 102.92 85.0986 102.643 84.4265C102.367 83.7543 101.962 83.1435 101.452 82.6291C100.941 82.1146 100.335 81.7065 99.6683 81.4281C99.0013 81.1496 98.2865 81.0063 97.5646 81.0063Z" fill="#4CA8BD"/>
<path d="M96.9332 82.7739H92.1805C90.9964 82.7739 89.8608 83.248 89.0235 84.0918C88.1862 84.9357 87.7158 86.0801 87.7158 87.2735V97.792H101.295V87.1705C101.295 86.5932 101.183 86.0215 100.963 85.4881C100.744 84.9546 100.423 84.47 100.018 84.0617C99.6128 83.6534 99.1319 83.3296 98.6026 83.1086C98.0734 82.8876 97.5061 82.7739 96.9332 82.7739Z" fill="#7AC7D9"/>
<path d="M103.355 97.4812H85.6566C85.144 97.4812 84.7285 97.9 84.7285 98.4165V99.3904C84.7285 99.907 85.144 100.326 85.6566 100.326H103.355C103.868 100.326 104.283 99.907 104.283 99.3904V98.4165C104.283 97.9 103.868 97.4812 103.355 97.4812Z" fill="#A0D9D8"/>
<path d="M104.283 100.326H84.7285V101.272H104.283V100.326Z" fill="#1B5F75"/>
<path d="M103.063 101.273H101.819V112.255H103.063V101.273Z" fill="#77B8BA"/>
<path d="M87.1925 101.273H85.9492V112.255H87.1925V101.273Z" fill="#77B8BA"/>
<path d="M78.0106 81.0063H72.0214C70.5292 81.0063 69.0982 81.6037 68.0431 82.6671C66.988 83.7304 66.3953 85.1726 66.3953 86.6764V98.1312H83.5079V86.5466C83.5079 85.8191 83.3657 85.0986 83.0895 84.4265C82.8132 83.7543 82.4083 83.1435 81.8978 82.6291C81.3873 82.1146 80.7813 81.7065 80.1143 81.4281C79.4474 81.1496 78.7325 81.0063 78.0106 81.0063Z" fill="#4CA8BD"/>
<path d="M77.3788 82.7739H72.6265C71.4424 82.7739 70.3068 83.248 69.4695 84.0918C68.6323 84.9357 68.1619 86.0801 68.1619 87.2735V97.792H81.7409V87.1705C81.7409 86.5932 81.6281 86.0215 81.409 85.4881C81.1898 84.9546 80.8685 84.47 80.4634 84.0617C80.0584 83.6534 79.5775 83.3296 79.0482 83.1086C78.5189 82.8876 77.9517 82.7739 77.3788 82.7739Z" fill="#7AC7D9"/>
<path d="M83.8009 97.4812H66.1024C65.5898 97.4812 65.1743 97.9 65.1743 98.4165V99.3904C65.1743 99.907 65.5898 100.326 66.1024 100.326H83.8009C84.3135 100.326 84.729 99.907 84.729 99.3904V98.4165C84.729 97.9 84.3135 97.4812 83.8009 97.4812Z" fill="#A0D9D8"/>
<path d="M84.729 100.326H65.1743V101.272H84.729V100.326Z" fill="#1B5F75"/>
<path d="M83.5079 101.273H82.2646V112.255H83.5079V101.273Z" fill="#77B8BA"/>
<path d="M67.6385 101.273H66.3953V112.255H67.6385V101.273Z" fill="#77B8BA"/>
<path d="M58.4559 81.0063H52.4667C51.7278 81.0062 50.9961 81.1528 50.3134 81.4377C49.6307 81.7226 49.0103 82.1402 48.4878 82.6667C47.9653 83.1933 47.5508 83.8184 47.268 84.5064C46.9852 85.1943 46.8396 85.9317 46.8396 86.6764V98.1312H63.9523V86.5466C63.9523 85.0774 63.3732 83.6684 62.3425 82.6294C61.3117 81.5904 59.9137 81.0066 58.4559 81.0063Z" fill="#4CA8BD"/>
<path d="M57.8246 82.7739H53.0719C51.8878 82.7739 50.7521 83.248 49.9149 84.0918C49.0776 84.9357 48.6072 86.0801 48.6072 87.2735V97.792H62.1867V87.1705C62.1867 86.5932 62.0739 86.0215 61.8547 85.4881C61.6356 84.9546 61.3143 84.47 60.9092 84.0617C60.5042 83.6534 60.0233 83.3296 59.494 83.1086C58.9647 82.8876 58.3975 82.7739 57.8246 82.7739Z" fill="#7AC7D9"/>
<path d="M64.2462 97.4812H46.5477C46.0351 97.4812 45.6196 97.9 45.6196 98.4165V99.3904C45.6196 99.907 46.0351 100.326 46.5477 100.326H64.2462C64.7588 100.326 65.1743 99.907 65.1743 99.3904V98.4165C65.1743 97.9 64.7588 97.4812 64.2462 97.4812Z" fill="#A0D9D8"/>
<path d="M65.1743 100.326H45.6196V101.272H65.1743V100.326Z" fill="#1B5F75"/>
<path d="M63.9532 101.273H62.71V112.255H63.9532V101.273Z" fill="#77B8BA"/>
<path d="M48.0838 101.273H46.8406V112.255H48.0838V101.273Z" fill="#77B8BA"/>
<path d="M162.835 26.1968H149.504V39.632H162.835V26.1968Z" fill="#77B8BA"/>
<path d="M161.912 27.126H150.427V38.7008H161.912V27.126Z" fill="#B9E1D8"/>
<path d="M184.986 26.1968H165.421V55.5991H184.986V26.1968Z" fill="#77B8BA"/>
<path d="M184.061 27.085H166.347V54.7347H184.061V27.085Z" fill="#B9E1D8"/>
<path d="M162.829 42.3943H149.51V55.8183H162.829V42.3943Z" fill="#77B8BA"/>
<path d="M161.907 43.324H150.432V54.8895H161.907V43.324Z" fill="#B9E1D8"/>
<path d="M175.203 30.0696C172.067 30.0696 169.523 30.8244 169.523 31.7553C169.523 32.6863 172.067 33.4406 175.203 33.4406C178.34 33.4406 180.883 32.6863 180.883 31.7553C180.883 30.8244 178.34 30.0696 175.203 30.0696Z" fill="#9CD7D3"/>
<path d="M183.025 36.7996H176.163V37.0377H183.025V36.7996Z" fill="white"/>
<path d="M183.025 37.5391H176.163V37.7772H183.025V37.5391Z" fill="white"/>
<path d="M183.025 38.2791H176.163V38.5172H183.025V38.2791Z" fill="white"/>
<path d="M183.025 39.0186H176.163V39.2567H183.025V39.0186Z" fill="white"/>
<path d="M180.883 39.7583H176.163V39.9964H180.883V39.7583Z" fill="white"/>
<path d="M174.557 36.7996H167.696V37.0377H174.557V36.7996Z" fill="white"/>
<path d="M174.557 37.5391H167.696V37.7772H174.557V37.5391Z" fill="white"/>
<path d="M174.557 38.2791H167.696V38.5172H174.557V38.2791Z" fill="white"/>
<path d="M174.557 39.0186H167.696V39.2567H174.557V39.0186Z" fill="white"/>
<path d="M172.415 39.7583H167.696V39.9964H172.415V39.7583Z" fill="white"/>
<path d="M174.557 42.3943H167.696V42.6324H174.557V42.3943Z" fill="white"/>
<path d="M174.557 43.1343H167.696V43.3724H174.557V43.1343Z" fill="white"/>
<path d="M174.557 43.874H167.696V44.1121H174.557V43.874Z" fill="white"/>
<path d="M174.557 44.6135H167.696V44.8516H174.557V44.6135Z" fill="white"/>
<path d="M172.415 45.3525H167.696V45.5906H172.415V45.3525Z" fill="white"/>
<path d="M177.844 53.1682L179.725 52.0704L181.605 53.1682V47.2844H177.844V53.1682Z" fill="#9CD7D3"/>
<path d="M180.022 49.8932C181.456 49.7285 182.486 48.4232 182.323 46.9777C182.159 45.5322 180.864 44.4939 179.43 44.6586C177.995 44.8233 176.965 46.1286 177.129 47.5741C177.292 49.0196 178.587 50.0579 180.022 49.8932Z" fill="#77B8BA"/>
<path d="M179.725 45.3899C179.353 45.3899 178.989 45.501 178.68 45.7092C178.371 45.9174 178.13 46.2134 177.987 46.5596C177.845 46.9059 177.808 47.2869 177.88 47.6545C177.953 48.0221 178.132 48.3598 178.395 48.6248C178.658 48.8899 178.993 49.0704 179.357 49.1436C179.722 49.2167 180.1 49.1793 180.444 49.0359C180.787 48.8926 181.081 48.6497 181.288 48.3382C181.495 48.0266 181.605 47.6602 181.605 47.2854C181.605 47.0365 181.557 46.79 181.462 46.56C181.368 46.33 181.229 46.121 181.055 45.945C180.88 45.7689 180.673 45.6293 180.444 45.5341C180.216 45.4388 179.972 45.3898 179.725 45.3899Z" fill="#B9E1D8"/>
<path d="M158.311 30.1384C157.323 29.6963 157.031 30.2769 156.872 30.1384C156.498 29.811 156.816 29.6129 157.104 29.0825C157.25 28.8161 157.568 28.5834 157.484 28.4643C157.376 28.3121 157.097 28.1135 157.097 28.1135L156.351 29.0176C156.351 29.0176 155.26 30.2462 155.202 32.0017C155.143 33.7573 154.414 34.1369 153.467 35.0268C152.52 35.9168 152.559 37.0307 152.612 37.5308C152.649 37.8767 153.342 37.5937 153.342 37.5937C153.342 37.5937 152.91 36.4769 153.655 35.9231C154.4 35.3693 155.674 37.2332 157.513 36.1012C159.57 34.8341 160.589 31.1576 158.311 30.1384Z" fill="#77B8BA"/>
<path d="M157.057 33.9457C156.919 33.9458 156.784 33.987 156.67 34.0643C156.555 34.1416 156.466 34.2513 156.413 34.3797C156.361 34.5081 156.347 34.6494 156.374 34.7856C156.401 34.9219 156.467 35.047 156.565 35.1452C156.662 35.2435 156.786 35.3103 156.922 35.3374C157.057 35.3645 157.197 35.3505 157.324 35.2973C157.452 35.2441 157.561 35.1541 157.637 35.0386C157.714 34.923 157.755 34.7872 157.755 34.6483C157.755 34.556 157.737 34.4646 157.701 34.3793C157.666 34.294 157.615 34.2165 157.55 34.1513C157.485 34.086 157.409 34.0343 157.324 33.999C157.239 33.9637 157.149 33.9456 157.057 33.9457ZM155.469 34.6483C155.396 34.6483 155.325 34.6702 155.264 34.7112C155.203 34.7522 155.155 34.8105 155.127 34.8787C155.099 34.9469 155.092 35.0219 155.106 35.0943C155.121 35.1667 155.156 35.2333 155.208 35.2855C155.259 35.3377 155.325 35.3732 155.397 35.3876C155.469 35.402 155.544 35.3946 155.611 35.3664C155.679 35.3381 155.737 35.2903 155.777 35.2289C155.818 35.1675 155.84 35.0953 155.84 35.0215C155.84 34.9226 155.801 34.8277 155.731 34.7577C155.662 34.6878 155.568 34.6484 155.469 34.6483ZM156.24 32.9147C156.167 32.919 156.097 32.945 156.038 32.9896C155.98 33.0341 155.936 33.0951 155.912 33.1649C155.888 33.2346 155.885 33.31 155.903 33.3815C155.922 33.453 155.961 33.5173 156.016 33.5663C156.07 33.6154 156.138 33.647 156.211 33.6571C156.284 33.6672 156.358 33.6553 156.423 33.6231C156.489 33.5908 156.544 33.5396 156.581 33.4759C156.618 33.4121 156.636 33.3387 156.631 33.265C156.626 33.1663 156.581 33.074 156.508 33.0083C156.434 32.9426 156.338 32.909 156.24 32.9147ZM157.329 32.3575C157.275 32.3575 157.222 32.3736 157.178 32.4038C157.133 32.434 157.098 32.477 157.077 32.5272C157.057 32.5774 157.051 32.6327 157.062 32.686C157.072 32.7393 157.098 32.7882 157.136 32.8266C157.175 32.865 157.223 32.8911 157.276 32.9017C157.329 32.9122 157.384 32.9067 157.434 32.8858C157.483 32.865 157.526 32.8297 157.556 32.7845C157.586 32.7392 157.602 32.6861 157.602 32.6317C157.602 32.5957 157.595 32.56 157.581 32.5267C157.567 32.4934 157.547 32.4631 157.522 32.4376C157.496 32.4122 157.466 32.392 157.433 32.3782C157.4 32.3645 157.365 32.3574 157.329 32.3575ZM156.786 31.4807C156.732 31.4806 156.68 31.4966 156.635 31.5268C156.59 31.5569 156.555 31.5998 156.534 31.65C156.513 31.7001 156.508 31.7554 156.518 31.8087C156.529 31.862 156.555 31.911 156.593 31.9495C156.631 31.9879 156.68 32.0142 156.732 32.0248C156.785 32.0354 156.84 32.03 156.89 32.0092C156.94 31.9885 156.982 31.9533 157.012 31.9081C157.042 31.8629 157.058 31.8098 157.058 31.7554C157.058 31.6827 157.03 31.613 156.979 31.5615C156.928 31.51 156.858 31.481 156.786 31.4807Z" fill="#9CD7D3"/>
<path d="M154.667 48.2059C153.929 47.7668 154.447 48.648 154.447 48.648C154.447 48.648 154.966 49.311 154.966 49.7736C154.966 50.2361 154.289 50.0751 154.188 49.9746C154.088 49.8741 154.069 50.5601 154.069 50.5601C154.069 50.5601 154.627 50.4401 154.966 50.3596C155.306 50.2791 155.466 53.1724 155.565 53.5144C155.664 53.8565 156.103 53.5144 156.103 53.5144C156.103 53.5144 155.405 48.648 154.667 48.2059Z" fill="#1B5F75"/>
<path d="M155.166 46.2858C154.941 45.6134 153.307 45.1002 152.351 46.439C151.395 47.7778 151.276 50.4321 152.229 51.5524C153.181 52.6726 153.992 52.7092 154.641 52.292C155.527 51.7251 154.427 50.7922 154.522 49.2089C154.617 47.6256 155.576 47.4973 155.166 46.2858Z" fill="#77B8BA"/>
<path d="M158.15 49.9748C158.05 50.0753 157.372 50.2358 157.372 49.7738C157.372 49.3117 157.891 48.6482 157.891 48.6482C157.891 48.6482 158.409 47.7645 157.671 48.2061C156.933 48.6477 156.235 53.5122 156.235 53.5122C156.235 53.5122 156.674 53.8537 156.774 53.5122C156.873 53.1707 157.033 50.2763 157.372 50.3573C157.711 50.4383 158.269 50.5579 158.269 50.5579C158.269 50.5579 158.25 49.8743 158.15 49.9748Z" fill="#1B5F75"/>
<path d="M157.174 46.2858C156.765 47.4973 157.723 47.6251 157.817 49.2089C157.911 50.7927 156.813 51.7251 157.699 52.292C158.349 52.7092 159.159 52.6731 160.111 51.5524C161.064 50.4316 160.946 47.7778 159.989 46.439C159.032 45.1002 157.398 45.6134 157.174 46.2858Z" fill="#77B8BA"/>
<path d="M55.9194 37.6788C55.9194 38.5258 56.2533 39.3381 56.8475 39.937C57.4417 40.536 58.2477 40.8725 59.0881 40.8727H102.273C102.689 40.8727 103.101 40.7902 103.486 40.6297C103.87 40.4692 104.22 40.2339 104.514 39.9373C104.808 39.6408 105.042 39.2886 105.201 38.9011C105.36 38.5136 105.442 38.0982 105.442 37.6788V37.4397H55.9194V37.6788Z" fill="#EDF6FF"/>
<path d="M103.323 32.1843H58.0712C56.223 32.1842 54.4243 32.7866 52.9437 33.9014C51.463 35.0163 50.3799 36.5839 49.856 38.3701H111.508C110.991 36.5855 109.914 35.0179 108.438 33.9026C106.962 32.7872 105.167 32.1843 103.323 32.1843Z" fill="#7AB7E3"/>
<path d="M58.406 32.1842H58.955V24.6459C58.7715 24.7435 58.588 24.8411 58.406 24.9421V32.1842ZM101.899 32.1842H102.447V23.5198C102.265 23.4177 102.082 23.3176 101.899 23.2197V32.1842Z" fill="#A8D1F1"/>
<path d="M106.388 35.5051H55.6509C55.6123 35.5051 55.5754 35.5205 55.5482 35.548C55.5209 35.5754 55.5056 35.6127 55.5056 35.6515C55.5056 35.6903 55.5209 35.7276 55.5482 35.755C55.5754 35.7825 55.6123 35.7979 55.6509 35.7979H106.388C106.427 35.7979 106.464 35.7825 106.491 35.755C106.518 35.7276 106.533 35.6903 106.533 35.6515C106.533 35.6127 106.518 35.5754 106.491 35.548C106.464 35.5205 106.427 35.5051 106.388 35.5051Z" fill="#EDF6FF"/>
<path d="M96.5059 94.1535L95.2375 79.9874L94.1647 68.3262C92.6706 69.038 89.3553 70.4306 86.0409 70.5564C81.569 70.7267 77.8324 68.433 77.8324 68.433C77.8324 68.433 75.3048 79.0272 75.0729 82.1537C74.841 85.2803 72.8894 124.704 72.8894 124.704L78.0663 125.088L86.0419 125.68L86.8775 87.0753L87.2019 125.68L92.6363 124.973L96.3331 124.492L99.1895 124.12L96.5059 94.1545V94.1535Z" fill="#E73F5A"/>
<path d="M86.8762 87.0753L87.2001 125.68L92.635 124.973L87.54 76.7451L86.8762 87.0753Z" fill="#C72747"/>
<path d="M93.551 48.6145C91.8207 47.2537 88.656 46.7975 88.656 46.7975L83.255 46.2754C83.255 46.2754 77.0522 46.8282 76.1237 48.6145C75.5074 49.7996 74.724 54.1333 74.267 56.9134C74.0351 58.3216 73.8875 59.3306 73.8875 59.3306L78.7821 59.756L77.8322 68.4341C77.8322 68.4341 79.3751 69.3812 81.6651 70.013C82.9383 70.3648 84.4425 70.6185 86.0407 70.5575C89.0554 70.4429 92.0706 69.2806 93.7156 68.5356C94.5106 68.1755 94.9855 67.913 94.9855 67.913C94.9855 67.913 93.6784 62.6479 93.2552 59.756L98.3459 58.6455C98.3459 58.6455 98.192 58.2108 97.9344 57.5233C97.0402 55.1296 94.8935 49.6703 93.551 48.6145Z" fill="#FDC56B"/>
<path d="M89.8505 69.9099C89.8505 69.9294 89.9241 71.886 89.8505 73.4073C89.7919 74.6207 88.2446 76.1299 87.684 76.6383L87.9861 70.4051L87.7576 70.3939L87.4298 77.1594L87.6298 76.9925C87.7266 76.912 90.002 74.9955 90.079 73.4185C90.1531 71.8869 90.079 69.9206 90.079 69.9011L89.8505 69.9099ZM78.6607 74.7422C77.3269 75.5468 76.15 75.7844 76.1384 75.7869L76.1819 76.0133C76.2304 76.0035 77.4039 75.7693 78.7711 74.9447C80.0342 74.1841 81.6982 72.7588 82.4505 70.2875L82.2317 70.2197C81.5035 72.6178 79.887 74.0025 78.6607 74.7422ZM77.34 89.6754C77.0108 96.3799 76.0566 124.659 76.0469 124.943L76.2754 124.951C76.2851 124.666 77.2398 96.3896 77.5685 89.6871C77.8972 82.9846 78.8897 75.217 78.8994 75.1389L78.6728 75.1096C78.6617 75.1872 77.6687 82.9675 77.34 89.6754Z" fill="white"/>
<path d="M78.0662 125.088L86.0418 125.68L86.8774 87.0752C86.8774 87.0752 84.5657 118.062 82.9424 121.141C81.3191 124.22 78.0662 125.088 78.0662 125.088ZM96.5059 94.1534C96.503 94.2749 95.9883 118.758 96.3316 124.492L99.188 124.12L96.5044 94.1544L96.5059 94.1534Z" fill="#F37D88"/>
<path d="M92.9591 68.9211L92.7311 68.9021C92.702 69.441 92.7461 69.9814 92.8623 70.5083C93.1155 71.6613 93.6916 72.5219 94.5287 72.9967L94.641 72.7957C92.7534 71.7237 92.9567 68.9489 92.9591 68.9211Z" fill="white"/>
<path d="M92.8875 52.1801C92.7683 51.9012 92.6305 51.6307 92.475 51.3706C92.4934 51.3955 92.6387 51.7082 92.8875 52.1801ZM92.8875 52.1801C94.3167 55.4979 93.2555 59.7559 93.2555 59.7559L98.3461 58.6454C98.3461 58.6454 98.1922 58.2107 97.9346 57.5232C95.9744 57.6516 93.7827 53.88 92.8875 52.1801ZM81.3472 59.1416C80.5426 58.6127 80.9333 54.2479 80.9522 54.039C80.5915 57.7755 78.4061 58.9606 76.1592 58.6357C74.8613 58.4478 74.413 57.5969 74.2663 56.9119C74.0344 58.32 73.8867 59.329 73.8867 59.329L78.7813 59.7545L77.8314 68.4326C77.8314 68.4326 79.3744 69.3796 81.6643 70.0114C83.4038 67.3528 83.0683 59.7545 83.0683 59.7545C82.4562 59.6831 81.8679 59.4736 81.3472 59.1416ZM90.6876 59.8696C90.6876 59.8696 92.171 65.99 93.7159 68.5355C94.5108 68.1754 94.9858 67.9129 94.9858 67.9129C94.9858 67.9129 93.6786 62.6478 93.2555 59.7559C93.2555 59.7559 91.5184 60.1663 90.6876 59.8696Z" fill="#F89B33"/>
<path d="M93.2556 59.7558L93.7364 62.7691C93.7364 62.7691 99.9091 64.5076 99.8364 63.0746C99.7638 61.6416 98.3463 58.6453 98.3463 58.6453L93.2556 59.7558Z" fill="#FC8AA8"/>
<path d="M83.2551 41.5963C82.985 42.9381 81.4382 43.5563 79.109 44.014C77.3139 44.3657 75.5264 46.2754 76.7658 47.9529C76.978 47.8114 77.2013 47.6875 77.4334 47.5826C79.5438 46.6067 83.2551 46.2754 83.2551 46.2754C83.9678 44.8415 84.7637 42.4521 84.7637 42.4521C83.5001 42.3214 83.2551 41.5963 83.2551 41.5963ZM94.9625 40.4678C94.9625 40.4678 96.9895 34.9797 93.0259 32.6016C89.0623 30.2235 86.6726 33.0285 86.6726 33.0285C86.6726 33.0285 83.7514 32.4879 83.0959 34.583C82.4404 36.6781 83.2551 39.6739 83.2551 39.6739C83.4899 39.5324 83.745 39.4284 84.0114 39.3656L84.0598 39.3558L84.1082 39.347C84.1266 39.3436 84.1445 39.3412 84.1624 39.3387C84.1924 39.3348 84.222 39.3319 84.2505 39.3295C84.2791 39.327 84.3115 39.3251 84.3406 39.3246C85.0096 39.3065 85.3481 39.7149 85.3481 39.7149C87.4879 39.6491 87.5944 37.5022 87.5944 37.5022C89.5605 38.2873 91.3223 37.1421 91.3223 37.1421C91.0032 40.2424 93.8562 39.3197 93.8562 39.3197C93.1228 46.9366 88.8566 44.963 88.7627 44.9186L88.6561 46.7975C88.6561 46.7975 91.8209 47.2537 93.5512 48.6145C94.1322 49.0693 94.8584 50.3417 95.5696 51.8348C95.7526 52.2173 95.9341 52.6154 96.1118 53.0165C99.6232 50.5325 95.7172 45.7134 94.87 44.7985C94.0228 43.8837 94.9625 40.4678 94.9625 40.4678Z" fill="#B3272F"/>
<path d="M91.3247 37.1411C91.3247 37.1411 89.5634 38.2863 87.5969 37.5017C87.5969 37.5017 87.4899 39.6485 85.35 39.7139C85.35 39.7139 84.6436 38.8644 83.2547 39.6754C82.7124 40.8951 83.2547 41.5963 83.2547 41.5963C83.2547 41.5963 83.4996 42.3213 84.7632 42.4521C84.7632 42.4521 83.9673 44.8429 83.2547 46.2754C83.2547 46.2754 87.1921 50.4227 88.0316 51.843C88.0316 51.843 89.0904 49.7201 88.6557 46.7975L88.7607 44.9175C88.8299 44.9502 91.1635 46.0305 92.6822 43.5484C92.9601 43.0942 93.2109 42.5204 93.4152 41.7992C93.6088 41.1132 93.7618 40.2945 93.8567 39.3177C93.8586 39.3187 91.0056 40.2413 91.3247 37.1411Z" fill="#FFCAD3"/>
<path d="M85.5606 46.4984L83.2551 46.2754C83.2551 46.2754 87.1921 50.4227 88.0316 51.843C88.0316 51.843 89.0909 49.7201 88.6561 46.7975L85.5606 46.4984Z" fill="#FFCAD3"/>
<path d="M81.2028 45.0101C79.183 45.2419 77.4852 45.7523 77.4333 47.5824C79.5437 46.6066 83.2551 46.2753 83.2551 46.2753C83.9677 44.8413 84.7636 42.452 84.7636 42.452C84.4825 42.4276 84.2072 42.3569 83.9488 42.2427C83.6743 43.0755 82.9031 44.815 81.2028 45.0101Z" fill="#8E1A25"/>
<path d="M86.006 43.1289C86.006 43.1289 85.5945 45.102 88.6542 46.7975L88.7593 44.9176C88.7593 44.9176 87.0009 44.3053 86.006 43.1289Z" fill="#FC8AA8"/>
<path d="M93.6398 43.7725C94.2207 41.4305 96.2686 36.161 91.1024 33.8829C91.1024 33.8829 89.683 33.4823 88.4363 34.0063C88.4363 34.0063 88.9011 32.8353 89.6045 32.6812C89.6045 32.6812 86.9902 32.7739 86.9524 34.8997C86.9524 34.8997 83.3055 34.4889 84.0113 39.3671L84.0597 39.3573L84.1082 39.3485C84.1266 39.3451 84.1445 39.3427 84.1624 39.3402C84.1924 39.3368 84.2219 39.3334 84.2505 39.331C84.2791 39.3285 84.311 39.3266 84.3405 39.3261C85.0096 39.308 85.348 39.7164 85.348 39.7164C85.5287 39.7118 85.7085 39.6894 85.8849 39.6496C86.3952 39.5409 86.8444 39.2385 87.1393 38.805C87.3971 38.4166 87.5536 37.9691 87.5944 37.5037C89.5605 38.2888 91.3222 37.1436 91.3222 37.1436C91.0032 40.2439 93.8562 39.3212 93.8562 39.3212C93.1227 46.9366 88.8565 44.963 88.7626 44.9186L88.6561 46.7975C88.6561 46.7975 91.8209 47.2537 93.5512 48.6145C94.1321 49.0693 94.8584 50.3418 95.5695 51.8348C95.9699 51.5284 96.2957 50.9629 95.9322 49.9353C95.2292 47.932 93.0588 46.1145 93.6398 43.7725Z" fill="#8E1A25"/>
<path d="M86.2989 36.2727C86.2989 36.2727 85.471 37.2973 85.8878 39.6471C86.3981 39.5385 86.8473 39.236 87.1422 38.8026C86.8043 38.3629 86.2272 37.4296 86.2989 36.2727Z" fill="#6F0B16"/>
<path d="M84.13 40.0956C84.13 40.0956 84.6044 40.3395 84.6737 40.6347C84.6737 40.6347 83.8061 40.8518 83.9209 41.4344C83.9209 41.4344 84.3972 40.826 84.8547 41.0348C84.8547 41.0348 85.0876 41.4954 85.0789 41.7218C85.0789 41.7232 85.4759 40.0521 84.13 40.0956Z" fill="#FC8AA8"/>
<path d="M87.2892 42.1865C87.8162 42.1865 88.2434 41.756 88.2434 41.2249C88.2434 40.6937 87.8162 40.2632 87.2892 40.2632C86.7622 40.2632 86.335 40.6937 86.335 41.2249C86.335 41.756 86.7622 42.1865 87.2892 42.1865Z" fill="#F7727E"/>
<path d="M92.2358 42.7339C92.2358 42.897 92.2769 43.0574 92.3554 43.2C92.4338 43.3426 92.5469 43.4628 92.6841 43.5492C92.962 43.095 93.2128 42.5212 93.4171 41.8C93.343 41.7813 93.2669 41.772 93.1906 41.7722C93.0652 41.7722 92.9411 41.797 92.8252 41.8453C92.7094 41.8936 92.6042 41.9644 92.5155 42.0537C92.4268 42.143 92.3565 42.2491 92.3085 42.3658C92.2605 42.4825 92.2358 42.6076 92.2358 42.7339Z" fill="#F7727E"/>
<path d="M90.172 43.2737C89.3891 43.4318 88.8091 42.7546 88.8019 42.7468C88.7917 42.7345 88.7792 42.7245 88.7651 42.7171C88.751 42.7097 88.7357 42.7052 88.7198 42.7038C88.704 42.7024 88.6881 42.7042 88.673 42.709C88.6579 42.7138 88.6438 42.7216 88.6317 42.7319C88.6196 42.7422 88.6095 42.7548 88.6022 42.769C88.5949 42.7831 88.5904 42.7986 88.5891 42.8146C88.5877 42.8305 88.5895 42.8465 88.5942 42.8618C88.599 42.877 88.6067 42.8912 88.6169 42.9034C88.6411 42.9327 89.1592 43.5426 89.9275 43.5426C90.025 43.5423 90.1223 43.5325 90.218 43.5133C90.2495 43.5068 90.2772 43.488 90.2949 43.461C90.3127 43.4339 90.319 43.4009 90.3126 43.3691C90.3062 43.3374 90.2875 43.3095 90.2607 43.2916C90.2339 43.2737 90.2011 43.2673 90.1696 43.2737H90.172Z" fill="#F16077"/>
<path d="M92.2359 40.1197C92.1488 40.1197 92.0636 40.1457 91.9911 40.1945C91.9186 40.2433 91.8622 40.3127 91.8288 40.3939C91.7955 40.475 91.7868 40.5643 91.8038 40.6505C91.8209 40.7366 91.8629 40.8157 91.9246 40.8778C91.9862 40.9399 92.0648 40.9821 92.1503 40.9992C92.2357 41.0163 92.3243 41.0074 92.4048 40.9737C92.4853 40.9401 92.5541 40.8831 92.6025 40.81C92.6508 40.7369 92.6766 40.651 92.6765 40.5632C92.6763 40.4455 92.6299 40.3327 92.5473 40.2496C92.4646 40.1664 92.3527 40.1197 92.2359 40.1197ZM88.4945 39.2029C88.4074 39.2029 88.3222 39.2289 88.2498 39.2777C88.1773 39.3265 88.1208 39.3958 88.0875 39.477C88.0541 39.5581 88.0454 39.6474 88.0624 39.7335C88.0794 39.8196 88.1214 39.8987 88.183 39.9608C88.2446 40.0229 88.3231 40.0652 88.4086 40.0824C88.494 40.0995 88.5826 40.0907 88.6631 40.0571C88.7436 40.0235 88.8124 39.9666 88.8608 39.8936C88.9092 39.8205 88.9351 39.7347 88.9351 39.6469C88.9351 39.5886 88.9237 39.5308 88.9015 39.477C88.8794 39.4231 88.847 39.3742 88.806 39.3329C88.7651 39.2917 88.7166 39.259 88.6631 39.2367C88.6097 39.2144 88.5524 39.2029 88.4945 39.2029Z" fill="#47110D"/>
<path d="M91.3248 37.1411C91.3248 37.1411 89.5635 38.2863 87.5969 37.5012C87.5561 37.9666 87.3996 38.4141 87.1418 38.8025C87.1418 38.8025 88.0225 38.6678 88.3314 38.2697C88.3314 38.2697 90.1077 38.416 90.602 38.136C90.602 38.136 90.4407 39.589 93.742 40.2633C93.7866 39.966 93.8253 39.6511 93.8582 39.3187C93.8582 39.3187 91.0057 40.2413 91.3248 37.1411ZM90.8155 40.3428C90.4896 40.3428 89.9886 41.2699 90.005 41.6743C90.0157 41.9442 90.1716 42.1989 90.4456 42.2389C90.5745 42.2549 90.7044 42.2193 90.8076 42.1397C90.9107 42.0601 90.9787 41.943 90.997 41.8134C91.0437 41.5139 91.0641 41.2109 91.058 40.9078C91.058 40.9078 91.1418 40.3428 90.8155 40.3428Z" fill="#FC8AA8"/>
<path d="M85.4935 57.4916C85.376 57.4425 85.2543 57.4044 85.1299 57.3779C85.1517 57.3852 85.2974 57.434 85.4935 57.4916Z" fill="white"/>
<path d="M85.094 57.4876C85.1327 57.5003 85.2741 57.5471 85.4615 57.6023L85.5384 57.3857C85.4146 57.3338 85.2862 57.2936 85.155 57.2656L85.094 57.4876Z" fill="black"/>
<path d="M84.5377 54.1231L82.8398 61.5448L90.5284 61.8053L91.103 59.2047L92.6765 52.085L85.1298 51.5356L84.5377 54.1231Z" fill="white"/>
<path d="M84.5377 54.123L82.8398 61.5447L90.5284 61.8053L91.103 59.2047C87.5553 58.1567 85.4808 55.6014 84.5377 54.123Z" fill="#E6E7E8"/>
<path d="M98.566 59.9735C98.566 59.9735 95.0633 54.5498 94.4208 54.0209C93.7784 53.492 91.3936 53.6247 91.2851 53.6174C91.1055 53.6052 90.6456 53.6281 90.3449 53.7506C90.1997 53.8106 90.0893 53.897 90.0704 54.0092C89.9983 54.4532 90.4577 54.5947 90.5618 54.6181L90.5778 54.622C90.2907 54.5766 89.535 54.6396 89.4589 55.0377C89.3829 55.4359 90.7133 56.0135 90.7133 56.0135C90.4437 56.0277 90.2021 56.1399 90.0782 56.3063C90.0243 56.3751 89.9935 56.4593 89.99 56.5468C89.9818 56.8367 91.4095 56.9933 91.4095 56.9933C91.2833 57.0075 91.1586 57.0336 91.0372 57.0713C90.6441 57.1972 90.6635 57.3861 90.6635 57.3861C90.5952 57.9028 92.9723 58.1906 92.9723 58.1906C93.1113 58.5546 93.9764 59.4739 93.9764 59.4739C92.5066 71.6874 97.7328 71.4937 97.7328 71.4937C98.7112 71.3361 99.4713 70.794 100.06 70.0255L100.074 70.0075C100.462 69.4925 100.73 68.8965 100.86 68.2632C100.989 67.63 100.976 66.9756 100.821 66.3481C100.279 64.1539 99.5232 62.0187 98.566 59.9735Z" fill="#FFCAD3"/>
<path d="M97.0468 69.7622C94.3782 69.1016 93.974 59.472 93.974 59.472C92.5041 71.6856 97.7304 71.4919 97.7304 71.4919C98.7088 71.3343 99.4689 70.7922 100.058 70.0237C99.3198 70.0906 98.2934 70.071 97.0468 69.7622ZM92.6905 57.675C92.4901 57.6438 90.8382 57.6663 90.661 57.3823C90.5923 57.899 92.9694 58.1869 92.9694 58.1869C92.9694 58.1869 92.891 57.7063 92.6905 57.675ZM90.4306 54.0576C90.2989 54.0088 90.3004 53.8815 90.3449 53.7527C90.1997 53.8127 90.0888 53.8991 90.0704 54.0113C89.9983 54.4553 90.4577 54.5968 90.5618 54.6202L90.5773 54.6241H90.5812C91.2865 54.7768 91.715 54.4289 91.7363 54.307C91.7576 54.185 90.7293 54.1694 90.4306 54.0576ZM91.5577 55.4506C90.9462 55.4911 89.4585 55.0398 89.4585 55.0398C89.3825 55.4394 90.7128 56.0156 90.7128 56.0156C91.9038 56.2298 92.1696 55.4101 91.5577 55.4506ZM90.4553 56.567C90.3775 56.5527 90.3036 56.5218 90.2386 56.4765C90.1735 56.4311 90.1188 56.3723 90.0781 56.304C90.0242 56.3728 89.9932 56.457 89.9896 56.5445C89.9818 56.8344 91.4095 56.991 91.4095 56.991C91.4095 56.991 92.4485 57.0803 92.325 56.8446C92.2016 56.6089 90.8247 56.6304 90.4553 56.567Z" fill="#FC8AA8"/>
<path d="M86.1778 55.1003H86.1938C86.2979 55.0847 86.7704 54.99 86.7404 54.5407C86.7327 54.425 86.6324 54.3313 86.4916 54.2577C86.204 54.1074 85.7479 54.0401 85.5678 54.0352C85.4589 54.0322 83.0987 53.6746 82.4084 54.1376C81.718 54.6007 77.7229 59.6662 77.7229 59.6662L74.3635 59.3735C74.2977 59.3676 73.5783 63.8198 74.4119 67.2933C74.6095 68.1174 74.8961 68.8864 75.295 69.528C75.8091 70.3491 76.515 70.9615 77.4736 71.2113C77.4736 71.2113 82.6582 71.9032 82.342 59.6043C82.342 59.6043 83.29 58.7719 83.4628 58.4225C83.4628 58.4225 85.8559 58.363 85.8351 57.8419C85.8351 57.8419 85.8724 57.656 85.4928 57.493C85.3753 57.4439 85.2536 57.4059 85.1292 57.3794H85.1268C85.1268 57.3794 86.5627 57.3598 86.5821 57.0705C86.5867 56.983 86.5638 56.8963 86.5167 56.8226C86.4088 56.647 86.1778 56.5123 85.9121 56.4723C85.9121 56.4723 87.2904 56.0283 87.2521 55.6233C87.2139 55.2184 86.4678 55.0827 86.1778 55.1003Z" fill="#FFCAD3"/>
<path d="M74.4104 67.2901C74.8175 65.837 75.7732 62.9964 77.7228 59.662L74.3634 59.3692C74.2976 59.3663 73.5781 63.8185 74.4104 67.2901ZM78.3154 69.554C77.0455 69.7423 76.0225 69.6638 75.2934 69.5267C75.8076 70.3478 76.5135 70.9602 77.472 71.21C77.472 71.21 82.6566 71.9018 82.3405 59.6029C82.341 59.6029 81.0338 69.1505 78.3154 69.554ZM83.7876 57.9362C83.5852 57.9484 83.4617 58.4212 83.4617 58.4212C83.4617 58.4212 85.8548 58.3617 85.834 57.8406C85.6321 58.1045 83.9904 57.9245 83.7876 57.9362ZM86.49 54.2559C86.5215 54.3881 86.5113 54.5145 86.3757 54.5486C86.0678 54.6316 85.042 54.5486 85.0521 54.673C85.0623 54.7974 85.4559 55.1839 86.1724 55.099H86.1763H86.1923C86.2963 55.0834 86.7689 54.9887 86.7388 54.5393C86.7321 54.4232 86.6323 54.3295 86.49 54.2559ZM85.1243 55.8299C84.5191 55.7323 84.7064 56.573 85.9124 56.4705C85.9124 56.4705 87.2908 56.0265 87.2525 55.6215C87.2525 55.6215 85.7294 55.9284 85.1243 55.8299ZM86.1167 57.0467C85.7435 57.0746 84.3739 56.9213 84.2286 57.1443C84.0834 57.3673 85.1262 57.3775 85.1262 57.3775C85.1262 57.3775 86.5621 57.358 86.5815 57.0687C86.5861 56.9812 86.5632 56.8945 86.5161 56.8208C86.4693 56.8849 86.4094 56.9381 86.3405 56.9771C86.2717 57.016 86.1954 57.0398 86.1167 57.0467Z" fill="#FC8AA8"/>
<path d="M76.5938 67.8076L79.2508 60.304C79.2508 60.304 76.3905 63.9916 76.5938 67.8076Z" fill="#FCDADD"/>
<path d="M85.2054 127.147C84.7247 126.816 84.2271 126.511 83.7147 126.232L83.7748 125.512L78.0664 125.088L76.3995 124.965C76.384 125.144 76.367 125.364 76.3511 125.608C76.306 126.282 76.2683 127.143 76.3027 127.836C76.3327 128.439 76.4179 128.915 76.6004 129.032C77.1935 129.409 89.2101 133.153 89.9281 132.901C90.2215 132.798 89.9736 132.067 89.2784 131.074C88.4714 129.925 87.0659 128.426 85.2054 127.147ZM97.744 125.666C97.2449 125.32 96.7277 125.001 96.1947 124.711L96.2117 124.507L92.6339 124.973L91.3752 125.137L88.7691 125.476C88.7652 125.736 88.7691 125.993 88.7768 126.232C88.8025 126.874 88.8872 127.389 89.0785 127.511C89.671 127.889 101.688 131.632 102.406 131.38C102.702 131.277 102.447 130.534 101.739 129.526C100.94 128.394 99.5619 126.926 97.744 125.666Z" fill="#415480"/>
<path d="M83.7745 125.512L78.0661 125.088L76.3992 124.965C76.3838 125.144 76.3668 125.364 76.3508 125.608C77.6749 126.404 82.0665 128.763 85.2071 127.147C84.7264 126.816 84.2288 126.511 83.7164 126.232L83.7745 125.512ZM96.2124 124.507L92.6347 124.973L91.3759 125.137C92.3471 125.613 95.1231 126.747 97.7437 125.666C97.2446 125.32 96.7275 125.001 96.1945 124.711L96.2124 124.507Z" fill="#FFCAD3"/>
<path d="M97.22 129.148C94.4178 128.437 90.062 126.694 88.7776 126.232C88.8033 126.874 88.888 127.39 89.0793 127.511C89.6718 127.889 101.689 131.632 102.407 131.38C102.702 131.277 102.448 130.534 101.739 129.526C100.932 129.914 99.2756 129.671 97.22 129.148ZM84.6848 130.732C81.9252 130.031 77.6542 128.328 76.3005 127.836C76.3306 128.439 76.4158 128.915 76.5983 129.032C77.1913 129.409 89.208 133.153 89.926 132.901C90.2194 132.798 89.9715 132.067 89.2763 131.074C88.4988 131.512 86.8038 131.269 84.6848 130.732Z" fill="#304269"/>
<path d="M99.1893 68.1117C99.5281 64.4773 96.8853 60.1919 96.8853 60.1919L99.1893 68.1117Z" fill="#FCDADD"/>
<path d="M88.6436 37.8433C88.4387 37.8368 88.234 37.8616 88.0365 37.917C87.9874 37.9322 87.9463 37.9664 87.9222 38.0122C87.8982 38.0579 87.8931 38.1114 87.9082 38.1609C87.9233 38.2104 87.9573 38.2519 88.0027 38.2761C88.0481 38.3004 88.1012 38.3054 88.1503 38.2902C88.1585 38.2902 88.9941 38.0365 89.2807 38.5927C89.2971 38.6245 89.3219 38.651 89.3523 38.6695C89.3827 38.688 89.4176 38.6978 89.4531 38.6976C89.4841 38.6977 89.5147 38.6902 89.5422 38.6757C89.5876 38.6518 89.6218 38.6107 89.6373 38.5613C89.6527 38.512 89.6481 38.4586 89.6245 38.4127C89.4434 38.058 89.1045 37.8609 88.6436 37.8433ZM92.3482 39.1016C92.1433 39.0951 91.9385 39.1201 91.7411 39.1758C91.6922 39.1912 91.6514 39.2254 91.6275 39.271C91.6036 39.3166 91.5986 39.3699 91.6136 39.4192C91.6285 39.4685 91.6623 39.5099 91.7074 39.5342C91.7525 39.5585 91.8054 39.5639 91.8544 39.5491C91.8626 39.5466 92.7002 39.2988 92.9853 39.8511C93.0016 39.8828 93.0263 39.9094 93.0566 39.928C93.0869 39.9466 93.1217 39.9564 93.1572 39.9565C93.1882 39.9563 93.2187 39.9488 93.2463 39.9345C93.2689 39.9227 93.289 39.9065 93.3054 39.8869C93.3218 39.8673 93.3342 39.8446 93.3419 39.8201C93.3496 39.7956 93.3524 39.7698 93.3502 39.7443C93.348 39.7187 93.3408 39.6938 93.329 39.671C93.1436 39.3163 92.8042 39.1197 92.3482 39.1016Z" fill="#47110D"/>
<path d="M146.268 82.757C144.913 79.3475 143.354 76.0009 142.586 74.3932C142.288 73.7672 142.108 73.4047 142.108 73.4047C145.734 71.0627 147.063 68.0176 147.335 63.9391C147.607 59.8606 144.888 52.7658 142.351 50.4238C142.102 50.1955 141.835 49.9881 141.553 49.8037C140.485 49.1001 139.209 48.6951 137.985 48.4434C137.39 48.3224 136.807 48.2365 136.266 48.1716C135.215 48.0447 134.322 47.9935 133.803 47.8979C133.779 47.8935 133.755 47.8891 133.728 47.8852C133.494 47.8517 133.259 47.8318 133.023 47.8257C132.655 47.8125 132.231 47.8164 131.785 47.831C130.769 47.8657 129.643 47.9569 128.842 48.0311L128.503 48.0638C128.362 48.0784 128.239 48.0901 128.133 48.1013C128.104 48.1047 128.076 48.1077 128.051 48.1096L127.994 48.116L127.934 48.1223L127.908 48.1252L127.859 48.1306H127.837L127.806 48.134C127.777 48.1379 127.762 48.1389 127.762 48.1389C126.796 48.3532 125.844 48.6282 124.912 48.9625C124.546 49.0947 124.202 49.2299 123.879 49.3655C121.526 50.3565 120.336 51.3728 120.336 51.3728C118.06 53.4157 115.785 62.6788 115.5 63.8762C115.481 63.9596 115.47 64.004 115.47 64.004L112.984 65.3892C112.814 65.7893 112.669 66.1716 112.549 66.5363C111.09 70.9344 112.984 72.7977 112.984 72.7977C113.826 72.8911 114.678 72.8386 115.502 72.6425C119.823 71.6472 123.186 67.2896 123.245 67.213C123.019 69.8788 122.652 72.5304 122.146 75.1568C121.491 78.5604 120.63 81.9202 119.566 85.2171C119.136 86.5462 118.636 88.1105 118.198 89.4874C117.852 90.572 117.545 91.54 117.341 92.1851H133.325C133.122 89.0321 132.676 82.1828 132.471 77.7652C132.917 79.4319 135.808 92.9311 148.425 89.2907C148.328 88.8653 148.255 88.534 148.215 88.3866C147.759 86.6999 147.047 84.7175 146.268 82.757Z" fill="white"/>
<path d="M126.699 53.8016L124.913 48.9629L122.232 55.4049L123.738 55.3941L122.614 57.2838L124.803 67.9433L127.068 71.4495L126.124 57.033L126.699 53.8016Z" fill="#DBDBDB"/>
<path d="M115.47 64.0042L112.985 65.3893C112.815 65.7894 112.669 66.1718 112.549 66.5364C113.079 66.7975 113.796 66.8053 113.808 66.8341C113.825 66.8829 114.37 65.8817 115.415 65.4011C116.459 64.9205 118.359 66.2793 118.22 65.5552C118.08 64.8312 115.47 64.0042 115.47 64.0042Z" fill="#DBDBDB"/>
<path d="M132.447 61.8951C132.78 56.9217 133.345 50.9613 133.728 47.8841C132.175 47.6401 127.762 48.1392 127.762 48.1392C127.762 48.1392 127.347 51.3658 127.06 55.3321C126.892 57.6434 126.769 60.2059 126.794 62.5274C126.816 64.4191 126.926 67.7349 127.069 71.4494C127.351 78.8082 127.765 87.7336 127.883 90.261L133.161 90.224C132.967 87.153 132.434 78.3339 132.247 72.0442C132.192 70.2009 132.166 68.5751 132.187 67.3748C132.209 65.9189 132.308 63.9951 132.447 61.8951Z" fill="#CD481D"/>
<path d="M127.069 71.4495C127.352 78.8082 127.855 89.6556 127.973 92.1859H133.325C133.131 89.115 132.434 78.3359 132.244 72.0462C131.181 72.3667 129.246 72.6405 127.069 71.4495Z" fill="#AD2544"/>
<path d="M127.762 48.1394C127.762 48.1394 127.347 51.366 127.06 55.3323C127.729 57.2005 127.442 61.7728 127.442 61.7728C127.442 61.7728 128.866 61.3825 130.26 61.7728C131.052 61.9958 131.88 61.965 132.448 61.8972C132.488 61.2951 132.531 60.6774 132.578 60.0563C132.913 55.527 133.391 50.5966 133.727 47.8911C133.727 47.89 133.727 47.8888 133.727 47.8877C132.175 47.6383 127.762 48.1394 127.762 48.1394Z" fill="#E15925"/>
<path d="M132.58 60.0527C132.915 55.5233 133.393 50.5929 133.729 47.8875C133.679 48.0758 131.838 55.3072 132.58 60.0527Z" fill="#CD481D"/>
<path d="M136.266 48.17C135.215 48.0431 134.322 47.9919 133.803 47.8962C133.779 47.8918 133.755 47.8874 133.728 47.8835C133.345 50.9613 132.78 56.9217 132.448 61.895C132.308 63.9931 132.209 65.9184 132.184 67.3748C132.163 68.5751 132.189 70.2013 132.244 72.0442L133.728 68.7493L137.109 56.405L134.952 54.8803L137.48 54.3977L136.266 48.17Z" fill="white"/>
<path d="M136.266 48.1699L137.481 54.3977L134.953 54.8802L137.109 56.4045L133.728 68.7488L132.244 72.0442L134.681 68.5629L138.068 56.627L137.035 55.2218L138.456 54.9154L136.266 48.1699Z" fill="#DBDBDB"/>
<path d="M128.491 47.9475L128.514 48.1773L128.956 48.1353V47.9031L128.832 47.9148C128.71 47.926 128.596 47.9367 128.491 47.9475Z" fill="black"/>
<path d="M122.462 80.1845L119.565 85.2154L122.657 87.2754L125.608 75.1555H122.145L122.462 80.1845Z" fill="#DBDBDB"/>
<path d="M121.766 77.0196C121.169 79.7873 120.434 82.5231 119.565 85.2166L122.069 86.1817L124.611 77.1318L125.05 75.5705L122.145 75.1592C122.024 75.7922 121.897 76.4123 121.766 77.0196Z" fill="white"/>
<path d="M121.766 77.0196L124.61 77.1308L125.05 75.5695L122.145 75.1582C122.024 75.7918 121.897 76.4123 121.766 77.0196Z" fill="white"/>
<path d="M132.47 77.764C132.676 82.183 133.121 89.0309 133.325 92.1839H146.62C147.449 92.1851 148.248 91.8689 148.855 91.2993C148.71 90.6015 148.551 89.8604 148.424 89.29C135.807 92.9299 132.919 79.4302 132.47 77.764ZM122.034 57.2837C121.977 57.3359 119.527 59.5842 121.229 63.8159C122.951 68.0974 115.032 72.3681 112.985 72.798C118.443 73.4323 123.174 67.304 123.244 67.2128C123.244 67.2128 123.571 65.1455 123.406 63.632C123.407 63.6305 120.167 62.2287 122.034 57.2837Z" fill="#DBDBDB"/>
<path d="M112.985 65.3899C112.017 67.6616 111.894 69.3586 112.06 70.5516C112.276 72.1002 112.985 72.796 112.985 72.796C113.587 71.7226 113.912 70.755 114.056 69.8963C114.531 67.0581 113.027 65.4319 112.985 65.3884L112.985 65.3899Z" fill="#B1B3B6"/>
<path d="M112.985 65.3894C112.985 65.3894 112.376 64.478 111.743 64.4024C111.437 64.3621 111.127 64.3944 110.836 64.4965C110.79 64.5127 110.745 64.5321 110.702 64.5546C110.702 64.5546 106.66 63.4905 106.313 64.0379C105.967 64.5853 107.682 65.9076 107.682 65.9076C106.834 66.9103 107.746 67.6856 107.746 67.6856C107.746 67.6856 107.661 68.0042 107.836 68.4784C107.962 68.8239 108.395 69.1752 108.395 69.1752C108.44 70.3906 109.767 70.2974 110.159 70.2696C110.551 70.2418 111.999 70.5433 111.999 70.5433C112.019 70.5467 112.04 70.5496 112.061 70.5516C112.866 70.657 113.528 70.3564 114.056 69.8983C114.11 69.5788 114.141 69.2557 114.147 68.9317C114.192 66.6931 113.022 65.4285 112.985 65.3904L112.985 65.3894Z" fill="#FFCAD3"/>
<path d="M110.406 68.2853C110.355 68.2792 110.304 68.2938 110.264 68.3257C110.224 68.3576 110.197 68.4043 110.191 68.4556C110.185 68.5044 110.118 68.9225 109.605 68.9869C109.213 69.0364 108.817 69.0349 108.425 68.9825C108.374 68.974 108.322 68.9862 108.281 69.0164C108.239 69.0465 108.211 69.0922 108.202 69.1433C108.194 69.1944 108.206 69.2468 108.236 69.2889C108.266 69.3311 108.311 69.3595 108.362 69.368C108.581 69.3995 108.802 69.4145 109.023 69.4129C109.233 69.413 109.444 69.4002 109.652 69.3743C110.316 69.2904 110.546 68.7654 110.575 68.4995C110.58 68.4487 110.565 68.3978 110.534 68.3577C110.502 68.3176 110.457 68.2917 110.406 68.2853ZM109.799 67.5798C109.767 67.612 108.996 68.3526 107.859 67.5271C107.817 67.4968 107.765 67.4844 107.714 67.4927C107.664 67.501 107.618 67.5292 107.588 67.5712C107.558 67.6132 107.546 67.6655 107.554 67.7166C107.562 67.7677 107.59 67.8134 107.632 67.8437C108.109 68.1897 108.541 68.3043 108.904 68.3043C109.334 68.3024 109.75 68.1433 110.073 67.8564C110.091 67.8383 110.105 67.8168 110.115 67.7931C110.125 67.7695 110.13 67.7441 110.13 67.7184C110.13 67.6928 110.125 67.6674 110.115 67.6437C110.105 67.62 110.091 67.5984 110.073 67.5803C110.055 67.5621 110.034 67.5477 110.01 67.5378C109.987 67.528 109.962 67.5229 109.936 67.5228C109.911 67.5228 109.886 67.5278 109.862 67.5375C109.839 67.5473 109.817 67.5617 109.799 67.5798ZM111.058 65.7774L110.89 65.3871C110.89 65.3871 109.609 65.7198 109.836 65.3978C110.064 65.0758 110.702 64.5518 110.702 64.5518C110.702 64.5518 109.081 65.1295 109.081 65.6252C109.081 66.1209 110.63 65.8579 110.63 65.8579C111.242 68.6664 113.471 67.9677 113.471 67.9677C113.471 67.9677 111.573 68.0613 111.058 65.7774Z" fill="#FC8AA8"/>
<path d="M131.785 47.8292C130.769 47.8639 129.642 47.9551 128.842 48.0293L128.503 48.062L128.133 48.0995C128.104 48.103 128.076 48.1059 128.05 48.1078L127.993 48.1142L127.934 48.1205C127.925 48.1205 127.916 48.1205 127.908 48.1235L127.859 48.1288H127.837L127.806 48.1322C127.777 48.1361 127.762 48.1371 127.762 48.1371C127.713 51.5237 129.886 51.3183 129.886 51.3183C132.27 51.0256 133.023 47.8219 133.023 47.8219C132.655 47.8107 132.231 47.8146 131.785 47.8292Z" fill="#FFCAD3"/>
<path d="M142.351 50.4221C142.102 50.1938 141.835 49.9864 141.553 49.802C139.927 51.5312 139.81 55.4047 139.81 55.4047L142.621 65.9276C141.327 65.9501 138.985 66.7825 138.985 66.7825C137.964 67.1006 137.541 68.4414 137.488 69.8915C137.413 71.93 138.064 74.1934 138.806 74.1798C139.003 74.1758 139.2 74.1595 139.395 74.131C140.621 73.9587 142.109 73.4064 142.109 73.4064C145.734 71.0644 148.582 69.1879 148.855 65.1118C149.019 62.6449 147.534 58.6494 145.774 55.3579C144.622 53.2003 143.353 51.3487 142.351 50.4221Z" fill="white"/>
<path d="M142.621 65.9277C141.326 65.9501 138.984 66.7825 138.984 66.7825C137.963 67.1006 137.541 68.4414 137.487 69.8915C138.904 68.2814 143.205 67.5661 144.05 66.5737C144.961 65.5042 139.809 55.4038 139.809 55.4038L142.621 65.9277Z" fill="#DBDBDB"/>
<path d="M138.984 66.7825C137.141 67.3563 137.248 71.2537 137.955 73.1493C138.189 73.7772 138.487 74.1856 138.806 74.1798C139.003 74.1756 139.199 74.1593 139.394 74.131C139.685 73.7748 139.927 73.2215 140.072 72.3257C140.164 71.7119 140.213 71.0923 140.217 70.4716C140.266 67.4207 138.984 66.7825 138.984 66.7825Z" fill="#B1B3B6"/>
<path d="M139.053 66.8253L139.031 66.8112C139.017 66.8013 139.003 66.7923 138.988 66.7843H138.985C138.985 66.7843 137.574 66.2476 137.577 65.1459C137.577 64.677 137.303 64.5765 137.303 64.5765C136.189 64.5072 136.298 66.0198 136.581 66.556C136.753 66.8844 136.6 67.5138 136.6 67.5138C136.6 67.5138 135.554 67.5655 135.005 67.7036C134.958 67.7152 134.913 67.735 134.873 67.7621C134.477 68.0227 134.576 68.896 134.576 68.896C134.286 69.7426 134.559 70.1051 134.559 70.1051C134.165 70.572 134.526 71.4513 134.526 71.4513C134.114 71.6572 134.217 72.046 134.217 72.046C134.217 72.311 135.828 73.3888 136.582 73.4571C136.855 73.4825 137.387 73.3414 137.955 73.1512C137.958 73.15 137.961 73.149 137.963 73.1482C138.963 72.8125 140.07 72.3271 140.07 72.3271C140.162 71.7133 140.21 71.0937 140.215 70.473C140.259 67.8495 139.319 67.0102 139.053 66.8253Z" fill="#FFCAD3"/>
<path d="M139.053 66.8253L139.031 66.8112L138.988 66.7843H138.985C139.005 66.8224 139.793 68.3345 139.275 70.5847C139.057 71.5359 138.606 72.4169 137.963 73.1473C138.963 72.8116 140.07 72.3261 140.07 72.3261C140.162 71.7123 140.21 71.0927 140.215 70.472C140.259 67.8495 139.319 67.0102 139.053 66.8253ZM137.302 64.5746C136.189 64.5053 136.298 66.0178 136.58 66.554C136.753 66.8824 136.599 67.5118 136.599 67.5118C136.599 67.5118 135.553 67.5635 135.004 67.7016C134.957 67.7133 134.913 67.7331 134.873 67.7602C135.365 67.9036 136.682 68.0637 137.1 67.809C137.612 67.4943 136.8 65.9061 136.725 65.3762C136.65 64.8463 137.302 64.5746 137.302 64.5746ZM136.647 68.9487L134.599 68.6989C134.574 68.6957 134.548 68.6976 134.524 68.7043C134.499 68.7111 134.476 68.7227 134.456 68.7384C134.416 68.7702 134.389 68.8169 134.383 68.8682C134.376 68.9196 134.39 68.9714 134.422 69.0124C134.453 69.0533 134.5 69.0799 134.551 69.0863L136.598 69.3391H136.621C136.673 69.3422 136.723 69.3246 136.762 69.2902C136.8 69.2558 136.824 69.2074 136.827 69.1556C136.83 69.1039 136.812 69.053 136.778 69.0142C136.744 68.9754 136.696 68.9518 136.645 68.9487H136.647ZM136.467 70.7818L134.641 69.9246C134.618 69.9137 134.593 69.9076 134.567 69.9065C134.542 69.9054 134.516 69.9094 134.493 69.9181C134.469 69.9269 134.447 69.9404 134.428 69.9577C134.409 69.9751 134.394 69.996 134.383 70.0192C134.372 70.0425 134.366 70.0676 134.365 70.0933C134.364 70.1189 134.368 70.1445 134.377 70.1686C134.386 70.1927 134.399 70.2149 134.416 70.2338C134.433 70.2527 134.454 70.268 134.477 70.2788L136.304 71.1346C136.327 71.1455 136.352 71.1516 136.377 71.1527C136.403 71.1539 136.428 71.1499 136.452 71.1411C136.476 71.1323 136.498 71.1189 136.517 71.1015C136.535 71.0841 136.551 71.0632 136.561 71.0399C136.583 70.9931 136.585 70.9396 136.567 70.8913C136.549 70.8429 136.513 70.8036 136.467 70.7818ZM136.287 72.0026L134.602 71.2707C134.554 71.2502 134.501 71.2494 134.453 71.2686C134.406 71.2877 134.367 71.3252 134.347 71.3727C134.327 71.4203 134.326 71.474 134.345 71.5221C134.364 71.5703 134.401 71.6088 134.448 71.6293L136.134 72.3612C136.158 72.372 136.184 72.3775 136.21 72.3773C136.255 72.3772 136.298 72.3616 136.332 72.3333C136.367 72.3049 136.39 72.2654 136.399 72.2215C136.408 72.1776 136.402 72.1319 136.382 72.0922C136.361 72.0524 136.328 72.0209 136.287 72.0031V72.0026Z" fill="#FC8AA8"/>
<path d="M139.008 55.2217L133.397 59.9057L134.872 67.7611C134.913 67.734 134.957 67.7142 135.004 67.7026C135.24 67.6488 135.479 67.6097 135.72 67.5855C136.171 67.5338 136.599 67.5128 136.599 67.5128C136.599 67.5128 136.752 66.8834 136.58 66.555C136.298 66.0183 136.187 64.5057 137.302 64.5755C137.302 64.5755 137.577 64.676 137.576 65.1449C137.576 66.2457 138.984 66.7833 138.984 66.7833C138.984 66.7833 141.326 65.951 142.62 65.929L139.809 55.4056L139.008 55.2217Z" fill="#658BD7"/>
<path d="M139.008 55.2217L133.397 59.9057L134.872 67.7611C134.913 67.734 134.957 67.7142 135.004 67.7026C135.24 67.6488 135.479 67.6097 135.72 67.5855L134.389 60.234L139.811 55.4037L139.008 55.2217Z" fill="#0B378A"/>
<path d="M133.397 59.9052L134.389 60.2331L139.809 55.4046L139.008 55.2217L133.397 59.9052Z" fill="#A0C4E8"/>
<path d="M138.806 74.1796C138.489 74.1855 138.189 73.7771 137.955 73.1492C137.547 73.2853 137.159 73.3961 136.871 73.439C136.776 73.4556 136.678 73.461 136.581 73.4551C136.423 73.4354 136.268 73.3954 136.12 73.336L136.622 76.2357H137.3L137.324 76.2162L140.014 74.0162C139.804 74.0611 139.595 74.0996 139.392 74.1284C139.198 74.1575 139.002 74.1746 138.806 74.1796Z" fill="#658BD7"/>
<path d="M136.582 73.4552C136.423 73.4355 136.269 73.3955 136.121 73.3362L136.623 76.2359H137.3L137.325 76.2163L136.87 73.4391C136.775 73.4556 136.678 73.461 136.582 73.4552Z" fill="#0B378A"/>
<path d="M130.873 42.6326C131.152 41.1513 132.243 42.3155 132.243 42.3155C132.131 41.606 131.407 41.6675 131.407 41.6675C131.757 41.3104 132.343 41.2747 132.343 41.2747C130.706 40.9942 130.873 42.6326 130.873 42.6326Z" fill="white"/>
<path d="M133.345 41.33L132.362 41.1612C131.838 41.0714 131.43 41.1612 131.149 41.4247C130.686 41.8638 130.756 42.6128 130.76 42.6445L130.84 43.431L130.985 42.6542C131.033 42.3961 131.137 42.0751 131.359 42.0092C131.639 41.9263 132.031 42.2595 132.158 42.3947L132.413 42.6659L132.354 42.2976C132.284 41.8457 131.983 41.6496 131.711 41.5808C131.909 41.4759 132.126 41.4111 132.349 41.39L133.345 41.33ZM131.099 41.8945C131.112 41.8643 131.127 41.835 131.143 41.8057L131.274 41.795C131.21 41.8168 131.151 41.8506 131.099 41.8945ZM131.326 41.5867L131.197 41.7184C131.229 41.673 131.266 41.631 131.306 41.593C131.337 41.5638 131.37 41.5372 131.406 41.5135C131.378 41.5364 131.352 41.5608 131.326 41.5867Z" fill="black"/>
<path d="M136.848 37.6042C135.343 36.4478 136.218 31.8634 133.82 31.8273C131.422 31.7912 130.829 34.4562 130.829 34.4562C131.122 34.626 131.391 34.8333 131.631 35.0729C132.5 35.9316 133.026 37.1787 133.341 38.4512C133.958 40.9342 133.777 43.5168 133.777 43.5168C133.944 43.5496 134.114 43.5728 134.284 43.5861C134.43 43.5982 134.602 43.6075 134.797 43.6095C135.115 43.2582 135.386 42.7385 135.386 42.7385C135.426 43.0283 135.391 43.3235 135.285 43.5958C135.53 43.5774 135.774 43.5449 136.016 43.4982C136.228 43.4592 136.444 43.4114 136.641 43.3577C137.195 42.3892 136.671 41.2109 136.649 41.1621C137.279 41.4304 137.552 42.094 137.67 42.5604C137.704 42.6971 137.726 42.8171 137.738 42.9049C138.065 42.7243 138.37 42.508 138.649 42.2599C138.988 41.9603 139.211 41.6651 139.338 41.3777C139.998 39.8872 138.11 38.5737 136.848 37.6042Z" fill="#721D5A"/>
<path d="M133.999 36.1611C134.616 38.6441 133.775 43.5194 133.775 43.5194C133.943 43.5523 134.113 43.5754 134.283 43.5887C134.937 42.8183 135.564 40.9681 135.585 39.8752C135.624 37.7742 134.49 36.2943 133.999 36.1611Z" fill="#560A42"/>
<path d="M131.43 34.5835C126.751 33.4433 125.359 36.3259 125.359 36.3259C125.146 36.6625 125.039 37.0578 124.795 37.3505C123.474 38.9382 123.408 40.5976 124.081 41.9857C125.215 44.3248 128.445 45.8998 131.307 45.0811C132.242 44.8135 133.083 44.2865 133.735 43.5602C134.387 42.8338 134.823 41.9375 134.994 40.9733C135.124 40.2741 135.165 39.5609 135.115 38.8513C134.955 36.8655 133.915 35.1895 131.43 34.5835Z" fill="#882966"/>
<path d="M124.223 42.0199C123.86 42.9811 124.352 44.8235 125.508 44.4185L125.438 41.9184C125.438 41.9184 124.586 41.0587 124.223 42.0199Z" fill="white"/>
<path d="M125.519 41.8367C125.5 41.8172 125.049 41.3688 124.617 41.4619C124.396 41.5107 124.227 41.6835 124.116 41.9787C123.842 42.7042 124.028 43.7839 124.513 44.286C124.599 44.3814 124.704 44.4577 124.82 44.5103C124.937 44.5629 125.063 44.5905 125.191 44.5914C125.312 44.5902 125.432 44.5686 125.547 44.5275L125.626 44.4997L125.551 41.8694L125.519 41.8367ZM124.677 44.1255C124.254 43.6864 124.088 42.7017 124.33 42.0606C124.412 41.8435 124.524 41.7191 124.665 41.6879C124.689 41.6826 124.714 41.6799 124.739 41.68C124.959 41.68 125.209 41.863 125.325 41.9689L125.391 44.3338C125.119 44.4065 124.879 44.3343 124.677 44.1255Z" fill="black"/>
<path d="M131.693 45.1977C131.595 45.2593 131.493 45.3144 131.387 45.3626C130.427 45.8666 128.972 46.4984 127.705 46.5053L127.809 49.0312C127.809 49.0312 129.262 50.8238 133.023 47.8241C132.917 46.9459 132.498 45.0728 132.429 44.7439C132.171 44.8731 131.925 45.025 131.693 45.1977Z" fill="#FFCAD3"/>
<path d="M127.705 46.5049L127.753 47.7022C128.815 47.369 130.712 46.6112 131.692 45.1973C131.595 45.25 131.495 45.3051 131.386 45.3622C130.427 45.8667 128.972 46.4985 127.705 46.5049Z" fill="#FC8AA8"/>
<path d="M132.269 39.5045C132.252 38.8962 132.08 38.3026 131.769 37.7808C131.458 37.259 131.019 36.8266 130.495 36.5253C130.252 36.3873 129.993 36.2801 129.724 36.2062C128.195 35.7856 126.92 36.5536 126.141 36.8688C125.318 37.2025 124.326 38.5985 123.95 40.1637C123.932 40.2383 123.916 40.3125 123.902 40.3877C123.783 40.9853 123.757 41.6016 123.867 42.1871C123.915 42.4418 123.963 42.6771 124.012 42.8931C124.169 43.5977 124.327 44.1129 124.488 44.5003C124.805 45.2668 125.133 45.5488 125.477 45.8523C127.786 47.8899 132.284 44.8506 132.428 44.7526L132.432 44.7501C132.46 44.5476 132.48 44.3481 132.501 44.1505C132.622 42.9404 132.602 41.7203 132.441 40.515C132.393 40.1725 132.335 39.8357 132.269 39.5045Z" fill="#FFCAD3"/>
<path d="M131.648 38.9356C131.63 38.293 130.79 37.2713 130.495 36.5253C130.252 36.3873 129.993 36.2801 129.724 36.2062C128.196 35.7856 126.92 36.5536 126.141 36.8688C125.318 37.2025 124.326 38.5985 123.951 40.1637C123.933 40.2383 123.916 40.3125 123.902 40.3877C124.905 39.8758 126.105 39.0303 126.701 38.2779C126.701 38.2779 128.524 39.6333 130.168 39.6997C130.541 39.7148 130.894 41.7358 131.238 41.6182C131.191 41.2761 131.714 39.2674 131.648 38.9356ZM131.411 43.6747C131.49 43.8219 131.579 43.9633 131.678 44.0978C131.863 44.35 132.128 44.6413 132.425 44.753C132.425 44.753 132.473 44.753 132.473 44.7364C132.493 44.5462 132.481 44.332 132.499 44.151C132.396 44.1385 132.294 44.1169 132.195 44.0865C131.909 44.0036 131.642 43.8635 131.411 43.6747Z" fill="#FC8AA8"/>
<path d="M127.601 44.4647C127.574 44.4474 127.541 44.4415 127.51 44.4484C127.479 44.4552 127.451 44.4742 127.434 44.5012C127.424 44.5169 127.187 44.8774 126.623 44.935C126.168 44.9838 125.957 44.775 125.949 44.7672C125.938 44.7556 125.925 44.7463 125.91 44.7399C125.896 44.7335 125.88 44.73 125.864 44.7297C125.848 44.7294 125.832 44.7322 125.818 44.7381C125.803 44.7439 125.789 44.7526 125.778 44.7637C125.766 44.7749 125.757 44.7881 125.751 44.8028C125.744 44.8175 125.741 44.8334 125.741 44.8494C125.74 44.8654 125.743 44.8814 125.749 44.8963C125.755 44.9113 125.763 44.9249 125.774 44.9365C125.785 44.9472 126.019 45.1858 126.494 45.1858C126.543 45.1858 126.594 45.1834 126.648 45.178C127.333 45.1072 127.626 44.6515 127.638 44.6325C127.647 44.619 127.653 44.604 127.655 44.5882C127.658 44.5725 127.658 44.5564 127.654 44.5408C127.651 44.5252 127.644 44.5104 127.635 44.4974C127.626 44.4843 127.614 44.4732 127.601 44.4647Z" fill="#F16077"/>
<path d="M125.232 43.2884C125.147 43.5714 125.274 43.7764 125.543 43.8739C125.812 43.9715 126.084 43.9266 126.12 43.408C126.157 42.8893 125.875 42.299 125.875 42.299C125.552 41.8608 125.318 43.0059 125.232 43.2884Z" fill="#FC8AA8"/>
<path d="M129.362 42.4476C129.183 42.473 129.016 42.5512 128.882 42.6723C128.748 42.7933 128.652 42.9518 128.607 43.1276C128.562 43.3035 128.57 43.4889 128.629 43.6603C128.689 43.8317 128.797 43.9814 128.941 44.0906C129.086 44.1998 129.258 44.2635 129.438 44.2736C129.618 44.2838 129.797 44.2399 129.952 44.1476C130.108 44.0553 130.232 43.9187 130.31 43.755C130.388 43.5914 130.417 43.4081 130.391 43.2283C130.375 43.1088 130.335 42.9939 130.274 42.89C130.213 42.7861 130.133 42.6953 130.037 42.6228C129.941 42.5503 129.833 42.4975 129.717 42.4675C129.601 42.4374 129.48 42.4306 129.362 42.4476ZM124.01 42.894C124.167 43.5986 124.325 44.1138 124.486 44.5012C124.62 44.3857 124.718 44.2336 124.768 44.0634C124.817 43.8931 124.817 43.7119 124.767 43.5418C124.716 43.3717 124.618 43.22 124.484 43.105C124.35 42.99 124.185 42.9168 124.01 42.894Z" fill="#F7727E"/>
<path d="M124.749 41.6313C124.675 41.642 124.605 41.6747 124.549 41.7252C124.493 41.7758 124.454 41.8419 124.435 41.9153C124.416 41.9886 124.42 42.0659 124.444 42.1374C124.469 42.2089 124.515 42.2713 124.575 42.3168C124.635 42.3623 124.707 42.3888 124.782 42.393C124.857 42.3971 124.932 42.3788 124.996 42.3403C125.061 42.3017 125.113 42.2448 125.146 42.1765C125.178 42.1082 125.19 42.0318 125.179 41.9568C125.172 41.907 125.156 41.859 125.13 41.8157C125.105 41.7724 125.071 41.7345 125.031 41.7043C124.991 41.6741 124.946 41.6521 124.898 41.6395C124.849 41.627 124.799 41.6242 124.749 41.6313ZM127.712 41.3932C127.621 41.4062 127.536 41.4461 127.467 41.5079C127.399 41.5697 127.35 41.6506 127.327 41.7403C127.304 41.8301 127.308 41.9246 127.338 42.0121C127.369 42.0995 127.424 42.1759 127.498 42.2315C127.571 42.2872 127.66 42.3196 127.751 42.3247C127.843 42.3298 127.934 42.3073 128.014 42.2602C128.093 42.213 128.156 42.1432 128.196 42.0597C128.236 41.9762 128.25 41.8826 128.237 41.7909C128.229 41.73 128.208 41.6714 128.177 41.6185C128.146 41.5655 128.105 41.5193 128.056 41.4823C128.007 41.4454 127.952 41.4185 127.893 41.4032C127.834 41.388 127.772 41.3846 127.712 41.3932ZM125.447 40.474C125.43 40.4618 125.04 40.172 124.599 40.2788C124.465 40.3099 124.341 40.3731 124.236 40.4632C124.132 40.5533 124.051 40.6675 124 40.796C123.991 40.8203 123.987 40.846 123.989 40.8717C123.99 40.8974 123.997 40.9226 124.008 40.9458C124.019 40.9689 124.034 40.9897 124.054 41.0068C124.073 41.0239 124.095 41.037 124.119 41.0454C124.14 41.0525 124.161 41.0561 124.183 41.0561C124.223 41.056 124.262 41.0434 124.295 41.0201C124.327 40.9967 124.352 40.9638 124.365 40.9258C124.395 40.859 124.439 40.8001 124.496 40.7539C124.552 40.7077 124.618 40.6755 124.689 40.6599C124.95 40.597 125.209 40.7848 125.214 40.7887C125.235 40.8041 125.258 40.8153 125.282 40.8216C125.307 40.828 125.333 40.8294 125.358 40.8257C125.383 40.8221 125.407 40.8135 125.429 40.8004C125.451 40.7873 125.47 40.77 125.486 40.7494C125.501 40.7289 125.512 40.7055 125.518 40.6807C125.525 40.6558 125.526 40.63 125.522 40.6046C125.519 40.5792 125.51 40.5547 125.497 40.5327C125.484 40.5106 125.467 40.4913 125.447 40.476V40.474ZM127.898 39.9451C127.749 39.9271 127.599 39.9524 127.465 40.0182C127.33 40.0839 127.217 40.1873 127.14 40.3159C127.114 40.3612 127.108 40.4147 127.122 40.4648C127.136 40.5148 127.169 40.5571 127.214 40.5826C127.259 40.608 127.312 40.6144 127.362 40.6003C127.411 40.5863 127.453 40.553 127.478 40.5077C127.519 40.445 127.576 40.3953 127.643 40.3644C127.711 40.3335 127.786 40.3228 127.859 40.3335C128.158 40.3647 128.359 40.6458 128.363 40.6511C128.393 40.6922 128.437 40.7199 128.487 40.7283C128.537 40.7367 128.588 40.7251 128.63 40.6961C128.671 40.6671 128.7 40.6229 128.709 40.5729C128.719 40.5229 128.709 40.4712 128.681 40.4286C128.668 40.4111 128.378 39.9958 127.898 39.9451Z" fill="#47110D"/>
<path d="M135.093 38.7954C135.085 38.545 135.052 38.2959 134.996 38.0518C134.455 35.3527 131.985 34.7438 131.985 34.7438L130.827 34.4539C129.426 34.1875 128.303 34.3339 127.471 34.6257C126.831 34.8506 126.363 35.1624 126.073 35.4371C125.609 35.5111 125.167 35.6865 124.777 35.9509C123.958 36.4998 123.504 37.1707 123.294 37.805C122.895 39.0062 123.379 40.0728 123.921 39.9191C124.749 39.6844 126.573 37.4585 126.573 37.4585C126.573 37.4585 128.98 39.5722 131.258 38.8301C132.561 38.4061 132.301 37.3214 131.438 36.612C132.056 35.9289 133.109 36.2802 133.048 36.8306C132.997 37.2387 132.897 37.6392 132.752 38.0235C133.453 37.278 133.88 37.9006 133.88 37.9006C133.402 39.1926 132.794 41.2106 134.073 39.3609C134.136 39.9728 134.236 41.7073 133.541 42.9408C133.094 43.7302 132.583 44.0054 132.195 44.0864C132.025 44.1236 131.85 44.1273 131.679 44.0971C131.864 44.3494 132.128 44.6407 132.425 44.7524C132.441 44.7548 132.458 44.7538 132.474 44.7495C133.795 43.959 134.716 42.5338 134.991 40.974C135.122 40.275 135.162 39.562 135.112 38.8525C135.108 38.833 135.1 38.8154 135.093 38.7954Z" fill="#721D5A"/>
<path d="M130.829 37.2832C130.581 37.1241 129.604 37.2344 128.927 37.009C128.081 36.7279 127.253 36.1444 126.397 36.16C126.397 36.16 129.502 39.0387 130.829 38.279C130.829 38.278 131.509 37.7184 130.829 37.2832Z" fill="#882966"/>
<path d="M125.508 37.0334C124.976 37.1846 124.447 39.2251 123.832 39.0826C123.532 39.0123 123.15 38.6986 123.297 37.8052C122.897 39.006 123.381 40.0726 123.923 39.9179C124.751 39.6832 126.575 37.4574 126.575 37.4574C126.575 37.4574 126.041 36.8816 125.508 37.0334ZM127.473 34.6279C126.833 34.8529 126.365 35.1646 126.075 35.4393C126.837 35.4125 128.973 35.5145 128.973 35.5145C128.973 35.5145 128.308 35.1344 127.631 35.1344C127.275 35.1363 127.214 34.8104 127.473 34.6279ZM136.647 41.1621C136.647 41.1621 136.671 43.2114 136.014 43.4973C136.226 43.4582 136.442 43.4104 136.639 43.3568C137.194 42.3882 136.669 41.2099 136.648 41.1611L136.647 41.1621Z" fill="#560A42"/>
<path d="M131.765 41.6526L131.959 44.0122C133.381 44.7836 134.458 42.0947 133.695 41.1613C132.769 40.0284 131.765 41.6526 131.765 41.6526Z" fill="#FFCAD3"/>
<path d="M133.077 41.5427C133.032 41.5646 131.983 42.1062 131.949 43.4192C131.949 43.4503 131.96 43.4805 131.982 43.5031C132.003 43.5256 132.032 43.5388 132.063 43.5397H132.076C132.104 43.5373 132.131 43.5243 132.151 43.5033C132.171 43.4822 132.182 43.4545 132.183 43.4255C132.19 43.0832 132.286 42.7488 132.461 42.4555C132.636 42.1622 132.885 41.9202 133.181 41.7534C133.208 41.7388 133.228 41.7145 133.237 41.6855C133.246 41.6564 133.243 41.625 133.23 41.5978C133.216 41.5706 133.193 41.5497 133.164 41.5395C133.136 41.5293 133.105 41.5306 133.077 41.5432V41.5427Z" fill="#FC8AA8"/>
<path d="M133.161 42.5237C133.112 42.4896 132.667 42.1934 132.325 42.3129C132.31 42.3176 132.296 42.3252 132.284 42.3353C132.272 42.3455 132.262 42.358 132.255 42.3721C132.248 42.3862 132.244 42.4016 132.243 42.4174C132.242 42.4332 132.244 42.449 132.249 42.464C132.254 42.4789 132.262 42.4927 132.273 42.5044C132.283 42.5161 132.296 42.5255 132.31 42.5322C132.324 42.5388 132.34 42.5425 132.356 42.5429C132.371 42.5434 132.387 42.5407 132.402 42.5349C132.595 42.4666 132.921 42.6437 133.031 42.7179C133.053 42.7332 133.079 42.7402 133.106 42.7379C133.13 42.736 133.153 42.7266 133.171 42.711C133.19 42.6954 133.203 42.6745 133.209 42.651C133.216 42.6275 133.214 42.6026 133.206 42.5799C133.198 42.5571 133.182 42.5375 133.163 42.5237H133.161Z" fill="#FC8AA8"/>
<path d="M131.172 38.6413C131.055 38.7253 130.929 38.8256 130.796 38.9424L130.996 40.1861C131.097 40.7975 131.095 41.4218 130.989 42.0324C130.959 42.2357 130.901 42.434 130.818 42.6218C130.314 43.6259 130.513 44.5656 131.046 45.1492C131.345 45.4806 131.754 45.6915 132.195 45.743C132.195 45.743 130.713 44.2748 131.518 42.8672C132.177 41.7152 132.144 41.9714 132.615 40.9458C132.988 40.1324 133.08 37.2781 131.172 38.6413Z" fill="#882966"/>
<path d="M131.172 38.6414C131.131 38.7585 131.022 38.8531 130.796 38.9424L130.996 40.1861C131.097 40.7975 131.095 41.4218 130.989 42.0324C130.959 42.2357 130.901 42.434 130.818 42.6218C130.314 43.6259 130.513 44.5656 131.046 45.1492C130.933 44.896 130.396 43.462 131.279 42.3681C132.162 41.2742 132.109 40.1197 131.739 39.2273C131.688 39.0962 131.612 38.9767 131.515 38.8759C131.417 38.7752 131.301 38.6954 131.172 38.6414Z" fill="#721D5A"/>
<path d="M136.848 37.6042C135.343 36.4478 136.219 31.8634 133.821 31.8273C131.422 31.7912 130.829 34.4557 130.829 34.4557C131.124 34.6264 131.604 34.6508 131.987 34.7455C132.172 34.0658 132.496 32.9983 133.416 33.1173C134.571 33.2666 134.862 34.1141 135.154 35.7945C135.446 37.4749 135.549 38.7498 137.225 39.4427L137.231 39.4456H137.225C137.25 39.489 138.643 39.9267 137.668 42.5624C137.702 42.699 137.724 42.819 137.736 42.9069C138.063 42.7258 138.37 42.5088 138.649 42.2599C138.988 41.9603 139.211 41.6651 139.338 41.3777C139.998 39.8872 138.11 38.5737 136.848 37.6042ZM123.564 38.3078C123.562 38.3986 123.584 38.4884 123.629 38.5671C123.674 38.6459 123.74 38.7107 123.819 38.7542C123.919 38.8059 124.021 38.8089 124.061 38.6439C124.144 38.2839 124.04 37.4729 124.572 36.7084C124.57 36.7059 123.568 37.3441 123.564 38.3078Z" fill="#882966"/>
<path d="M127.762 48.1394C126.796 48.3537 125.844 48.6287 124.912 48.963L123.454 54.7477H125.742L123.585 56.9351L125.545 67.6858L127.068 71.4496C126.926 67.7346 126.816 64.4192 126.794 62.5276C126.767 60.2061 126.891 57.6435 127.06 55.3323C127.347 51.366 127.762 48.1394 127.762 48.1394Z" fill="white"/>
<path d="M138.456 77.2352L142.586 74.3926L136.919 76.7863L139.809 86.8437L146.268 82.7564L140.216 84.7184L138.456 77.2352Z" fill="#DBDBDB"/>
<path d="M142.586 74.3926L137.681 77.1122L138.101 78.5545L140.214 85.8196L146.266 82.7564C145.302 80.331 144.236 77.9383 143.423 76.1803C143.095 75.4665 142.807 74.8566 142.586 74.3926Z" fill="white"/>
<path d="M137.681 77.1122L138.101 78.5545L143.427 76.1803C143.097 75.4665 142.809 74.8566 142.588 74.3926L137.681 77.1122Z" fill="white"/>
<path d="M141.026 78.2182L143.425 76.1802L138.101 78.5544L141.026 78.2182Z" fill="#DBDBDB"/>
<path d="M148.02 66.258C147.069 69.8119 142.178 73.3327 142.109 73.403C145.734 71.061 148.583 69.1845 148.855 65.1084C149.019 62.6415 147.534 58.646 145.774 55.3545C146.794 58.2537 148.653 63.8935 148.02 66.258Z" fill="#DBDBDB"/>
<path d="M130.684 49.7097C132.621 48.1566 131.949 46.0728 131.949 46.0728L130.684 49.7097Z" fill="#FCDADD"/>
<path d="M131.212 32.4958C130.317 31.8673 129.51 31.6409 128.844 31.6453C128.039 31.6502 127.44 31.9917 127.139 32.3674C126.109 33.6541 124.825 33.4682 124.825 33.4682L124.675 34.2362L124.442 35.4345L124.336 35.9775C127.409 37.5228 133.018 36.4747 133.018 36.4747L133.953 33.9268C133.953 33.9268 133.603 33.9073 132.765 33.4653C132.228 33.1753 131.709 32.8515 131.212 32.4958Z" fill="white"/>
<path d="M128.191 33.6992L127.708 33.645L127.637 34.2886L126.999 34.2169L126.945 34.7043L127.583 34.776L127.513 35.4191L127.996 35.4732L128.067 34.8302L128.706 34.9014L128.759 34.414L128.121 34.3427L128.191 33.6992Z" fill="#AD2544"/>
<path d="M131.585 35.5462C130.492 36.0175 126.227 36.2068 124.441 35.4344L124.336 35.9775C127.408 37.5227 133.017 36.4747 133.017 36.4747L133.952 33.9268C133.952 33.9268 133.602 33.9072 132.765 33.4652C132.651 34.1219 132.349 35.2168 131.585 35.5462ZM127.138 32.3674C126.108 33.654 124.824 33.4681 124.824 33.4681L124.675 34.2361C125.627 34.4566 127.354 33.5603 127.596 32.8114C127.859 32.0019 128.82 31.6536 128.844 31.6453C128.039 31.6501 127.439 31.9917 127.138 32.3674Z" fill="#DBDBDB"/>
<path d="M106.313 64.0379C105.966 64.5849 107.682 65.9076 107.682 65.9076C107.682 65.9076 106.397 64.4014 107.091 64.2355C107.538 64.1287 110.28 64.9757 110.836 64.4965C110.79 64.5127 110.745 64.5321 110.702 64.5546C110.702 64.5546 106.66 63.4905 106.313 64.0379ZM111.471 70.0002C111.246 69.9529 111.013 69.9523 110.788 69.9987C110.562 70.045 110.348 70.1371 110.159 70.2696C110.551 70.2388 111.999 70.5433 111.999 70.5433C112.019 70.5467 112.04 70.5496 112.061 70.5516C112.866 70.657 113.528 70.3564 114.056 69.8983C114.11 69.5788 114.141 69.2557 114.147 68.9317C113.599 69.6177 112.131 70.1427 111.471 70.0002Z" fill="#FC8AA8"/>
<path d="M125.608 88.1145C124.759 91.2825 117.341 92.1837 117.341 92.1837H127.974L127.069 71.4473C127.069 71.4473 126.458 84.9464 125.608 88.1145Z" fill="#DBDBDB"/>
<path d="M122.963 77.5348L124.61 77.1308L121.766 77.0195L122.963 77.5348Z" fill="#DBDBDB"/>
<path d="M178.076 65.7899C178.005 65.6978 177.955 65.5916 177.929 65.4783C177.902 65.3651 177.9 65.2474 177.922 65.1332C177.941 65.0405 177.976 64.9468 177.96 64.8531C177.92 64.6228 177.582 64.5604 177.4 64.7067C177.218 64.8531 177.164 65.1054 177.145 65.3381C177.125 65.5708 177.125 65.8177 177.009 66.0212C176.81 66.3696 176.338 66.4789 176.128 66.8204C175.934 67.1351 176.026 67.5523 176.202 67.8767C176.377 68.2012 176.631 68.5364 176.516 68.8799C176.437 69.118 176.198 69.2702 176.1 69.5005C175.991 69.7596 176.084 70.0582 176.204 70.3129C176.413 70.7478 176.695 71.1426 177.039 71.4795C177.087 71.5112 177.145 71.5234 177.201 71.5137C177.255 71.5008 177.303 71.4718 177.34 71.4307C177.485 71.297 177.719 71.0633 177.821 70.894C177.923 70.7247 177.973 70.5129 177.911 70.3256C177.871 70.206 177.788 70.0938 177.803 69.9689C177.824 69.7986 178.009 69.7118 178.138 69.5991C178.25 69.4949 178.325 69.3563 178.351 69.2048C178.377 69.0532 178.353 68.8972 178.283 68.7608C178.228 68.6603 178.148 68.574 178.101 68.4681C178.024 68.2915 178.053 68.0836 178.125 67.9045C178.197 67.7255 178.308 67.563 178.399 67.3952C178.602 67.0136 178.689 66.513 178.434 66.1656C178.33 66.0275 178.185 65.9275 178.076 65.7899Z" fill="#B3E4FA"/>
<path d="M177.22 67.8865C177.146 68.5096 177.093 69.1351 177.064 69.7626L177.047 70.2334L177.038 70.7043V71.1751L177.049 71.6459C177.07 72.2738 177.124 72.9001 177.213 73.522L177.25 73.5181C177.202 72.8931 177.159 72.2685 177.138 71.643L177.125 71.1736L177.12 70.7052V70.2359L177.13 69.766C177.149 69.1405 177.19 68.515 177.258 67.8919C177.325 67.2688 177.417 66.6487 177.537 66.0339L177.5 66.0271C177.389 66.6428 177.291 67.263 177.22 67.8865Z" fill="#2786B4"/>
<path d="M180.631 66.5536C180.597 66.4425 180.586 66.3253 180.6 66.2098C180.614 66.0942 180.652 65.9831 180.712 65.8836C180.761 65.8031 180.827 65.7275 180.845 65.6338C180.887 65.404 180.589 65.2293 180.369 65.3025C180.149 65.3757 180.011 65.5953 179.913 65.8061C179.814 66.0168 179.729 66.2481 179.55 66.3979C179.244 66.655 178.764 66.5931 178.449 66.84C178.159 67.0678 178.101 67.4899 178.155 67.8563C178.207 68.2149 178.331 68.6252 178.107 68.9073C177.951 69.1024 177.674 69.161 177.504 69.3439C177.31 69.5489 177.296 69.8616 177.322 70.1422C177.367 70.6231 177.497 71.0923 177.703 71.5283C177.737 71.5748 177.787 71.6065 177.844 71.6171C177.898 71.6235 177.953 71.6131 178.002 71.5874C178.184 71.5127 178.486 71.3756 178.638 71.2522C178.79 71.1287 178.912 70.9482 178.918 70.7506C178.922 70.6247 178.882 70.4901 178.939 70.3783C179.017 70.2256 179.221 70.209 179.381 70.148C179.522 70.0897 179.64 69.9861 179.717 69.8533C179.794 69.7205 179.825 69.5658 179.806 69.4132C179.789 69.2995 179.743 69.1907 179.736 69.0761C179.724 68.8833 179.823 68.6984 179.952 68.5555C180.081 68.4125 180.242 68.3018 180.384 68.1734C180.706 67.8865 180.961 67.4484 180.84 67.0327C180.789 66.8653 180.684 66.7194 180.631 66.5536Z" fill="#E9F7FD"/>
<path d="M179.105 68.2209C178.822 68.7796 178.556 69.348 178.314 69.9286L178.137 70.3639L177.967 70.803L177.807 71.246L177.655 71.6915C177.459 72.2877 177.294 72.8942 177.163 73.5085L177.2 73.5173C177.371 72.9147 177.544 72.3136 177.74 71.7193L177.888 71.2748L178.044 70.8323L178.207 70.3931L178.378 69.954C178.611 69.3739 178.865 68.8011 179.142 68.2405C179.42 67.6798 179.72 67.1304 180.044 66.5957L180.011 66.5762C179.693 67.1134 179.388 67.6608 179.105 68.2209Z" fill="#2786B4"/>
<path d="M176.018 68.9073C175.791 68.6253 175.915 68.215 175.969 67.8564C176.022 67.4899 175.965 67.0679 175.675 66.84C175.361 66.5927 174.88 66.6551 174.574 66.398C174.395 66.2482 174.31 66.0179 174.212 65.8061C174.113 65.5944 173.976 65.3753 173.755 65.3026C173.534 65.2299 173.238 65.4041 173.28 65.6339C173.297 65.7276 173.362 65.8032 173.412 65.8837C173.472 65.9831 173.51 66.0943 173.524 66.2098C173.538 66.3254 173.528 66.4426 173.493 66.5536C173.44 66.7195 173.335 66.8654 173.287 67.0328C173.166 67.4485 173.42 67.8866 173.743 68.1735C173.888 68.3018 174.045 68.4126 174.174 68.5555C174.304 68.6985 174.402 68.8834 174.39 69.0762C174.383 69.1908 174.337 69.2996 174.32 69.4133C174.301 69.5659 174.332 69.7206 174.409 69.8534C174.486 69.9862 174.605 70.0898 174.746 70.1481C174.905 70.2091 175.109 70.2257 175.187 70.3784C175.244 70.4901 175.204 70.6224 175.208 70.7507C175.214 70.9459 175.335 71.1283 175.488 71.2523C175.642 71.3762 175.942 71.5128 176.125 71.5875C176.173 71.6132 176.228 71.6236 176.282 71.6172C176.339 71.6066 176.389 71.5749 176.423 71.5284C176.63 71.0924 176.759 70.6232 176.805 70.1423C176.83 69.8617 176.814 69.5489 176.623 69.344C176.45 69.1611 176.173 69.103 176.018 68.9073Z" fill="#A8D1F1"/>
<path d="M176.316 71.2421L176.156 70.7991L175.985 70.36L175.807 69.9247C175.565 69.3466 175.299 68.7781 175.016 68.217C174.732 67.6559 174.429 67.1095 174.111 66.5708L174.078 66.5903C174.402 67.127 174.7 67.6759 174.98 68.2351C175.26 68.7942 175.512 69.3685 175.744 69.9486L175.915 70.3878L176.078 70.8269L176.234 71.2694L176.382 71.7139C176.576 72.3082 176.751 72.9093 176.922 73.5119L176.959 73.5031C176.828 72.8889 176.664 72.2823 176.467 71.6861L176.316 71.2421Z" fill="#2786B4"/>
<path d="M173.724 71.0542C173.724 71.0542 173.13 76.7516 175.719 77.8045H178.616C180.897 76.8233 180.707 71.0542 180.707 71.0542H173.724Z" fill="#7AB7E3"/>
<path d="M180.152 72.0357C180.118 71.9662 180.08 71.8994 180.037 71.8356C179.994 71.7719 179.947 71.7109 179.896 71.6532C179.844 71.5933 179.785 71.5394 179.721 71.4926C179.709 71.4838 179.695 71.4776 179.68 71.4745C179.666 71.4714 179.65 71.4714 179.636 71.4746C179.621 71.4775 179.608 71.4832 179.596 71.4914C179.584 71.4995 179.574 71.51 179.566 71.5222C179.558 71.5344 179.552 71.5481 179.549 71.5624C179.546 71.5768 179.547 71.5915 179.549 71.6058C179.567 71.6836 179.592 71.7592 179.626 71.8313C179.658 71.9013 179.695 71.9691 179.736 72.0342C179.776 72.0996 179.822 72.1619 179.871 72.2206C179.922 72.2816 179.98 72.3361 180.043 72.3831C180.063 72.397 180.087 72.4046 180.111 72.4049C180.135 72.4053 180.159 72.3983 180.179 72.385C180.199 72.3717 180.215 72.3526 180.224 72.3302C180.233 72.3077 180.236 72.283 180.231 72.2592C180.214 72.1817 180.187 72.1066 180.152 72.0357ZM179.961 73.1725C179.953 73.1177 179.937 73.0644 179.913 73.0145C179.892 72.9672 179.866 72.9221 179.836 72.8798C179.807 72.8373 179.774 72.7973 179.739 72.7602C179.7 72.7201 179.656 72.6855 179.609 72.6573C179.59 72.6472 179.57 72.642 179.549 72.6422C179.534 72.6425 179.518 72.6459 179.504 72.6521C179.49 72.6584 179.477 72.6674 179.466 72.6786C179.456 72.6899 179.447 72.7031 179.442 72.7176C179.436 72.7321 179.433 72.7476 179.434 72.7632C179.436 72.8216 179.447 72.8793 179.468 72.9339C179.487 72.9852 179.512 73.0343 179.541 73.0803C179.57 73.1274 179.605 73.1706 179.644 73.2091C179.685 73.2499 179.733 73.2829 179.786 73.3067C179.807 73.3159 179.83 73.3193 179.853 73.3165C179.87 73.3144 179.886 73.3089 179.901 73.3004C179.916 73.2918 179.929 73.2804 179.939 73.2668C179.95 73.2532 179.957 73.2376 179.961 73.221C179.966 73.2044 179.967 73.1871 179.964 73.1701L179.961 73.1725ZM178.863 71.8386C178.839 71.8027 178.81 71.77 178.778 71.741C178.743 71.7103 178.703 71.6858 178.66 71.6688C178.647 71.6642 178.634 71.6616 178.62 71.661C178.604 71.6603 178.587 71.663 178.571 71.6688C178.556 71.6746 178.542 71.6835 178.529 71.6949C178.517 71.7064 178.507 71.7201 178.5 71.7354C178.493 71.7506 178.489 71.7671 178.489 71.7839C178.488 71.8307 178.495 71.8773 178.51 71.9215C178.523 71.9621 178.541 72.0009 178.564 72.0372C178.586 72.0731 178.613 72.1059 178.644 72.1347C178.677 72.167 178.716 72.1922 178.759 72.2089C178.773 72.2143 178.788 72.2173 178.803 72.2177C178.821 72.2184 178.839 72.2155 178.856 72.2091C178.873 72.2028 178.889 72.1931 178.902 72.1806C178.915 72.1681 178.926 72.1531 178.934 72.1364C178.941 72.1198 178.945 72.1018 178.946 72.0835C178.947 72.037 178.939 71.9908 178.923 71.9474C178.908 71.9086 178.888 71.872 178.863 71.8386ZM177.766 71.9688C177.736 71.9275 177.703 71.8893 177.666 71.8547C177.626 71.8174 177.581 71.7866 177.533 71.7634C177.515 71.7554 177.495 71.7518 177.476 71.7527C177.444 71.7546 177.414 71.7691 177.393 71.7931C177.372 71.8171 177.361 71.8485 177.363 71.8805C177.367 71.9349 177.379 71.9882 177.4 72.0386C177.418 72.086 177.442 72.1313 177.47 72.1738C177.497 72.2166 177.53 72.256 177.566 72.2914C177.604 72.33 177.648 72.3616 177.697 72.3846C177.717 72.3937 177.738 72.3977 177.76 72.3963C177.777 72.3952 177.794 72.3908 177.809 72.3832C177.824 72.3756 177.838 72.365 177.85 72.3521C177.861 72.3391 177.87 72.324 177.875 72.3077C177.881 72.2913 177.883 72.274 177.882 72.2567C177.878 72.2026 177.865 72.1496 177.843 72.1001C177.822 72.0536 177.796 72.0096 177.766 71.9688ZM178.721 72.8788C178.691 72.8389 178.658 72.8021 178.621 72.769C178.581 72.7332 178.536 72.7039 178.488 72.6822C178.47 72.6751 178.452 72.6719 178.433 72.6729C178.401 72.675 178.371 72.6898 178.35 72.7141C178.329 72.7383 178.318 72.77 178.32 72.8022C178.325 72.8556 178.337 72.9079 178.358 72.9574C178.376 73.0034 178.4 73.0474 178.428 73.0886C178.456 73.1301 178.488 73.1682 178.525 73.2023C178.563 73.2391 178.607 73.269 178.655 73.2906C178.675 73.2995 178.698 73.3029 178.72 73.3005C178.743 73.298 178.764 73.2899 178.783 73.2768C178.801 73.2637 178.816 73.246 178.825 73.2256C178.835 73.2051 178.839 73.1825 178.838 73.1599C178.834 73.1068 178.82 73.0549 178.798 73.0066C178.777 72.9611 178.751 72.9182 178.721 72.8788ZM177.653 73.135C177.629 73.0994 177.602 73.0667 177.571 73.0374C177.537 73.0063 177.498 72.9813 177.456 72.9637C177.444 72.9592 177.431 72.9564 177.418 72.9554C177.402 72.9542 177.385 72.9562 177.369 72.9615C177.353 72.9669 177.338 72.9753 177.325 72.9863C177.313 72.9974 177.302 73.0109 177.295 73.026C177.287 73.0411 177.283 73.0576 177.282 73.0745C177.279 73.1205 177.285 73.1666 177.298 73.2106C177.31 73.2508 177.326 73.2895 177.347 73.3257C177.367 73.3617 177.393 73.3945 177.423 73.4233C177.455 73.4559 177.493 73.4817 177.535 73.499C177.549 73.504 177.563 73.5072 177.577 73.5082C177.595 73.5095 177.613 73.5072 177.63 73.5014C177.648 73.4956 177.664 73.4864 177.678 73.4744C177.691 73.4623 177.703 73.4477 177.711 73.4312C177.719 73.4147 177.724 73.3968 177.725 73.3784C177.728 73.3327 177.721 73.287 177.706 73.2438C177.693 73.2054 177.675 73.1688 177.653 73.135ZM179.579 74.1513C179.548 74.1114 179.513 74.0748 179.475 74.042C179.434 74.0065 179.388 73.9775 179.339 73.9561C179.321 73.9489 179.301 73.9461 179.282 73.9478C179.251 73.9509 179.221 73.9665 179.201 73.9912C179.181 74.0159 179.171 74.0476 179.174 74.0796C179.179 74.1335 179.194 74.1862 179.215 74.2357C179.236 74.2819 179.261 74.326 179.289 74.3674C179.317 74.4087 179.35 74.4467 179.386 74.4806C179.425 74.5176 179.471 74.5473 179.52 74.5685C179.54 74.5763 179.561 74.5794 179.582 74.5777C179.599 74.576 179.616 74.5709 179.631 74.5626C179.647 74.5543 179.66 74.543 179.671 74.5294C179.682 74.5158 179.69 74.5001 179.695 74.4833C179.7 74.4665 179.702 74.4488 179.7 74.4314C179.694 74.3779 179.679 74.326 179.655 74.2777C179.634 74.2329 179.609 74.1905 179.579 74.1513ZM178.531 74.2752C178.5 74.2315 178.465 74.1906 178.427 74.1533C178.386 74.1141 178.34 74.0812 178.29 74.0557C178.271 74.0463 178.25 74.042 178.229 74.0434C178.208 74.0448 178.188 74.0518 178.171 74.0636C178.154 74.0754 178.14 74.0917 178.131 74.1107C178.122 74.1297 178.118 74.1508 178.119 74.1718C178.125 74.2286 178.138 74.2843 178.16 74.3372C178.18 74.387 178.204 74.4349 178.233 74.4802C178.262 74.5253 178.295 74.5674 178.332 74.6055C178.372 74.6463 178.417 74.6804 178.467 74.7065C178.488 74.7166 178.511 74.7211 178.534 74.7197C178.568 74.717 178.6 74.7007 178.622 74.6744C178.645 74.6482 178.656 74.6141 178.653 74.5797C178.648 74.5232 178.633 74.4679 178.61 74.4162C178.589 74.3666 178.562 74.3193 178.531 74.2752ZM179.332 75.4618C179.304 75.4243 179.271 75.3901 179.235 75.3599C179.197 75.3269 179.154 75.3003 179.107 75.2813C179.091 75.2757 179.075 75.273 179.059 75.2735C179.042 75.2743 179.027 75.2782 179.012 75.2851C178.998 75.292 178.984 75.3018 178.974 75.3138C178.963 75.3258 178.954 75.3398 178.949 75.3551C178.943 75.3704 178.941 75.3866 178.942 75.4028C178.945 75.4531 178.956 75.5025 178.975 75.5492C178.993 75.5928 179.015 75.6343 179.042 75.6731C179.068 75.7118 179.098 75.7472 179.133 75.7785C179.169 75.8129 179.212 75.8402 179.258 75.859C179.276 75.8656 179.295 75.8686 179.313 75.8678C179.349 75.8659 179.382 75.85 179.406 75.8235C179.43 75.797 179.442 75.762 179.441 75.7263C179.437 75.6757 179.425 75.6261 179.404 75.5799C179.385 75.5378 179.361 75.4981 179.332 75.4618ZM178.072 75.2086C178.047 75.1687 178.017 75.1316 177.983 75.0979C177.947 75.0611 177.906 75.0306 177.86 75.0076C177.845 75.0004 177.828 74.9964 177.811 74.9959C177.795 74.9955 177.779 74.9983 177.765 75.0041C177.75 75.0099 177.736 75.0187 177.724 75.0298C177.713 75.041 177.703 75.0543 177.697 75.0691C177.69 75.0838 177.687 75.0998 177.687 75.1159C177.686 75.1674 177.694 75.2187 177.71 75.2677C177.724 75.3129 177.744 75.3566 177.767 75.3979C177.791 75.4392 177.819 75.4775 177.852 75.5121C177.886 75.5501 177.927 75.5812 177.972 75.6038C177.992 75.6141 178.015 75.619 178.037 75.6181C178.06 75.6172 178.082 75.6105 178.101 75.5987C178.121 75.5869 178.137 75.5704 178.148 75.5506C178.159 75.5309 178.165 75.5085 178.166 75.4857C178.166 75.4346 178.157 75.3839 178.14 75.336C178.123 75.2909 178.1 75.2481 178.072 75.2086ZM176.981 74.0591C176.95 74.019 176.915 73.9822 176.877 73.9493C176.836 73.9139 176.79 73.885 176.741 73.8639C176.722 73.8559 176.701 73.8529 176.68 73.8555C176.66 73.858 176.64 73.8659 176.624 73.8783C176.607 73.8908 176.594 73.9074 176.585 73.9265C176.577 73.9456 176.574 73.9666 176.576 73.9874C176.582 74.0411 176.596 74.0937 176.618 74.143C176.638 74.1894 176.663 74.2336 176.692 74.2747C176.72 74.3163 176.752 74.3544 176.789 74.3884C176.828 74.425 176.873 74.4545 176.922 74.4758C176.942 74.4838 176.963 74.487 176.984 74.485C177.001 74.4834 177.018 74.4783 177.034 74.47C177.049 74.4617 177.063 74.4504 177.074 74.4368C177.085 74.4232 177.093 74.4075 177.098 74.3906C177.103 74.3738 177.104 74.3561 177.102 74.3387C177.096 74.285 177.081 74.2328 177.058 74.1845C177.037 74.1398 177.011 74.0977 176.981 74.0591ZM176.694 71.8332C176.676 71.7939 176.655 71.7568 176.629 71.7224C176.603 71.688 176.574 71.6561 176.542 71.6273C176.506 71.5957 176.466 71.5695 176.423 71.5497H176.42C176.406 71.5438 176.391 71.5403 176.375 71.5395C176.359 71.5389 176.343 71.5415 176.328 71.5473C176.313 71.553 176.299 71.5616 176.287 71.5728C176.275 71.5839 176.265 71.5973 176.259 71.6122C176.252 71.6271 176.248 71.6432 176.248 71.6595C176.247 71.7094 176.255 71.759 176.272 71.8059C176.288 71.8505 176.309 71.8929 176.335 71.9323C176.361 71.9715 176.392 72.007 176.428 72.0376C176.465 72.0709 176.509 72.0962 176.557 72.1118C176.577 72.1189 176.6 72.1206 176.622 72.1168C176.643 72.1131 176.664 72.104 176.681 72.0903C176.699 72.0767 176.713 72.0589 176.722 72.0385C176.731 72.0182 176.734 71.9959 176.733 71.9737V71.9698C176.728 71.9224 176.715 71.8761 176.694 71.8332ZM175.958 72.569C175.931 72.5318 175.9 72.4976 175.866 72.467C175.828 72.4336 175.786 72.4067 175.74 72.3875C175.724 72.3812 175.708 72.3782 175.691 72.3787C175.675 72.379 175.659 72.3824 175.644 72.3889C175.629 72.3954 175.616 72.4048 175.605 72.4165C175.593 72.4282 175.584 72.4421 175.579 72.4573C175.573 72.4725 175.57 72.4887 175.57 72.5051C175.571 72.5552 175.581 72.6046 175.599 72.6514C175.615 72.6947 175.636 72.7361 175.661 72.7749C175.685 72.8138 175.715 72.8494 175.749 72.8808C175.784 72.9154 175.825 72.9431 175.871 72.9622C175.888 72.9687 175.906 72.972 175.924 72.972C175.941 72.9717 175.959 72.9678 175.975 72.9607C175.991 72.9536 176.006 72.9433 176.018 72.9304C176.031 72.9175 176.04 72.9023 176.047 72.8857C176.053 72.869 176.056 72.8513 176.056 72.8334C176.055 72.783 176.044 72.7333 176.024 72.6871C176.007 72.6452 175.985 72.6055 175.958 72.569ZM174.825 71.9113C174.794 71.8648 174.759 71.8212 174.721 71.781C174.68 71.7384 174.634 71.7019 174.583 71.6727C174.563 71.6621 174.541 71.6572 174.519 71.6585C174.503 71.6595 174.488 71.6636 174.475 71.6704C174.461 71.6773 174.448 71.6869 174.438 71.6986C174.428 71.7103 174.42 71.7239 174.415 71.7386C174.41 71.7533 174.408 71.7689 174.409 71.7844C174.414 71.8433 174.428 71.9011 174.449 71.9562C174.469 72.0084 174.493 72.0588 174.522 72.1064C174.55 72.1542 174.582 72.199 174.619 72.2401C174.658 72.2839 174.704 72.321 174.755 72.3499C174.775 72.3613 174.797 72.367 174.82 72.3664C174.843 72.3658 174.866 72.3588 174.885 72.3463C174.905 72.3339 174.92 72.3163 174.931 72.2955C174.941 72.2747 174.945 72.2515 174.943 72.2284C174.938 72.1698 174.924 72.1123 174.901 72.0581C174.881 72.0067 174.856 71.9575 174.825 71.9113ZM174.479 73.3614C174.468 73.2981 174.449 73.2367 174.422 73.1789C174.396 73.1233 174.366 73.0701 174.331 73.0198C174.297 72.9683 174.26 72.9194 174.219 72.8734C174.176 72.8255 174.127 72.7834 174.073 72.748C174.055 72.7365 174.035 72.7302 174.013 72.73C173.992 72.7297 173.971 72.7355 173.953 72.7467C173.934 72.7579 173.92 72.774 173.91 72.7932C173.9 72.8124 173.896 72.834 173.898 72.8554C173.905 72.9211 173.921 72.9856 173.947 73.0467C173.97 73.1056 173.998 73.1623 174.032 73.216C174.064 73.27 174.103 73.3205 174.146 73.3667C174.189 73.4155 174.241 73.4572 174.297 73.4902C174.318 73.5016 174.341 73.507 174.364 73.5058C174.387 73.5046 174.41 73.4968 174.429 73.4833C174.448 73.4698 174.463 73.4512 174.472 73.4296C174.482 73.4079 174.485 73.3841 174.481 73.3609L174.479 73.3614ZM175.437 73.6395C175.409 73.602 175.376 73.5678 175.34 73.5375C175.302 73.5046 175.258 73.4782 175.212 73.4594C175.196 73.4536 175.18 73.4508 175.163 73.4511C175.131 73.4528 175.1 73.4674 175.078 73.4917C175.056 73.516 175.045 73.5481 175.046 73.5809C175.049 73.6312 175.061 73.6807 175.08 73.7273C175.098 73.7708 175.12 73.8123 175.146 73.8512C175.172 73.89 175.203 73.9254 175.237 73.9566C175.274 73.9911 175.317 74.0183 175.363 74.0371C175.381 74.0438 175.399 74.0468 175.418 74.0459C175.453 74.044 175.486 74.0281 175.51 74.0015C175.534 73.975 175.546 73.9401 175.545 73.9044C175.542 73.8537 175.53 73.8041 175.508 73.758C175.489 73.7158 175.466 73.676 175.437 73.6395ZM174.796 74.868C174.771 74.8148 174.741 74.7642 174.706 74.7168C174.671 74.6689 174.632 74.6241 174.59 74.5831C174.546 74.5397 174.496 74.5028 174.442 74.4733C174.423 74.4634 174.402 74.4588 174.381 74.4602C174.359 74.4615 174.339 74.4688 174.322 74.4811C174.304 74.4934 174.29 74.5103 174.282 74.5299C174.273 74.5495 174.27 74.5711 174.273 74.5924C174.283 74.6539 174.3 74.7139 174.326 74.7705C174.35 74.8243 174.379 74.8761 174.411 74.9251C174.444 74.9742 174.481 75.02 174.522 75.0618C174.564 75.1064 174.613 75.1442 174.667 75.174C174.688 75.1846 174.711 75.1895 174.734 75.1879C174.757 75.1863 174.779 75.1785 174.798 75.1651C174.817 75.1517 174.832 75.1334 174.841 75.1121C174.85 75.0908 174.854 75.0673 174.851 75.0442C174.842 74.983 174.823 74.9237 174.796 74.868ZM175.986 75.5233C175.974 75.4639 175.953 75.4067 175.924 75.3535C175.898 75.3021 175.866 75.2531 175.831 75.2071C175.796 75.1614 175.758 75.1185 175.717 75.0788C175.673 75.0366 175.624 75.0002 175.571 74.9705C175.553 74.9606 175.532 74.9559 175.511 74.9572C175.489 74.9584 175.469 74.9654 175.452 74.9775C175.434 74.9896 175.42 75.0062 175.412 75.0256C175.403 75.045 175.4 75.0665 175.402 75.0876C175.411 75.1497 175.429 75.2102 175.455 75.2672C175.48 75.3219 175.509 75.3741 175.544 75.4233C175.578 75.4722 175.617 75.5175 175.66 75.5584C175.705 75.6016 175.757 75.6372 175.813 75.6638C175.837 75.6746 175.863 75.6777 175.889 75.6726C175.921 75.6662 175.95 75.6473 175.968 75.6199C175.987 75.5926 175.994 75.5589 175.989 75.5262L175.986 75.5233ZM176.9 75.3047C176.878 75.259 176.85 75.2159 176.817 75.1764C176.785 75.1364 176.749 75.0998 176.71 75.0671C176.668 75.0318 176.621 75.0033 176.571 74.9827C176.553 74.9756 176.533 74.973 176.513 74.9754C176.497 74.9773 176.482 74.9822 176.469 74.99C176.455 74.9977 176.443 75.0082 176.433 75.0206C176.423 75.0331 176.416 75.0474 176.412 75.0626C176.408 75.0779 176.407 75.0938 176.408 75.1096C176.416 75.164 176.433 75.2168 176.457 75.2662C176.478 75.3128 176.505 75.3571 176.535 75.3984C176.565 75.4399 176.599 75.4779 176.637 75.5116C176.678 75.5481 176.724 75.5773 176.774 75.598C176.794 75.6061 176.816 75.609 176.838 75.6063C176.872 75.602 176.903 75.5842 176.925 75.5568C176.946 75.5293 176.956 75.4945 176.952 75.4599C176.944 75.4055 176.926 75.353 176.9 75.3047ZM175.216 76.2635C175.189 76.2088 175.157 76.1569 175.12 76.1083C175.082 76.0593 175.041 76.0135 174.997 75.9712C174.95 75.9269 174.898 75.8889 174.841 75.858C174.819 75.8469 174.793 75.8431 174.769 75.8473C174.754 75.8499 174.74 75.8554 174.727 75.8635C174.714 75.8717 174.703 75.8822 174.695 75.8947C174.686 75.9071 174.68 75.9211 174.677 75.9359C174.673 75.9507 174.673 75.9661 174.676 75.981C174.688 76.0445 174.708 76.106 174.737 76.164C174.763 76.2195 174.795 76.2727 174.83 76.323C174.865 76.3736 174.904 76.4206 174.948 76.4635C174.993 76.5095 175.044 76.5483 175.101 76.5787C175.125 76.5913 175.153 76.5956 175.18 76.5909C175.196 76.588 175.212 76.5819 175.226 76.573C175.24 76.5641 175.252 76.5525 175.261 76.5389C175.27 76.5253 175.277 76.5099 175.28 76.4937C175.284 76.4775 175.284 76.4608 175.281 76.4445C175.269 76.3812 175.247 76.3202 175.216 76.2635ZM176.414 76.4582C176.386 76.4181 176.353 76.3812 176.317 76.3479C176.279 76.312 176.235 76.2826 176.188 76.2606C176.171 76.253 176.153 76.2494 176.134 76.2503C176.118 76.2508 176.103 76.2545 176.088 76.2611C176.074 76.2677 176.061 76.2772 176.05 76.289C176.039 76.3007 176.03 76.3145 176.025 76.3295C176.019 76.3446 176.017 76.3606 176.017 76.3767C176.02 76.4293 176.031 76.4812 176.05 76.5304C176.067 76.5764 176.089 76.6204 176.116 76.6616C176.142 76.703 176.173 76.7412 176.207 76.7753C176.244 76.8127 176.287 76.8429 176.334 76.8646C176.355 76.8737 176.377 76.8774 176.4 76.8754C176.422 76.8733 176.443 76.8656 176.462 76.8529C176.48 76.8403 176.495 76.823 176.506 76.8029C176.516 76.7827 176.521 76.7603 176.52 76.7377C176.517 76.6854 176.505 76.634 176.484 76.586C176.466 76.5407 176.443 76.4978 176.414 76.4582ZM177.62 76.1757C177.594 76.1407 177.564 76.1091 177.531 76.0815C177.495 76.0509 177.454 76.0269 177.41 76.0107C177.396 76.0061 177.382 76.0036 177.368 76.0034C177.335 76.0036 177.303 76.0169 177.279 76.0407C177.255 76.0644 177.242 76.0966 177.242 76.1303C177.242 76.1778 177.251 76.2249 177.268 76.2693C177.283 76.3101 177.303 76.3489 177.327 76.385C177.35 76.4212 177.378 76.454 177.411 76.4826C177.445 76.5143 177.485 76.5388 177.529 76.5548C177.545 76.5601 177.561 76.5628 177.578 76.5626C177.596 76.5626 177.614 76.5591 177.63 76.5522C177.647 76.5452 177.662 76.535 177.675 76.5221C177.688 76.5092 177.698 76.4939 177.704 76.4771C177.711 76.4602 177.715 76.4422 177.715 76.424C177.714 76.3769 177.704 76.3302 177.686 76.2869C177.669 76.2469 177.647 76.2095 177.62 76.1757ZM178.795 76.3986C178.767 76.3573 178.735 76.3195 178.698 76.2859C178.659 76.2502 178.614 76.2213 178.566 76.2005C178.549 76.1939 178.532 76.191 178.514 76.1922C178.498 76.1931 178.482 76.1972 178.468 76.2041C178.454 76.2111 178.441 76.2208 178.43 76.2328C178.42 76.2447 178.411 76.2587 178.406 76.2738C178.401 76.289 178.399 76.305 178.4 76.3211C178.403 76.3713 178.414 76.4206 178.433 76.4674C178.449 76.5113 178.47 76.5535 178.495 76.5933C178.519 76.6333 178.547 76.6704 178.579 76.7041C178.614 76.7411 178.654 76.7719 178.698 76.7953H178.701C178.718 76.8043 178.738 76.8092 178.757 76.8095C178.774 76.8099 178.791 76.8069 178.808 76.8007C178.824 76.7944 178.839 76.785 178.851 76.773C178.864 76.761 178.874 76.7466 178.881 76.7307C178.888 76.7148 178.892 76.6976 178.892 76.6802C178.893 76.6271 178.883 76.5744 178.864 76.525C178.846 76.4801 178.823 76.4376 178.795 76.3986ZM177.362 77.1217C177.335 77.0858 177.304 77.053 177.27 77.0241C177.232 76.9925 177.19 76.9673 177.145 76.9495C177.13 76.9443 177.115 76.9418 177.099 76.9422C177.083 76.9425 177.067 76.9461 177.052 76.9527C177.037 76.9593 177.023 76.9688 177.012 76.9807C177.001 76.9925 176.992 77.0065 176.986 77.0219C176.98 77.0372 176.977 77.0536 176.978 77.07C176.979 77.1192 176.989 77.1677 177.007 77.2135C177.023 77.2556 177.044 77.2957 177.069 77.333C177.094 77.3707 177.123 77.405 177.157 77.435C177.192 77.4681 177.234 77.4941 177.279 77.5116C177.294 77.5173 177.311 77.5202 177.327 77.5204C177.345 77.5199 177.363 77.5159 177.379 77.5087C177.395 77.5014 177.41 77.4909 177.422 77.4779C177.434 77.4649 177.444 77.4496 177.45 77.4329C177.457 77.4161 177.46 77.3983 177.459 77.3803C177.458 77.3315 177.447 77.2835 177.428 77.2388C177.411 77.1972 177.389 77.1578 177.362 77.1217ZM175.79 77.1188C175.762 77.0788 175.729 77.0419 175.693 77.009C175.656 76.9732 175.613 76.9439 175.566 76.9222C175.55 76.9146 175.532 76.9109 175.514 76.9114C175.498 76.9117 175.482 76.9151 175.468 76.9216C175.453 76.928 175.44 76.9373 175.429 76.9489C175.418 76.9605 175.409 76.9742 175.403 76.9892C175.397 77.0042 175.394 77.0202 175.395 77.0363C175.396 77.0884 175.406 77.1399 175.425 77.1886C175.441 77.2341 175.462 77.2778 175.488 77.3189C175.513 77.3598 175.543 77.3976 175.577 77.4316C175.613 77.4686 175.655 77.4988 175.702 77.5208C175.72 77.5285 175.739 77.5325 175.759 77.5326C175.794 77.5317 175.827 77.5168 175.852 77.4912C175.876 77.4656 175.889 77.4314 175.888 77.3959C175.887 77.3441 175.876 77.293 175.856 77.2452C175.839 77.2006 175.817 77.1582 175.79 77.1188Z" fill="#A3DEF8"/>
<path d="M107.267 126.7H175.596L176.246 122.886L183.141 82.446H99.7222L107.267 126.7Z" fill="#64C2F5"/>
<path d="M143.286 97.1228H140.098V102.746H134.52V105.958H140.098V111.581H143.286V105.958H148.865V102.746H143.286V97.1228Z" fill="white"/>
<path d="M141.692 91.358C138.709 91.358 135.818 92.4004 133.512 94.3077C131.206 96.215 129.628 98.869 129.046 101.818C128.464 104.766 128.915 107.827 130.321 110.478C131.727 113.13 134.002 115.208 136.758 116.358C139.514 117.509 142.581 117.66 145.436 116.788C148.29 115.915 150.756 114.072 152.413 111.572C154.071 109.072 154.817 106.07 154.524 103.079C154.232 100.087 152.919 97.2895 150.809 95.1637C149.615 93.9533 148.194 92.9937 146.629 92.3405C145.064 91.6872 143.386 91.3533 141.692 91.358ZM141.692 116.095C135.267 116.095 130.039 110.826 130.039 104.351C130.039 97.8755 135.268 92.606 141.692 92.606C148.117 92.606 153.346 97.8755 153.346 104.351C153.346 110.826 148.121 116.097 141.692 116.097V116.095Z" fill="white"/>
<path d="M116.342 117.259C113.905 113.933 110.019 89.1393 109.319 82.446H99.7222L107.268 126.7H175.596L176.246 122.886C161.967 124.241 119.891 122.103 116.342 117.259Z" fill="#53B1DC"/>
<path d="M184.437 77.9231H150.574C146.872 80.5256 144.582 82.4461 144.582 82.4461C144.582 82.4461 177.338 84.8617 177.729 91.4276C178.119 97.9935 176.246 122.886 176.246 122.886L183.141 82.4461H184.437C184.746 82.4461 185.042 82.3225 185.26 82.1024C185.479 81.8824 185.602 81.5839 185.602 81.2726V79.0975C185.602 78.9433 185.572 78.7906 185.513 78.6481C185.455 78.5056 185.369 78.3762 185.261 78.2671C185.153 78.158 185.024 78.0715 184.883 78.0125C184.741 77.9535 184.59 77.9231 184.437 77.9231Z" fill="#4FA8D1"/>
<path d="M184.437 77.9231H98.4261C98.1176 77.9231 97.8218 78.0464 97.6034 78.2659C97.3851 78.4854 97.262 78.7833 97.2612 79.0941V81.2702C97.2614 81.5815 97.3841 81.8799 97.6026 82.1C97.821 82.32 98.1172 82.4436 98.4261 82.4436H184.437C184.746 82.4436 185.042 82.32 185.26 82.1C185.479 81.8799 185.602 81.5815 185.602 81.2702V79.0975C185.602 78.9433 185.572 78.7906 185.513 78.6481C185.455 78.5056 185.369 78.3762 185.261 78.2671C185.152 78.158 185.024 78.0715 184.883 78.0125C184.741 77.9535 184.59 77.9231 184.437 77.9231Z" fill="#2786B4"/>
<path d="M166.297 76.6265H137.106C136.855 76.6265 136.614 76.7271 136.436 76.9063C136.258 77.0854 136.158 77.3284 136.158 77.5818V77.9233H167.243V77.5818C167.243 77.3286 167.144 77.0858 166.966 76.9066C166.789 76.7275 166.548 76.6267 166.297 76.6265Z" fill="#4C608E"/>
<path d="M172.238 52.7779L147.021 52.5588C146.68 52.5588 146.451 52.6647 146.295 52.8052C146.031 53.0438 145.977 53.3956 145.946 53.5518L142.441 71.8803C142.344 72.275 143.057 72.9708 143.584 72.9708H168.297C168.417 72.9707 168.532 72.929 168.625 72.8528C168.717 72.7766 168.781 72.6706 168.805 72.5527L173.404 54.3178L173.517 53.884C173.58 53.5674 172.559 52.7857 172.238 52.7779Z" fill="#304367"/>
<path d="M172.238 52.7779L147.021 52.5588C146.68 52.5588 146.451 52.6647 146.295 52.8052C146.628 53.1063 147.012 53.4503 147.136 53.5518C147.136 53.5518 173.117 54.2866 173.249 54.3324C173.301 54.3368 173.354 54.3315 173.404 54.3168L173.517 53.883C173.58 53.5674 172.559 52.7857 172.238 52.7779Z" fill="#304367"/>
<path d="M173.014 53.4089L147.312 53.1786C147.191 53.1757 147.072 53.2162 146.977 53.293C146.882 53.3698 146.817 53.4779 146.793 53.5982L143.128 72.3503C143.113 72.4257 143.115 72.5035 143.134 72.578C143.152 72.6525 143.187 72.7219 143.236 72.7812C143.284 72.8405 143.345 72.8883 143.414 72.9211C143.483 72.9539 143.558 72.9709 143.634 72.9709H169.074C169.193 72.971 169.309 72.9291 169.402 72.8526C169.494 72.7761 169.557 72.6696 169.581 72.5513L173.508 54.029C173.522 53.9547 173.521 53.8781 173.503 53.8045C173.485 53.731 173.451 53.6622 173.404 53.6032C173.357 53.5441 173.298 53.4961 173.23 53.4625C173.163 53.429 173.089 53.4107 173.014 53.4089Z" fill="#4C608E"/>
<path d="M170.421 54.8483L148.965 54.7248C148.902 54.7228 148.84 54.7349 148.783 54.7602C148.726 54.7856 148.675 54.8235 148.635 54.8712C148.583 54.9295 148.547 55.001 148.533 55.0781L145.547 70.9656C145.492 71.2364 146.061 71.8809 146.505 71.8809L167.403 71.8361C167.504 71.8363 167.601 71.801 167.679 71.7362C167.756 71.6715 167.809 71.5815 167.827 71.4818L171.458 55.8934L171.489 55.7782C171.539 55.5123 170.688 54.8556 170.421 54.8483Z" fill="#304367"/>
<path d="M170.132 54.8452L148.927 54.7242C148.827 54.7228 148.729 54.7568 148.651 54.8204C148.573 54.8839 148.52 54.973 148.5 55.072L145.547 70.6766C145.493 70.9425 146.055 71.5753 146.494 71.5753H166.813C166.912 71.5759 167.008 71.5415 167.084 71.478C167.161 71.4146 167.213 71.3261 167.231 71.2279L171.156 55.8732L171.187 55.7595C171.237 55.498 170.396 54.853 170.132 54.8452Z" fill="#304367"/>
<path d="M170.132 54.8453L148.927 54.7243C148.865 54.7226 148.804 54.7348 148.748 54.7602C148.691 54.7855 148.641 54.8233 148.601 54.8707L149.563 55.6025L171.158 55.8762L171.189 55.7626C171.237 55.4981 170.396 54.8531 170.132 54.8453Z" fill="#304367"/>
<path d="M170.772 55.3686L149.565 55.2437C149.464 55.2424 149.367 55.2765 149.289 55.34C149.211 55.4036 149.158 55.4925 149.138 55.5916L148.937 56.6313L148.619 58.2414L146.114 71.0634C146.101 71.1257 146.103 71.1899 146.118 71.2515C146.134 71.313 146.163 71.3704 146.203 71.4194C146.243 71.4684 146.293 71.5078 146.35 71.5347C146.407 71.5617 146.469 71.5755 146.532 71.5752H167.453C167.552 71.5757 167.648 71.5413 167.724 71.4778C167.801 71.4144 167.853 71.3259 167.872 71.2278L170.631 58.3468L170.957 56.8772L171.178 55.8809C171.19 55.8197 171.189 55.7565 171.174 55.6958C171.159 55.6351 171.132 55.5784 171.093 55.5296C171.054 55.4808 171.006 55.4411 170.95 55.4133C170.895 55.3855 170.834 55.3702 170.772 55.3686Z" fill="#4C608E"/>
<path d="M154.88 57.5262L164.711 57.5774L164.783 57.2817L154.949 57.2412L154.88 57.5262Z" fill="#304367"/>
<path d="M154.763 58.0489L164.594 58.1006L164.666 57.8044L154.832 57.7644L154.763 58.0489Z" fill="#304367"/>
<path d="M154.646 58.5718L164.477 58.6235L164.549 58.3274L154.715 58.2869L154.646 58.5718Z" fill="#304367"/>
<path d="M154.528 59.0948L164.359 59.146L164.432 58.8503L154.598 58.8098L154.528 59.0948Z" fill="#304367"/>
<path d="M155.319 63.4075L157.565 77.923H165.188L163.013 63.4133L155.319 63.4075Z" fill="#304367"/>
<path d="M156.044 63.4075L158.291 77.923H165.189L163.013 63.4133L156.044 63.4075Z" fill="#4C608E"/>
<path d="M163.066 62.6831H155.266V64.1386H163.066V62.6831Z" fill="#304367"/>
<path d="M155.288 64.1383C155.504 64.1383 155.679 63.8124 155.679 63.4103C155.679 63.0083 155.504 62.6824 155.288 62.6824C155.072 62.6824 154.896 63.0083 154.896 63.4103C154.896 63.8124 155.072 64.1383 155.288 64.1383Z" fill="#253555"/>
<path d="M163.066 62.6831C162.872 62.6831 162.719 63.009 162.719 63.4106C162.719 63.8121 162.874 64.1386 163.066 64.1386C163.258 64.1386 163.413 63.8126 163.413 63.4106C163.413 63.0085 163.258 62.6831 163.066 62.6831Z" fill="#304367"/>
<path d="M160.703 68.4058C160.347 68.4053 159.998 68.5113 159.702 68.7102C159.406 68.9092 159.175 69.1923 159.039 69.5237C158.902 69.855 158.866 70.2197 158.936 70.5716C159.005 70.9235 159.176 71.2468 159.428 71.5006C159.679 71.7543 160 71.9271 160.349 71.9971C160.698 72.0671 161.06 72.0311 161.389 71.8938C161.718 71.7564 161.999 71.5238 162.197 71.2254C162.394 70.9269 162.499 70.5762 162.499 70.2174C162.5 69.9793 162.454 69.7435 162.364 69.5234C162.274 69.3032 162.142 69.1032 161.975 68.9349C161.808 68.7665 161.61 68.633 161.391 68.5422C161.173 68.4514 160.939 68.4051 160.703 68.4058Z" fill="#253555"/>
<path d="M160.133 68.738C159.917 68.7376 159.702 68.7813 159.503 68.8664C159.261 69.0844 159.082 69.3646 158.985 69.677C158.888 69.9895 158.876 70.3226 158.952 70.641C159.028 70.9594 159.188 71.2512 159.414 71.4855C159.641 71.7197 159.927 71.8877 160.241 71.9715C160.658 71.9442 161.047 71.7546 161.327 71.4427C161.608 71.1309 161.756 70.7214 161.742 70.301C161.728 69.8806 161.552 69.4824 161.251 69.1906C160.95 68.8988 160.549 68.7365 160.131 68.738H160.133Z" fill="#304367"/>
</svg>
