<svg width="155" height="126" viewBox="0 0 155 126" fill="none" xmlns="http://www.w3.org/2000/svg">
<path d="M22.4335 118.508C10.0133 113.14 5.09029 99.789 3.84568 96.4141C-0.498 84.6346 -0.877082 67.718 8.25627 56.3298C17.5679 44.719 27.5034 50.4066 44.8017 37.708C60.2395 26.3753 56.7434 18.6038 69.6905 9.77545C87.4079 -2.30571 117.612 -3.88334 129.077 9.45973C139.613 21.722 127.229 38.3274 141.364 57.7503C147.133 65.6775 151.415 65.9602 153.651 73.5317C158.207 88.9567 145.636 105.39 143.884 107.619C141.708 110.389 138.645 114.218 133.488 117.404C124.738 122.807 116.207 122.5 97.4147 121.191C57.6384 118.42 60.1951 117.311 51.1551 117.93C35.4611 119.004 30.8342 122.138 22.4335 118.508Z" fill="#F5FFFF"/>
<path d="M81.6564 20.8708L79.6412 22.6246L81.3488 22.8883L67.685 112.548L65.7456 112.246L67.4148 114.321L122.83 122.405L138.174 29.1153L81.6564 20.8708Z" fill="#495378"/>
<path d="M120.347 117.688L66.7952 109.565L79.6409 22.6248L135.237 31.2069L120.347 117.688Z" fill="#F4F7FF"/>
<path d="M98.4949 57.2207C98.4425 57.2872 98.3361 57.2757 98.2587 57.1937C93.2477 51.8639 93.5764 43.8361 98.1558 38.8535C98.2262 38.777 98.3326 38.7725 98.392 38.843C98.4515 38.9136 98.4435 39.0302 98.375 39.1042C93.914 43.9427 93.5819 51.7553 98.453 56.9565C98.5279 57.0361 98.5473 57.1542 98.4949 57.2207Z" fill="#DBDDE4"/>
<path d="M97.6944 38.3649C97.3547 39.6984 96.9282 40.8842 96.9292 40.8902C96.9407 40.8902 96.5147 40.0566 96.7709 38.6691C97.0176 37.2746 98.0215 35.9772 98.026 35.9892C98.0365 35.9902 98.0265 37.03 97.6944 38.3649ZM95.3929 41.7939C95.4513 43.1088 95.3744 44.3402 95.3769 44.3457C95.3874 44.3432 94.7611 43.7082 94.6158 42.3608C94.4609 41.0088 95.0213 39.5352 95.0278 39.5458C95.0373 39.5438 95.3275 40.4789 95.3929 41.7939ZM94.1808 45.6827C94.5928 46.8865 94.8565 48.0794 94.861 48.0844C94.87 48.0794 94.1078 47.6821 93.6049 46.4672C93.092 45.2504 93.2158 43.7117 93.2243 43.7203C93.2323 43.7162 93.7617 44.4803 94.1808 45.6827ZM94.1078 49.7571C94.828 50.7718 95.4224 51.8481 95.4289 51.8516C95.4369 51.8451 94.6043 51.707 93.7892 50.7033C92.9641 49.7 92.6589 48.2015 92.6689 48.2075C92.6754 48.2015 93.3802 48.7459 94.1078 49.7571ZM95.2246 53.7424C96.207 54.503 97.1215 55.3911 97.13 55.3931C97.1365 55.3846 96.3009 55.5112 95.2196 54.7837C94.1283 54.0587 93.4021 52.6987 93.4146 52.7022C93.4201 52.6947 94.2352 52.9869 95.2246 53.7424ZM99.345 39.229C98.2088 39.3716 97.2364 40.2328 97.2478 40.2318C97.2493 40.2403 98.0934 40.3428 99.1597 40.1497C100.223 39.9501 101.182 39.6043 101.188 39.6038C101.191 39.6128 100.474 39.0819 99.345 39.229ZM97.1734 42.0631C96.1586 42.5424 95.4848 43.6417 95.4948 43.6382C95.4983 43.6462 96.3189 43.4681 97.2598 42.9562C98.1968 42.4393 98.9804 41.8369 98.9859 41.8344C98.9899 41.8429 98.1798 41.5807 97.1734 42.0631ZM95.9263 45.3509C95.1032 46.125 94.7686 47.3824 94.7776 47.3764C94.7831 47.3829 95.5053 46.9416 96.2505 46.1535C96.9911 45.3619 97.561 44.5554 97.565 44.5518C97.5715 44.5594 96.7409 44.5759 95.9263 45.3509ZM95.6521 48.8564C95.0922 49.8682 95.1382 51.1976 95.1457 51.1896C95.1532 51.1946 95.7001 50.5231 96.1785 49.5164C96.6515 48.5072 96.9687 47.555 96.9712 47.551C96.9796 47.557 96.2025 47.8462 95.6521 48.8564ZM96.3978 52.3439C96.1735 53.5218 96.642 54.8322 96.648 54.8227C96.6575 54.8262 96.9512 53.9751 97.09 52.8203C97.2229 51.6644 97.2478 50.6317 97.2488 50.6272C97.2588 50.6307 96.6111 51.1691 96.3978 52.3439ZM100.346 37.831C99.1577 38.7012 98.0425 39.235 98.0295 39.242C98.024 39.2601 98.4625 37.8741 99.7965 36.8708C101.13 35.8651 102.595 35.8731 102.575 35.8791C102.564 35.8891 101.521 36.9489 100.346 37.831ZM107.819 59.0117C107.819 59.0112 107.819 59.0112 107.819 59.0117C107.843 59.0928 107.946 59.1218 108.048 59.0738C114.671 55.9785 117.331 48.3986 114.915 42.0726C114.878 41.975 114.781 41.932 114.699 41.9755C114.618 42.019 114.583 42.1301 114.619 42.2247C116.977 48.3731 114.401 55.7549 107.955 58.7821C107.857 58.8276 107.795 58.9302 107.819 59.0117Z" fill="#DBDDE4"/>
<path d="M115.525 41.7907C115.348 43.1551 115.306 44.415 115.303 44.4205C115.292 44.4165 115.996 43.7996 116.27 42.4156C116.555 41.0286 116.101 39.4515 116.093 39.461C116.083 39.457 115.709 40.4272 115.525 41.7907ZM116.397 45.8285C115.858 47.0289 115.474 48.2012 115.47 48.2052C115.461 48.1992 116.277 47.841 116.91 46.6431C117.553 45.4443 117.576 43.8676 117.566 43.8751C117.558 43.8701 116.943 44.6312 116.397 45.8285ZM116.087 49.891C115.26 50.8571 114.575 51.8674 114.569 51.8704C114.563 51.8624 115.417 51.7753 116.333 50.8336C117.259 49.893 117.712 48.4174 117.701 48.4224C117.695 48.4154 116.921 48.9293 116.087 49.891ZM114.651 53.7032C113.607 54.3787 112.658 55.1587 112.65 55.1597C112.645 55.1507 113.47 55.3309 114.598 54.7009C115.735 54.075 116.571 52.795 116.559 52.797C116.556 52.789 115.7 53.0332 114.651 53.7032ZM112.142 56.992C110.948 57.3348 109.771 57.8206 109.762 57.8196C109.759 57.8096 110.489 58.2364 111.762 57.9612C113.044 57.692 114.221 56.6973 114.208 56.6963C114.206 56.6873 113.34 56.6568 112.142 56.992ZM113.672 41.9813C114.676 42.5347 115.261 43.695 115.25 43.69C115.246 43.6975 114.424 43.4799 113.504 42.9049C112.59 42.3255 111.827 41.6491 111.821 41.646C111.815 41.6541 112.677 41.4259 113.672 41.9813ZM114.644 45.4192C115.409 46.2408 115.629 47.5118 115.621 47.5047C115.615 47.5108 114.919 47.0414 114.233 46.2173C113.554 45.3897 113.048 44.5396 113.044 44.5356C113.037 44.5416 113.886 44.5977 114.644 45.4192ZM114.588 48.9358C115.067 49.96 114.914 51.2519 114.908 51.2429C114.9 51.2469 114.392 50.5689 113.991 49.5612C113.595 48.5515 113.363 47.5908 113.361 47.5863C113.352 47.5908 114.118 47.914 114.588 48.9358ZM113.548 52.2942C113.695 53.4415 113.162 54.6599 113.157 54.6499C113.149 54.6519 112.888 53.8253 112.815 52.7125C112.748 51.5997 112.805 50.5975 112.804 50.593C112.795 50.595 113.41 51.1519 113.548 52.2942ZM111.568 55.2583C111.342 56.4356 110.423 57.4794 110.421 57.4684C110.411 57.4679 110.452 56.5682 110.749 55.4444C111.053 54.3216 111.411 53.3524 111.412 53.3479C111.401 53.3474 111.804 54.088 111.568 55.2583Z" fill="#DBDDE4"/>
<path d="M113.258 40.3112C114.041 41.5601 114.88 42.4693 114.889 42.4808C114.888 42.4993 114.992 41.0498 114.123 39.6232C113.256 38.1952 111.891 37.6593 111.908 37.6723C111.915 37.6854 112.492 39.0568 113.258 40.3112Z" fill="#DBDDE4"/>
<path d="M115.677 110.544C115.677 110.544 119.648 116.27 122.439 105.538L120.347 117.688C120.347 117.688 116.099 117.314 115.677 110.544Z" fill="#A0A9C6"/>
<path d="M120.692 74.5937L77.8232 66.9939L77.6172 68.1601L120.486 75.7599L120.692 74.5937Z" fill="#DBDDE4"/>
<path d="M119.884 79.1596L77.0159 71.5598L76.8099 72.726L119.679 80.3258L119.884 79.1596Z" fill="#DBDDE4"/>
<path d="M119.078 83.7248L76.209 76.125L76.003 77.2912L118.872 84.891L119.078 83.7248Z" fill="#DBDDE4"/>
<path d="M118.27 88.2907L75.4019 80.6909L75.1959 81.8571L118.065 89.4569L118.27 88.2907Z" fill="#DBDDE4"/>
<path d="M117.463 92.8566L74.594 85.2568L74.388 86.4231L117.257 94.0228L117.463 92.8566Z" fill="#DBDDE4"/>
<path d="M120.347 117.689C120.347 117.689 112.236 113.587 116.95 100.795L62.9312 93.5715C62.9312 93.5715 57.8778 101.915 66.7949 109.566L120.347 117.689Z" fill="#C1C6DA"/>
<path d="M79.2121 125.198C114.281 125.198 142.71 122.427 142.71 119.009C142.71 115.59 114.281 112.819 79.2121 112.819C44.1434 112.819 15.7146 115.59 15.7146 119.009C15.7146 122.427 44.1434 125.198 79.2121 125.198Z" fill="#E0E0E0"/>
<path d="M40.5735 43.2004C40.5735 43.2004 44.7924 100.738 50.4361 115.779C50.4361 115.779 45.4072 122.505 34.4948 117.879C34.4948 117.879 31.5855 74.9812 25.269 49.4019C25.269 49.4019 30.6206 41.6924 40.5735 43.2004Z" fill="#FDFFF0"/>
<path d="M37.5689 48.3308L29.4509 54.8965L32.5619 74.8598C32.5619 74.8598 32.4576 77.4207 40.7094 76.0077C40.7094 76.0077 35.8638 78.0846 30.1901 76.4915L25.269 49.4021L37.5689 48.3308Z" fill="#F3F5E7"/>
<path d="M34.9547 50.0277C39.0851 47.946 41.463 44.3261 40.266 41.9424C39.069 39.5587 34.7503 39.3139 30.62 41.3956C26.4897 43.4773 24.1117 47.0972 25.3087 49.4809C26.5057 51.8646 30.8244 52.1094 34.9547 50.0277Z" fill="#EDDBD1"/>
<path d="M36.9182 48.8356C36.9182 48.8356 38.7582 44.4825 34.0769 44.0757C29.3956 43.6689 25.4614 49.7513 25.4614 49.7513C25.4614 49.7513 28.6434 54.3365 36.9182 48.8356Z" fill="#EBD3C5"/>
<path d="M25.9478 50.3236C25.9478 50.3236 28.9015 44.7146 33.9294 45.8409L34.8134 50.1009C34.8134 50.1009 29.1612 52.9229 25.9478 50.3236Z" fill="#DEBDAA"/>
<path d="M41.738 88.2819C41.5787 88.3665 38.1994 92.7246 34.4915 92.3138L35.9065 100.575C37.2445 108.386 43.2029 114.488 50.7919 115.818C45.0074 121.494 38.1275 119.36 34.4905 117.827L31.6917 88.0408L41.738 88.2819Z" fill="#F3F5E7"/>
<path d="M30.1897 76.4911C30.1897 76.4911 36.3683 78.6997 43.4849 74.7349L44.8015 85.9379C44.8015 85.9379 39.8115 91.7881 31.7689 88.9451L30.1897 76.4911Z" fill="#BA3838"/>
<path d="M40.2545 76.1677C36.8908 78.5169 35.4339 81.3324 36.5247 84.8585C36.8129 85.9677 37.8777 88.429 41.7379 88.2824C41.7379 88.2824 37.4322 91.2616 31.7685 88.9459L30.1892 76.4915C30.1897 76.4915 35.7026 77.8474 40.2545 76.1677Z" fill="#9C2D2D"/>
<path d="M87.9449 124.589C110.778 124.589 129.287 123.164 129.287 121.406C129.287 119.648 110.778 118.222 87.9449 118.222C65.112 118.222 46.6023 119.648 46.6023 121.406C46.6023 123.164 65.112 124.589 87.9449 124.589Z" fill="#CFCFCF"/>
<path d="M15.5498 36.3532L20.6092 49.8904C20.6092 49.8904 41.2403 61.9441 57.6146 40.0659L55.2547 26.8479C55.2547 26.8479 27.3187 28.6342 15.5498 36.3532Z" fill="#546569"/>
<path d="M36.5166 38.111L41.0021 52.2661C41.0021 52.2661 53.3834 47.8179 57.6142 40.0659L55.2543 26.8479L36.5166 38.111Z" fill="#4C595E"/>
<path d="M32.7452 18.1406L8.00415 35.7678L37.2986 39.1127L61.8533 22.3401L32.7452 18.1406Z" fill="#2B3436"/>
<path d="M32.3182 16.998L7.57715 34.6252L36.8716 37.9701L61.4268 21.1976L32.3182 16.998Z" fill="#4A585C"/>
<path d="M61.8532 22.3401L61.4267 21.1978L60.1201 22.0899L61.8532 22.3401Z" fill="#2B3436"/>
<path d="M7.57715 34.6255L8.00417 35.7678L9.32721 34.8251L7.57715 34.6255Z" fill="#2B3436"/>
<path d="M34.3927 27.8845C34.8235 27.6846 35.103 27.3718 35.0169 27.1857C34.9309 26.9996 34.512 27.0108 34.0812 27.2107C33.6505 27.4105 33.371 27.7233 33.457 27.9094C33.543 28.0955 33.9619 28.0843 34.3927 27.8845Z" fill="#FFD017"/>
<path d="M20.4197 57.859L20.1315 57.9675L11.9775 35.0516L33.9476 27.5122L34.0445 27.8124L12.3751 35.2488L20.4197 57.859Z" fill="#FFD017"/>
<path d="M20.7963 59.2929C21.1224 59.1757 21.194 58.5427 20.9563 57.8793C20.7185 57.2158 20.2615 56.773 19.9354 56.8902C19.6093 57.0075 19.5377 57.6404 19.7754 58.3039C20.0132 58.9674 20.4702 59.4102 20.7963 59.2929Z" fill="#FFD017"/>
<path d="M21.0916 58.4727C21.0916 58.4727 23.5069 61.1591 24.0872 62.6897C24.6676 64.2203 26.2558 66.3248 26.4057 66.585C26.4436 66.6515 26.4511 66.7001 26.4381 66.7376C26.3892 66.8812 26.1475 66.9403 26.085 66.9538C25.7888 67.0178 25.7149 66.8972 25.4992 66.9242C25.0826 66.9758 25.0602 67.4611 24.6251 67.5387C24.3475 67.5882 24.2071 67.4176 24.0218 67.5482C23.8735 67.6528 23.9219 67.7914 23.7651 67.9235C23.5773 68.0821 23.4025 67.972 23.1593 68.0621C22.7802 68.2022 22.7697 68.63 22.5939 68.6815C22.1144 68.8211 20.5856 66.1087 20.1137 62.5191C19.9279 61.1051 20.0003 59.7176 20.0622 58.8484C20.0622 58.8479 20.3804 58.4046 21.0916 58.4727Z" fill="#FFD017"/>
<path d="M41.3845 49.2163C40.966 49.3824 40.5594 49.5275 40.1639 49.6521C37.2132 50.5818 34.0402 50.942 30.7334 50.7238C27.1244 50.4852 23.353 49.554 19.5233 47.9549C19.2701 47.8493 19.1482 47.5521 19.2506 47.2909C19.353 47.0302 19.6417 46.9041 19.8949 47.0097C27.005 49.9783 33.9138 50.5547 39.8747 48.6769C42.9338 47.7132 46.82 45.3775 51.1142 41.922C54.3776 39.2957 56.747 36.9295 56.7704 36.9054C56.9662 36.7093 57.2794 36.7138 57.4697 36.9155C57.6599 37.1171 57.656 37.4398 57.4602 37.636C57.4362 37.66 55.0354 40.0587 51.7315 42.7181C49.7882 44.2822 47.9153 45.6312 46.1647 46.728C44.4511 47.8013 42.8489 48.6349 41.3845 49.2163Z" fill="#F5E964"/>
<path d="M41.3194 49.121C40.848 49.3082 40.3995 49.4598 39.9749 49.5763C34.1304 51.1775 27.2785 50.5891 20.1604 47.8756C20.0631 47.8386 20.0136 47.7275 20.0496 47.6274C20.0855 47.5274 20.1934 47.4763 20.2908 47.5134C27.336 50.1993 34.109 50.7832 39.8786 49.2031C42.5586 48.469 46.2864 46.2274 50.6596 42.7199C53.9714 40.064 56.5086 37.5983 56.5336 37.5737C56.609 37.5002 56.7278 37.5037 56.7988 37.5812C56.8702 37.6588 56.8667 37.7814 56.7913 37.8544C56.7658 37.879 54.2156 40.3577 50.8898 43.0251C48.935 44.5928 47.0975 45.9187 45.4294 46.9665C43.9186 47.9142 42.5421 48.6357 41.3194 49.121Z" fill="#F4F5CE"/>
<path d="M65.0268 119.976L65.2481 120.718C65.2481 120.718 61.696 122.859 59.9839 122.835C58.4846 122.814 56.7745 122.495 56.2585 121.996C56.1597 121.9 56.3449 121.453 56.3449 121.453C56.3449 121.453 59.2412 122.238 60.1707 122.08C61.1002 121.922 65.0268 119.976 65.0268 119.976Z" fill="#A2C7C9"/>
<path d="M59.9868 122.188C58.2397 122.133 56.3488 121.528 56.3488 121.528C56.3488 121.528 56.2135 121.274 56.2015 120.937C56.201 120.926 56.2005 120.914 56.2 120.9C56.194 120.256 56.657 119.333 59.3071 119.251C59.3071 119.251 60.4193 118.172 60.7719 118.064C60.8014 118.055 60.8434 118.04 60.8973 118.02C61.5021 117.798 63.5643 116.987 64.2725 118.076C64.2725 118.076 65.1231 119.95 65.0677 120.256C65.0137 120.562 61.7334 122.242 59.9868 122.188Z" fill="#323969"/>
<path d="M60.8256 120.204C60.7697 120.19 59.6929 119.912 59.3927 119.737C59.0846 119.557 57.4069 119.828 57.0383 120.135C56.6762 120.437 56.2177 120.964 56.2043 120.979C56.2033 120.975 56.2028 120.96 56.2013 120.937C56.2008 120.926 56.2003 120.914 56.1998 120.9C56.1938 120.256 56.6568 119.333 59.3068 119.251C59.3068 119.251 60.4191 118.172 60.7717 118.064C60.8012 118.055 60.8431 118.04 60.897 118.02C60.932 118.067 60.959 118.124 60.9755 118.189C60.9959 118.268 60.1104 118.985 59.9536 119.346C59.8018 119.697 60.7752 120.18 60.8256 120.204Z" fill="#262C52"/>
<path d="M59.6982 114.75L60.9024 118.462C61.8064 119.094 62.7099 118.894 63.6134 118.285L63.2123 113.094L59.6982 114.75Z" fill="#FFAC78"/>
<path d="M63.6412 103.854L64.3794 114.653C64.8289 115.41 60.0507 116.538 59.0683 115.007C58.7267 114.474 58.3062 101.479 58.3062 101.479L63.6412 103.854Z" fill="#3C75AD"/>
<path d="M86.4107 106.689L87.1774 106.782C87.1774 106.782 87.7208 110.899 87.016 112.463C86.3992 113.832 85.4253 115.276 84.7625 115.551C84.6357 115.603 84.3 115.255 84.3 115.255C84.3 115.255 86.1735 112.907 86.3997 111.99C86.6265 111.073 86.4107 106.689 86.4107 106.689Z" fill="#A2C7C9"/>
<path d="M86.4249 112.201C85.6777 113.784 84.3702 115.281 84.3702 115.281C84.3702 115.281 84.084 115.304 83.7704 115.18C83.7604 115.177 83.7489 115.172 83.7364 115.167C83.144 114.915 82.4843 114.122 83.4657 111.654C83.4657 111.654 82.9213 110.202 82.9632 109.835C82.9667 109.805 82.9697 109.76 82.9732 109.703C83.0107 109.058 83.0901 106.84 84.3702 106.623C84.3702 106.623 86.4249 106.589 86.6831 106.762C86.9413 106.935 87.1711 110.619 86.4249 112.201Z" fill="#323969"/>
<path d="M84.9441 110.64C84.9086 110.686 84.2249 111.564 83.9452 111.77C83.6575 111.981 83.2364 113.63 83.3703 114.092C83.5027 114.545 83.8018 115.176 83.8108 115.195C83.8063 115.194 83.7928 115.188 83.7704 115.18C83.7604 115.177 83.7489 115.172 83.7364 115.167C83.144 114.915 82.4843 114.122 83.4657 111.654C83.4657 111.654 82.9213 110.202 82.9632 109.835C82.9667 109.805 82.9697 109.76 82.9732 109.703C83.0302 109.689 83.0931 109.688 83.159 109.698C83.2394 109.711 83.5426 110.81 83.8103 111.099C84.0715 111.379 84.9011 110.677 84.9441 110.64Z" fill="#262C52"/>
<path d="M79.5018 109.501L83.38 109.875C84.3185 109.297 84.4958 108.387 84.299 107.314L79.387 105.612L79.5018 109.501Z" fill="#FFAC78"/>
<path d="M72.405 100.455L81.5124 106.278C82.3874 106.366 80.4531 110.886 78.6396 110.767C78.0088 110.725 67.3267 103.341 67.3267 103.341L72.405 100.455Z" fill="#3C75AD"/>
<path d="M63.4751 58.4194C63.6798 58.6631 67.4946 61.4481 68.069 63.1138C68.6433 64.7795 67.8008 66.7829 65.7231 68.3426C63.6454 69.9022 56.4124 68.4326 54.9785 69.8461C53.5446 71.2596 51.2486 69.9602 49.8632 68.1759C48.4777 66.3917 47.5363 62.4263 52.1546 61.9875C56.7735 61.5487 56.1807 56.7087 56.9448 56.1923C57.709 55.676 61.1791 55.6855 63.4751 58.4194Z" fill="#E32E2E"/>
<path d="M56.4633 60.0888C56.4633 60.0888 57.2099 62.6926 57.0092 63.6643C56.8084 64.636 50.6053 65.6257 52.8238 68.9842C54.7766 71.9403 67.3217 65.2415 67.092 64.3919C66.8622 63.5423 63.5589 62.1322 63.6448 61.4988C63.7312 60.8658 63.413 59.6109 63.3341 58.964C63.2552 58.317 57.5261 57.6425 56.4633 60.0888Z" fill="#CF2A2A"/>
<path d="M58.7989 74.3996C57.9543 76.7463 56.9265 78.8027 55.6809 80.5185C54.5361 82.0971 53.2081 83.387 51.6708 84.3487L48.4963 81.5867L55.8781 66.4824C59.6604 66.9182 58.7989 74.3996 58.7989 74.3996Z" fill="#323969"/>
<path d="M74.618 49.3541C74.618 49.3541 75.4471 47.4127 75.0035 46.3474C75.0035 46.3474 73.3249 46.462 73.0667 46.6491C72.808 46.8363 73.1531 49.1384 73.239 49.3541C73.3254 49.5702 74.0851 49.7629 74.618 49.3541Z" fill="#FFAC78"/>
<path d="M55.6811 80.5184C54.5363 82.097 53.2083 83.387 51.671 84.3486L51.5566 83.0797L53.0265 82.5313C53.0265 82.5313 54.1463 81.8544 54.6122 75.5994C54.6592 74.9744 55.3604 80.1546 55.6811 80.5184Z" fill="#1C1F3B"/>
<path d="M74.5179 48.6487C74.5179 48.6487 74.378 48.8753 73.9595 48.8483C73.541 48.8213 73.1938 48.396 73.1938 48.396L74.5179 48.6487Z" fill="#E68869"/>
<path d="M75.0032 46.576C75.0032 46.576 75.0331 46.593 75.0476 46.6901C75.0681 46.8297 74.8593 47.0478 74.8593 47.0478C74.8593 47.0478 74.756 46.557 75.0032 46.576Z" fill="#D99266"/>
<path d="M76.0544 97.9322C76.0544 97.9322 66.97 107.818 53.7892 106.503C53.6283 106.488 53.4665 106.47 53.3037 106.45C53.3037 106.45 54.4519 83.8306 54.6247 81.6436C54.797 79.4565 53.9735 69.4608 56.1475 65.9878C56.1475 65.9878 56.8553 64.6063 58.7991 64.2901C60.7439 63.9734 63.1852 63.1138 63.1852 63.1138C63.1852 63.1138 66.6144 65.6556 68.8005 69.3147C68.9728 69.6019 69.1376 69.8966 69.2909 70.1974C69.7654 71.1215 70.1455 72.1037 70.3663 73.125C70.5725 74.0801 70.8103 75.3651 71.068 76.8451C71.3417 78.4162 71.6353 80.206 71.935 82.0524C71.936 82.0524 71.936 82.0534 71.936 82.0534C73.0023 88.6241 74.1356 95.8968 74.619 96.4932C75.3647 97.4139 76.0544 97.9322 76.0544 97.9322Z" fill="#323969"/>
<path d="M57.7759 64.58L59.7801 71.2117H59.9994L63.475 63.0769L63.1859 63.1139L61.6895 63.5928L58.9016 64.2733C58.9011 64.2733 58.1759 64.4024 57.7759 64.58Z" fill="#F7EBEB"/>
<path d="M61.9758 61.686L61.5772 64.0893C60.9264 64.8478 60.2342 65.0114 59.7452 64.9969C59.3567 64.9864 59.0965 64.8633 59.0875 64.8373C59.0685 64.7793 58.2434 62.4086 58.2434 62.4086L60.7022 62.395L61.9758 61.686Z" fill="#FFAC78"/>
<path d="M54.8979 53.8104C54.9554 53.7914 60.3749 50.7021 60.3749 50.7021L67.6902 55.6902L60.681 58.875L54.8979 53.8104Z" fill="#252B4F"/>
<path d="M67.5897 55.9354L61.2687 58.8074L60.5804 59.1196L59.0971 57.8207L57.1283 56.0965L54.7974 54.055C54.8548 54.0355 60.2748 50.9463 60.2748 50.9463L60.5715 51.1484L67.5897 55.9354Z" fill="#313969"/>
<path d="M67.5896 55.9354L61.2686 58.8074C60.5159 58.5182 59.7707 58.17 59.097 57.8207L57.1282 56.0965C58.641 56.2736 61.8075 56.769 62.266 55.6902C62.7539 54.5444 61.2516 52.1426 60.5714 51.1489L67.5896 55.9354Z" fill="#2B325C"/>
<path d="M54.7974 54.054L54.9044 53.8066L55.0298 53.9258L54.7974 54.054Z" fill="#252B4F"/>
<path d="M67.6897 55.6902L67.5896 55.934L67.4214 55.8124L67.6897 55.6902Z" fill="#252B4F"/>
<path d="M61.9377 61.915L61.5771 64.0891C60.9263 64.8476 60.2341 65.0113 59.7451 64.9967L59.4899 64.9727C59.4899 64.9727 61.4692 63.901 61.4762 63.6638C61.4812 63.4977 60.6231 63.5262 60.1112 63.5577C59.7451 63.5802 59.3775 63.4827 59.0858 63.2605C58.9645 63.1679 58.8591 63.0559 58.8052 62.9243C58.7113 62.6951 59.9339 62.5875 60.702 62.3954L61.9377 61.915Z" fill="#E68869"/>
<path d="M57.1907 55.8772C57.1907 55.8772 56.2333 59.1005 56.3482 60.52C56.4631 61.9395 57.4824 64.1186 61.1683 62.9868C63.1436 62.3803 63.4338 59.5603 63.4723 59.3302C63.5107 59.1005 63.1277 55.3783 57.1907 55.8772ZM75.8485 57.9362C75.8485 57.9362 72.2221 57.5489 72.243 57.3738C72.2635 57.2031 72.4972 49.9835 72.5107 49.5647C72.5112 49.5522 72.5112 49.5456 72.5112 49.5456L72.736 49.5251L73.9881 49.4115L74.6174 49.354L75.8485 57.9362Z" fill="#FFAC78"/>
<path d="M61.6154 57.2514C61.6154 57.2514 61.1215 59.2493 61.2938 59.9514C61.4666 60.6539 62.5095 59.2779 62.3401 60.7704C62.1708 62.263 62.5529 62.9145 63.1972 61.6851C63.8415 60.4557 63.4135 58.8741 63.4135 58.8741C63.4135 58.8741 62.0709 57.0973 61.6154 57.2514Z" fill="#E32E2E"/>
<path d="M61.6641 57.7074C61.6641 57.7074 60.3456 57.0549 60.1093 56.5911C60.1093 56.5911 58.3942 56.7612 58.4107 56.6746C58.4272 56.5881 58.2299 56.1928 58.6245 56.0942C59.019 55.9957 61.6806 56.9929 61.8284 57.2431C61.9762 57.4937 61.6641 57.7074 61.6641 57.7074Z" fill="#E32E2E"/>
<path d="M58.7996 56.4621C58.7956 56.5512 58.2357 57.0651 57.2163 57.8011C56.197 58.5371 56.2085 60.1498 55.8798 60.2153C55.5512 60.2814 56.2654 56.5507 56.9052 56.298C57.545 56.0448 58.8276 55.8257 58.7996 56.4621Z" fill="#E32E2E"/>
<path d="M63.5709 59.4424C63.5709 59.4424 62.7408 57.0527 59.399 56.4217C58.6878 56.2876 57.8617 56.2326 56.9058 56.2981C57.2474 55.3429 57.7753 54.673 58.6653 53.9649C58.6653 53.9649 60.6536 53.6282 62.2918 54.5954C62.2928 54.5964 62.2928 54.5964 62.2938 54.5974C62.9201 54.9672 63.4959 55.5276 63.888 56.3722C63.9799 57.3053 63.7906 58.3671 63.5709 59.4424Z" fill="#262D52"/>
<path d="M77.9823 64.8097C77.9823 64.8097 77.9823 64.8097 77.9813 64.8107C77.312 66.4204 76.3826 68.048 75.6094 69.2899C74.7988 70.5929 73.2376 71.2158 71.7542 70.8335L69.291 70.1981L68.0683 69.8828C68.0683 69.8828 67.3791 69.5231 66.506 68.9202C66.4656 68.8926 66.4326 68.8691 66.4077 68.8511C66.3917 68.8396 66.3782 68.8306 66.3702 68.8241C66.3667 68.8216 66.3622 68.8186 66.3587 68.8161C66.3577 68.8151 66.3567 68.8151 66.3567 68.8151C64.5827 67.5592 62.1963 65.3591 63.1847 63.1135C65.7469 62.7597 68.377 63.0775 71.084 64.1743L72.2422 57.3734C72.2422 57.3734 74.5022 56.7214 77.9493 59.1191C79.3927 60.1234 78.9662 62.447 77.9823 64.8097Z" fill="#323969"/>
<path d="M79.2334 48.772L66.2683 48.4323L66.2878 46.4954L79.2334 46.7505V48.772Z" fill="#FDFFF0"/>
<path d="M66.3117 48.4284C66.637 48.4284 66.9006 47.9967 66.9006 47.4642C66.9006 46.9317 66.637 46.5 66.3117 46.5C65.9865 46.5 65.7229 46.9317 65.7229 47.4642C65.7229 47.9967 65.9865 48.4284 66.3117 48.4284Z" fill="#FDFFF0"/>
<path d="M79.2336 48.7789C79.5753 48.7789 79.8524 48.3253 79.8524 47.7657C79.8524 47.2061 79.5753 46.7524 79.2336 46.7524C78.8918 46.7524 78.6147 47.2061 78.6147 47.7657C78.6147 48.3253 78.8918 48.7789 79.2336 48.7789Z" fill="#F3F5E7"/>
<path d="M74.9243 46.7515C74.9243 46.7525 74.9233 46.754 74.9223 46.755C74.8974 46.791 74.8679 46.823 74.8339 46.8501C74.8314 46.8521 74.8274 46.8546 74.8239 46.8571C74.8229 46.8581 74.8219 46.8591 74.8214 46.8591C74.5687 47.0282 72.8107 47.5671 72.041 46.6354L72.04 46.6344C72.04 46.6344 72.0605 46.3702 72.2133 46.1806C72.2143 46.1796 72.2143 46.1786 72.2143 46.1786C72.2823 46.0945 72.3772 46.0255 72.5065 46.0014C72.9301 45.9229 74.79 46.131 74.9338 46.2386C75.0527 46.3282 75.0442 46.5779 74.9243 46.7515Z" fill="#FFAC78"/>
<path d="M74.9258 46.7509C74.9238 46.7529 74.9233 46.7534 74.9223 46.7554C74.8893 46.7914 74.8564 46.8244 74.8239 46.8574C74.8229 46.8584 74.8219 46.8594 74.8214 46.8594C74.5687 47.0286 72.8107 47.5675 72.041 46.6358C72.081 46.4486 72.2028 46.2035 72.2133 46.181C72.2143 46.18 72.2143 46.179 72.2143 46.179L72.3771 46.6918C72.3771 46.6918 72.6508 46.923 73.1937 47.0131C73.7246 47.1026 74.8714 46.7669 74.9238 46.7519C74.9253 46.7509 74.9258 46.7509 74.9258 46.7509Z" fill="#E68869"/>
<path d="M74.1681 49.2247C74.1626 49.2698 74.0962 49.3393 73.9888 49.4119C73.8889 49.4794 73.7546 49.549 73.6022 49.605C73.5703 49.617 73.5368 49.6275 73.5033 49.6385C73.3755 49.6776 73.2386 49.7046 73.1013 49.7106C72.8935 49.7206 72.6867 49.6826 72.5109 49.565C72.3876 49.4834 72.2797 49.3633 72.1983 49.1932C72.1983 49.1932 70.4138 47.9328 72.006 46.2386C72.006 46.2386 72.3411 45.8163 72.2817 46.785C72.2752 46.8786 72.2687 46.9666 72.2617 47.0482V47.0487C72.2607 47.0577 72.2607 47.0667 72.2602 47.0757C72.1983 47.8177 72.1578 48.0844 72.9724 48.3966C73.375 48.5492 73.6597 48.6863 73.85 48.8099C74.0922 48.9675 74.1826 49.1036 74.1681 49.2247Z" fill="#FFAC78"/>
<path d="M73.886 48.8507C73.1963 48.4479 72.3417 48.5205 72.1989 48.0806C72.071 47.6904 72.2349 47.198 72.2603 47.0759C72.1989 47.818 72.1584 48.0851 72.9725 48.3964C73.3746 48.5495 73.6598 48.6866 73.8501 48.8102L73.886 48.8507ZM72.2433 57.3738C72.2638 57.2032 72.4976 49.9835 72.511 49.5647C72.3877 49.4832 72.2798 49.3631 72.1984 49.1929C72.1984 49.1929 72.4141 49.4136 72.7368 49.5252C72.7742 49.5382 72.8137 49.5497 72.8537 49.5592C73.1109 49.6192 73.422 49.6147 73.6018 49.6047C73.6922 49.5997 73.7492 49.5932 73.7492 49.5932L73.5034 49.6378L73.1014 49.7098L72.7058 49.7809C72.7058 49.7809 72.7158 55.8247 72.9735 56.22C73.2312 56.6148 75.3434 57.7361 75.3434 57.7361L72.2433 57.3738Z" fill="#E68869"/>
<path d="M75.3439 57.7363L72.7223 57.9365L71.8318 64.6933L72.2434 66.6792C72.2434 66.6792 71.4497 64.3751 67.5561 63.1712C67.5561 63.1712 69.5339 63.3313 71.0851 64.1754L72.2439 57.3741C72.2434 57.3736 73.2732 57.0438 75.3439 57.7363ZM77.9815 64.8104C77.3122 66.42 76.3828 68.0477 75.6096 69.2896C74.799 70.5925 73.2377 71.2155 71.7544 70.8332L69.2911 70.1978C69.7656 71.1219 70.1457 72.1041 70.3664 73.1253C70.792 75.0953 71.3538 78.4697 71.9347 82.0528C70.3634 79.2763 68.5664 70.2668 68.4895 70.2668C68.4261 70.2668 66.9802 69.2541 66.5062 68.9203C66.4658 68.8928 66.4328 68.8693 66.4078 68.8513C66.3918 68.8398 66.3784 68.8308 66.3704 68.8243C66.3669 68.8218 66.3624 68.8188 66.3589 68.8163C66.4108 68.8268 67.4762 69.0604 68.8007 69.3151C70.9043 69.7209 73.6598 70.1817 74.0439 69.9025C74.6707 69.4447 77.928 64.8854 77.9815 64.8104Z" fill="#292F57"/>
<path d="M51.6855 84.3831C52.0966 83.8979 51.7053 82.8885 50.8115 82.1285C49.9177 81.3685 48.86 81.1458 48.4489 81.631C48.0378 82.1162 48.4291 83.1256 49.3229 83.8856C50.2167 84.6456 51.2745 84.8683 51.6855 84.3831Z" fill="#292F57"/>
<path d="M51.4023 82.7577L47.9132 85.9435L47.6904 86.1456L47.3573 86.4499L45.8774 84.7226L46.0393 84.5285L48.4496 81.6294C49.1618 81.1701 49.9574 81.5248 50.5428 81.9546C51.0517 82.3279 51.4023 82.7577 51.4023 82.7577Z" fill="#FFAC78"/>
<path d="M46.7961 89.6525C46.7811 89.675 46.7646 89.6981 46.7487 89.7206C46.6198 89.9042 46.486 89.9803 46.3821 89.9803C46.3811 89.9803 46.3801 89.9803 46.3801 89.9803C46.3686 89.9803 46.3571 89.9792 46.3461 89.9767C46.2228 89.9532 46.1603 89.8076 46.2417 89.6105C46.5154 88.9525 46.5529 88.4692 46.5529 88.4692C46.5529 88.4692 45.8726 89.6635 45.2408 90.1238C44.609 90.5852 44.5606 89.9993 44.9826 89.4909C45.1165 89.3288 45.8502 88.2545 45.9031 88.1765C45.8272 88.2595 44.6145 89.6035 44.188 89.8266C43.7475 90.0568 43.6286 89.4158 43.9573 89.1552C44.8338 88.4632 45.4052 87.7441 45.4401 87.6991C45.3872 87.7386 44.1211 88.6983 43.5797 88.8459C43.0263 88.9966 43.0033 88.4952 43.4289 88.1474C44.1615 87.55 45.1669 86.5358 45.1669 86.5358L45.5905 85.8238C45.5905 85.8238 45.1809 85.6652 44.8218 86.0254C44.4637 86.3852 43.9363 86.149 43.9962 86.0184C44.4567 85.0202 45.5245 84.5509 46.039 84.5288C46.4035 84.5138 46.9819 84.8216 47.4414 85.2999L47.4424 85.3009V85.3019C47.6257 85.4915 47.789 85.7092 47.9134 85.9439C47.9159 85.9494 47.9199 85.9554 47.9224 85.9609C47.9224 85.9599 48.2745 87.501 46.7961 89.6525Z" fill="#FFAC78"/>
<path d="M76.0543 97.9326C76.0543 97.9326 66.9699 107.819 53.7891 106.504C54.9373 104.523 67.0543 102.475 69.3323 101.645C72.1761 100.609 73.8143 97.5013 72.8659 93.7881C71.9174 90.076 70.0875 76.786 70.0875 76.786C70.4236 76.7619 70.7497 76.7834 71.0679 76.846C71.3416 78.4171 71.6352 80.2069 71.9349 82.0532C71.9359 82.0532 71.9359 82.0542 71.9359 82.0542C73.0022 88.6249 74.1355 95.8976 74.6189 96.4941C75.3646 97.4142 76.0543 97.9326 76.0543 97.9326Z" fill="#292F57"/>
<path d="M47.9224 85.9597C47.9224 85.9597 48.2745 87.5003 46.7962 89.6519C46.6019 89.9831 46.4156 89.9681 46.3826 89.9796C46.3816 89.9796 46.3806 89.9796 46.3806 89.9796C46.3582 89.9851 46.3467 89.9851 46.3467 89.9761C46.3412 89.9341 46.5729 89.7094 46.941 89.1255C47.386 88.421 47.7741 86.7513 47.7027 86.2194C47.6992 86.1944 47.6957 86.1694 47.6912 86.1454C47.6163 85.6715 47.4559 85.3278 47.4429 85.3013V85.3003L47.7601 85.4714L50.7952 82.6223L50.543 81.9543C51.0524 82.3276 51.4025 82.7574 51.4025 82.7574L47.9134 85.9432C47.9159 85.9482 47.9194 85.9547 47.9224 85.9597ZM43.1472 88.7237C43.1472 88.7237 43.3979 88.8888 44.3629 88.3419C45.0436 87.9562 45.4831 87.4093 45.4831 87.4093C45.4831 87.4093 45.4582 87.6785 45.4167 87.729C45.3752 87.779 43.4184 89.4007 43.1472 88.7237ZM45.9981 87.783C45.9691 87.8311 44.5866 89.4988 44.2265 89.6584C43.8664 89.818 43.7945 89.7049 43.7945 89.7049C43.7945 89.7049 43.5757 89.9075 43.9109 89.9606C44.246 90.0131 45.8337 88.3144 45.9042 88.1758C45.9746 88.0372 45.9981 87.783 45.9981 87.783ZM46.6009 88.1488C46.6009 88.1488 45.6005 89.5813 45.2749 89.8695C44.9492 90.1577 44.7539 90.1883 44.7439 90.2303C44.734 90.2723 44.9877 90.4019 45.0741 90.3924C45.1605 90.3829 46.6488 88.8123 46.6009 88.1488ZM44.6615 86.1444C44.6615 86.1444 44.6326 85.9062 45.0057 85.7481C45.3792 85.59 45.6375 85.5359 45.7668 85.6185C45.8962 85.701 45.3148 86.287 45.3148 86.287L45.5655 85.8271C45.5655 85.8271 45.143 85.638 44.6615 86.1444Z" fill="#E68869"/>
<path d="M57.9542 64.5159L60.021 70.945L63.1854 63.1139C63.6844 63.0478 64.1644 63.0023 64.6164 62.9873C64.6164 62.9873 61.2995 72.6322 60.0539 72.8194C58.4867 73.0555 56.9539 65.0803 56.9539 65.0803C56.9539 65.0803 57.4183 64.68 57.9542 64.5159Z" fill="#FFD560"/>
<path d="M59.9366 72.1133C59.9056 72.1133 59.8796 72.1068 59.8596 72.0988C59.7253 72.0452 59.3682 71.9031 58.2354 68.3301C57.6841 66.5898 57.2206 64.8956 57.2161 64.8786L57.4403 64.7445C57.4448 64.7615 57.9288 66.5183 58.4792 68.2535C59.4516 71.3202 59.8317 71.7881 59.9405 71.8546C60.0584 71.8011 60.5254 71.2972 62.0572 67.3849C62.9107 65.2043 63.6604 63.0778 63.6684 63.0558L63.9451 63.0298C63.9376 63.0513 63.165 65.2534 62.3194 67.4169C60.5913 71.8391 60.1903 72.0217 60.0394 72.0903C60.001 72.1073 59.9665 72.1133 59.9366 72.1133Z" fill="#A20004"/>
<path d="M59.8357 64.376L59.9306 65.1565H60.2098L59.8357 64.376Z" fill="#E6DADA"/>
<path d="M58.4312 64.5945C58.4312 64.5945 58.9211 66.1771 59.3436 66.2757C59.7662 66.3743 61.3025 64.9352 61.4338 64.7661C61.5652 64.5965 62.1445 63.7148 62.1445 63.7148L59.881 64.9978C59.881 64.9978 59.7856 64.9933 59.6673 64.9808C59.5179 64.9647 59.3322 64.9357 59.2577 64.8852C59.1249 64.7946 58.6814 64.564 58.6814 64.564L58.4312 64.5945Z" fill="#E6DADA"/>
<path d="M61.78 62.8647L59.8357 64.3758L60.3232 65.6207L62.5017 63.3416L61.78 62.8647Z" fill="white"/>
<path d="M59.0465 65.6487L59.4296 64.4073L58.7364 63.8259L58.3188 64.4018L59.0465 65.6487Z" fill="white"/>
<path d="M59.4296 64.4072V65.0412L59.2583 64.9626L59.4296 64.4072Z" fill="#E6DADA"/>
<path d="M98.3258 46.4701L99.3461 44.94C99.3461 44.94 100.417 42.6734 100.286 41.4906C100.155 40.3077 101.139 41.1618 100.898 42.9141C100.898 42.9141 101.598 41.7312 101.554 40.6144C101.51 39.4976 102.385 40.5924 101.97 42.1696L101.554 43.3144C101.554 43.3144 102.669 41.9289 102.735 40.724C102.735 40.724 102.91 40.0015 103.172 40.702C103.434 41.4025 102.494 43.1112 102.494 43.1112C102.494 43.1112 103.391 42.06 103.609 41.3375C103.827 40.6149 104.068 41.2934 103.937 42.06C103.806 42.8265 102.317 44.7784 102.273 44.9315C102.229 45.0846 102.822 44.9726 103.456 44.3811C104.09 43.7897 104.221 43.9869 104.309 44.0964C104.396 44.206 103.959 45.3448 103.259 45.8267C102.56 46.3085 101.827 45.8812 101.587 46.3741C101.347 46.8669 100.562 48.0318 100.562 48.0318C100.562 48.0318 98.3113 48.2959 98.3258 46.4701Z" fill="#FFAC78"/>
<path d="M104.068 58.9664L104.01 59.1365L103.22 61.4882L101.843 65.5811C100.524 62.9913 96.1145 61.8359 93.7426 58.5906C93.5459 58.3214 93.3631 58.0372 93.1972 57.737C93.1962 57.736 93.1962 57.736 93.1962 57.736C93.1138 57.5879 93.0359 57.4363 92.9625 57.2802C90.9517 52.9876 97.5969 46.1982 97.5969 46.1982C98.859 46.6035 99.7195 47.189 100.3 47.7569C100.301 47.7584 100.302 47.7594 100.302 47.7594C101.229 48.666 101.444 49.5266 101.444 49.5266C101.444 49.5266 98.9883 53.6396 98.1667 55.2597C97.9944 55.5995 97.894 55.8301 97.903 55.8897C97.9909 56.4921 104.068 58.9664 104.068 58.9664Z" fill="#242B33"/>
<path d="M100.302 47.7599L98.5243 47.8955C98.5243 47.8955 97.5025 50.771 95.4947 52.8035C93.4869 54.8359 94.5887 58.9294 94.5887 58.9294C94.2815 58.8188 93.9999 58.7067 93.7426 58.5906C93.5459 58.3214 93.3631 58.0372 93.1972 57.737C93.1962 57.736 93.1962 57.736 93.1962 57.736C93.1138 57.5879 93.0359 57.4363 92.9625 57.2802C90.9517 52.9876 97.5969 46.1982 97.5969 46.1982C98.859 46.6035 99.7195 47.189 100.3 47.7569C100.301 47.7594 100.302 47.7599 100.302 47.7599Z" fill="#1B2026"/>
<path d="M96.9636 46.8918C96.9636 46.8918 99.764 47.5343 100.932 50.3929C100.998 50.556 100.932 50.579 100.932 50.579L100.262 51.5337C100.262 51.5337 98.7342 48.8067 95.8489 48.2473L96.9636 46.8918Z" fill="#FFFE9E"/>
<path d="M100.53 51.1509L100.261 51.5337C100.261 51.5337 98.7332 48.8072 95.8484 48.2473L96.9632 46.8914C96.9632 46.8914 97.1574 46.9354 97.4646 47.0535C97.075 47.5268 97.2239 48.2483 97.7768 48.512C99.2241 49.203 100.123 50.4629 100.53 51.1509Z" fill="#FFED9E"/>
<path d="M96.0217 104.352L95.3254 104.687C95.3254 104.687 96.1335 108.76 97.3032 110.013C98.3271 111.111 99.7131 112.164 100.429 112.21C100.566 112.219 100.772 111.781 100.772 111.781C100.772 111.781 98.2437 110.162 97.7353 109.367C97.2258 108.572 96.0217 104.352 96.0217 104.352Z" fill="#A2C7C9"/>
<path d="M97.779 109.576C98.9951 110.834 100.714 111.828 100.714 111.828C100.714 111.828 100.992 111.758 101.249 111.54C101.257 111.534 101.267 111.526 101.277 111.517C101.757 111.087 102.127 110.124 100.405 108.104C100.405 108.104 100.454 106.553 100.296 106.219C100.283 106.192 100.266 106.15 100.244 106.097C100.002 105.499 99.2139 103.425 97.9323 103.632C97.9323 103.632 95.976 104.263 95.7872 104.51C95.5979 104.756 96.5643 108.318 97.779 109.576Z" fill="#323969"/>
<path d="M98.6797 107.62C98.7281 107.651 99.6576 108.263 99.9887 108.367C100.329 108.474 101.257 109.9 101.279 110.38C101.299 110.852 101.218 111.546 101.216 111.567C101.22 111.564 101.231 111.555 101.249 111.54C101.257 111.534 101.267 111.526 101.277 111.517C101.757 111.087 102.127 110.124 100.405 108.104C100.405 108.104 100.454 106.553 100.296 106.219C100.283 106.192 100.266 106.15 100.244 106.097C100.186 106.103 100.126 106.121 100.067 106.153C99.9952 106.191 100.062 107.329 99.9003 107.688C99.743 108.038 98.7321 107.641 98.6797 107.62Z" fill="#262C52"/>
<path d="M103.466 104.787L99.9148 106.391C98.84 106.146 98.38 105.342 98.2217 104.263L102.326 101.067L103.466 104.787Z" fill="#FFAC78"/>
<path d="M112.11 53.0807C112.11 53.0807 113.509 54.132 113.946 55.9278C114.383 57.7236 111.695 58.3585 110.951 58.3585C110.208 58.3585 108.481 57.0666 109.268 55.9493C110.055 54.8325 111.082 52.9056 112.11 53.0807Z" fill="#240006"/>
<path d="M121.66 58.0801C121.66 58.0801 122.037 60.0675 121.89 61.1188C121.743 62.17 124.407 62.2851 124.407 62.2851L124.546 58.7205L121.66 58.0801Z" fill="#FFAC78"/>
<path d="M123.755 59.5544C123.755 59.5544 125.937 58.4041 126.319 57.1086C126.319 57.1086 124.71 55.9723 124.337 55.9513C123.965 55.9303 122.583 58.276 122.502 58.5357C122.422 58.7959 122.97 59.5319 123.755 59.5544Z" fill="#FFAC78"/>
<path d="M124.183 58.8392C124.183 58.8392 123.889 58.9418 123.529 58.608C123.169 58.2748 123.167 57.6313 123.167 57.6313L124.183 58.8392Z" fill="#E68869"/>
<path d="M128.375 62.4361L116.851 52.549L118.294 50.8037L129.863 60.5997L128.375 62.4361Z" fill="#FDFFF0"/>
<path d="M118.144 52.1405C118.536 51.657 118.615 51.0702 118.319 50.83C118.024 50.5898 117.467 50.787 117.075 51.2705C116.683 51.754 116.605 52.3407 116.9 52.581C117.195 52.8212 117.753 52.624 118.144 52.1405Z" fill="#FDFFF0"/>
<path d="M129.685 61.9832C130.097 61.475 130.18 60.8584 129.869 60.606C129.559 60.3536 128.974 60.5609 128.562 61.0691C128.15 61.5773 128.067 62.1939 128.378 62.4463C128.688 62.6987 129.273 62.4914 129.685 61.9832Z" fill="#F3F5E7"/>
<path d="M125.948 57.4174C125.948 57.4184 125.945 57.4194 125.944 57.4194C125.895 57.4334 125.845 57.4409 125.794 57.4404C125.79 57.4399 125.785 57.4399 125.78 57.4394C125.778 57.4394 125.777 57.4399 125.776 57.4389C125.422 57.4059 123.429 56.5963 123.416 55.1818V55.1803C123.416 55.1803 123.629 54.9556 123.907 54.8961C123.909 54.8961 123.909 54.8951 123.909 54.8951C124.033 54.8686 124.169 54.8761 124.305 54.9501C124.748 55.1913 126.284 56.7549 126.335 56.9591C126.377 57.1277 126.185 57.3478 125.948 57.4174Z" fill="#FFAC78"/>
<path d="M125.951 57.4178C125.948 57.4183 125.946 57.4183 125.944 57.4193C125.888 57.4273 125.834 57.4333 125.78 57.4393C125.779 57.4393 125.777 57.4398 125.777 57.4388C125.423 57.4058 123.429 56.5962 123.416 55.1817C123.591 55.0416 123.881 54.9085 123.908 54.896C123.909 54.896 123.91 54.895 123.91 54.895L123.68 55.4809C123.68 55.4809 123.758 55.8927 124.185 56.3766C124.601 56.8499 125.89 57.3923 125.949 57.4173C125.95 57.4168 125.951 57.4178 125.951 57.4178Z" fill="#E68869"/>
<path d="M123.442 59.1047C123.403 59.1412 123.292 59.1557 123.141 59.1417C123.001 59.1297 122.827 59.0932 122.648 59.0316C122.61 59.0186 122.572 59.0036 122.534 58.9891C122.389 58.93 122.245 58.8535 122.116 58.7579C121.92 58.6138 121.761 58.4262 121.687 58.1895C121.635 58.0244 121.626 57.8358 121.677 57.6206C121.677 57.6206 120.984 55.1573 123.677 54.7951C123.677 54.7951 124.292 54.659 123.525 55.4951C123.45 55.5751 123.38 55.6507 123.313 55.7192L123.313 55.7197C123.305 55.7272 123.299 55.7353 123.291 55.7433C122.689 56.3717 122.456 56.5839 122.966 57.469C123.219 57.9048 123.376 58.24 123.459 58.4927C123.562 58.815 123.544 59.0056 123.442 59.1047Z" fill="#FFAC78"/>
<path d="M123.461 58.5557C123.131 57.6801 122.302 57.1146 122.496 56.6098C122.667 56.161 123.178 55.8342 123.291 55.7432C122.689 56.3716 122.456 56.5843 122.966 57.4689C123.219 57.9052 123.377 58.24 123.458 58.4931L123.461 58.5557Z" fill="#E68869"/>
<path d="M125.349 62.5143C125.349 62.5143 122.825 70.7272 120.693 72.3044C119.266 73.3601 117.604 72.3394 116.661 71.5493C116.196 71.16 115.906 70.8258 115.906 70.8258C115.906 70.8258 115.843 70.6967 115.733 70.4675C115.732 70.4665 115.732 70.466 115.732 70.465C115.14 69.2261 113.203 65.0882 112.548 62.6684C112.323 61.8378 112.249 61.2094 112.433 60.9712C114.877 63.0087 117.071 65.2703 118.889 67.8692L121.25 60.2152C121.282 60.1972 121.313 60.1792 121.345 60.1621C122.095 59.7594 122.865 59.7218 123.675 60.3358C124.214 60.7436 124.771 61.4426 125.349 62.5143Z" fill="#242B33"/>
<path d="M125.773 91.5374C125.773 91.5374 124.267 96.1872 117.715 96.7781C115.688 96.9613 111.295 95.3001 106.555 95.6939C101.814 96.0882 92.1023 94.4004 89.65 89.0846C87.1978 83.7688 111.987 90.8644 115.246 91.5544C118.505 92.2449 123.82 88.4332 125.773 91.5374Z" fill="#0A0F14"/>
<path d="M121.253 66.1636C121.568 68.7905 120.308 70.3751 118.208 69.534C117.222 69.1398 116.248 68.1651 115.492 67.2414C114.637 66.1981 114.06 65.2204 114.06 65.2204C113.962 64.8016 113.263 63.7329 112.549 62.6691C111.927 61.7434 111.293 60.8223 111.031 60.3359C110.908 60.1058 110.891 59.9717 110.952 59.9111C111.293 60.0898 111.791 60.408 112.434 60.9714C114.877 63.0089 117.071 65.2705 118.889 67.8693L121.251 60.2154C121.284 60.1938 121.316 60.1763 121.346 60.1623C122.425 59.6394 120.947 63.6073 121.253 66.1636Z" fill="#2F3842"/>
<path d="M125.349 62.5145C125.349 62.5145 122.825 70.7274 120.693 72.3045C118.562 73.8812 115.906 70.826 115.906 70.826C115.906 70.826 115.843 70.6969 115.734 70.4677C115.733 70.4667 115.733 70.4662 115.733 70.4652C115.501 69.5551 115.583 68.85 115.583 68.85L119.495 71.7696C119.495 71.7696 122.271 70.1995 123.103 66.8511C123.936 63.5027 123.91 61.5093 123.91 61.5093L123.675 60.3359C124.214 60.7437 124.771 61.4427 125.349 62.5145Z" fill="#1B2026"/>
<path d="M91.6346 87.4624C90.0403 87.7181 97.534 92.4165 100.179 92.7847C102.823 93.153 112.351 94.4669 113.563 93.4817C114.775 92.4965 127.126 81.7723 91.6346 87.4624Z" fill="black"/>
<path d="M110.005 111.499L109.492 112.077C109.492 112.077 111.809 115.521 113.371 116.224C114.739 116.839 116.423 117.274 117.101 117.04C117.231 116.995 117.252 116.512 117.252 116.512C117.252 116.512 114.296 115.998 113.519 115.461C112.743 114.924 110.005 111.499 110.005 111.499Z" fill="#A2C7C9"/>
<path d="M113.641 115.636C115.247 116.325 117.216 116.577 117.216 116.577C117.216 116.577 117.446 116.404 117.599 116.104C117.604 116.095 117.61 116.083 117.615 116.071C117.893 115.489 117.862 114.457 115.494 113.261C115.494 113.261 114.941 111.812 114.667 111.565C114.644 111.545 114.612 111.513 114.572 111.473C114.117 111.015 112.59 109.407 111.489 110.095C111.489 110.095 109.927 111.434 109.848 111.735C109.77 112.035 112.035 114.946 113.641 115.636Z" fill="#323969"/>
<path d="M113.717 113.484C113.773 113.494 114.866 113.698 115.212 113.666C115.568 113.633 116.974 114.589 117.179 115.023C117.379 115.45 117.573 116.121 117.579 116.141C117.581 116.138 117.588 116.125 117.599 116.104C117.604 116.095 117.61 116.083 117.616 116.071C117.893 115.49 117.862 114.458 115.495 113.261C115.495 113.261 114.941 111.812 114.667 111.566C114.644 111.545 114.613 111.514 114.572 111.473C114.52 111.501 114.472 111.541 114.43 111.593C114.378 111.656 114.878 112.681 114.868 113.074C114.858 113.458 113.772 113.483 113.717 113.484Z" fill="#262C52"/>
<path d="M117.038 109.017L114.381 111.872C113.296 112.062 112.561 111.498 111.999 110.564L114.551 106.029L117.038 109.017Z" fill="#FFAC78"/>
<path d="M116.532 110.227C116.532 110.227 116.532 110.227 116.531 110.227C116.353 110.401 116.252 110.498 116.252 110.498C116.252 110.498 113.891 109.578 113.301 108.264C112.71 106.95 117.105 102.876 117.105 102.876L113.563 93.4815C113.563 93.4815 113.983 93.0227 114.775 92.4963C115.755 91.8458 117.304 91.0938 119.335 90.9847C119.335 90.9847 119.626 91.9724 120.051 93.3504C120.115 93.5605 120.183 93.7807 120.254 94.0074C120.958 96.274 121.913 99.2386 122.548 100.774C123.532 103.152 117.871 108.911 116.532 110.227ZM108.391 103.403C107.036 104.367 102.477 105.644 102.172 105.812C101.667 106.09 100.963 105.303 100.461 104.352C99.9625 103.41 99.6639 102.304 99.9521 101.914C100.056 101.773 104.39 99.812 104.39 99.812L102.318 88.3963L102.16 87.5257C105.461 85.839 108.609 90 108.609 90C108.609 90 109.746 102.439 108.391 103.403Z" fill="#B9001D"/>
<path d="M120.254 94.008C119.517 95.7313 115.924 95.2044 115.924 95.2044C115.924 95.2044 116.528 99.9128 117.038 100.742C117.549 101.571 118.786 102.648 118.786 102.648L117.734 103.618C117.734 103.618 113.824 107.067 114.034 108.282C114.243 109.487 116.496 110.216 116.531 110.227C116.354 110.401 116.252 110.498 116.252 110.498C116.252 110.498 113.891 109.578 113.301 108.264C112.711 106.95 117.105 102.876 117.105 102.876L113.563 93.4816C113.563 93.4816 113.983 93.0228 114.776 92.4964C116.566 92.534 119.229 92.7016 120.051 93.3505C120.278 93.5307 120.365 93.7478 120.254 94.008ZM104.661 91.958C104.661 93.6267 105.816 99.9648 105.764 100.386C105.711 100.807 101.099 101.447 101.015 102.087C100.933 102.727 100.461 104.352 100.461 104.352C99.9625 103.41 99.6639 102.304 99.9521 101.914C100.056 101.774 104.39 99.8122 104.39 99.8122L102.318 88.3965C103.474 88.4335 107.106 88.8023 108.479 91.9585C108.479 91.958 104.661 90.2899 104.661 91.958Z" fill="#A10019"/>
<path d="M125.841 91.3577C125.579 92.6716 119.283 95.8254 111.675 93.198C109.681 92.509 107.445 91.6008 105.194 90.6982C98.8552 88.1574 92.3849 85.6591 90.7882 88.2039C88.6236 91.6539 88.1321 84.2621 97.4777 79.1374C106.124 74.3955 102.42 66.9547 101.843 65.5827V65.5817C101.797 65.4711 101.77 65.4001 101.773 65.373C101.787 65.2119 101.991 63.9845 102.327 62.6451C102.694 61.1745 103.22 59.5699 103.827 59.0935C103.907 59.0315 103.986 58.988 104.068 58.9669C104.333 58.8989 104.759 58.8899 105.27 58.9189C107.224 59.0285 110.407 59.6905 110.407 59.6905C110.407 59.6905 110.594 59.724 110.952 59.9116C111.294 60.0903 111.792 60.4085 112.434 60.9719C112.758 61.2556 113.117 61.6013 113.512 62.0226C114.276 62.8382 114.84 64.7801 115.492 67.2419C115.707 68.052 115.932 68.9186 116.176 69.8192C116.329 70.3846 116.491 70.963 116.662 71.55C117.562 74.6317 118.751 77.9426 120.596 80.7145C121.052 81.3985 121.471 82.041 121.857 82.6434L121.858 82.6444C125.255 87.9397 126.076 90.1783 125.841 91.3577Z" fill="#242B33"/>
<path d="M106.116 60.4745L104.779 59.0655C104.779 59.0655 104.656 59.2706 104.011 59.1365C103.954 59.125 103.892 59.1105 103.827 59.093C103.795 59.084 103.762 59.075 103.729 59.065C102.836 58.8013 97.3621 56.6713 97.2492 56.277C97.1358 55.8827 98.1672 55.2598 98.1672 55.2598C97.9949 55.5995 97.8945 55.8302 97.9035 55.8897C97.9909 56.4911 104.068 58.9654 104.068 58.9654C104.332 58.8974 104.759 58.8884 105.269 58.9174L106.116 60.4745Z" fill="#1B2026"/>
<path d="M107.129 63.1685C106.765 64.3414 109.385 65.7469 108.966 68.9552C108.546 72.1635 105.343 77.1611 106.079 79.9491C106.814 82.7371 110.357 90.4171 115.569 90.6803C120.781 90.9434 125.192 90.1624 123.879 88.3961C122.566 86.6299 115.55 77.1636 115.041 74.7954C114.533 72.4267 114.718 67.3996 114.06 65.22C113.403 63.0409 108.337 59.2757 107.129 63.1685Z" fill="#2F3842"/>
<path d="M104.965 58.906C104.965 58.906 110.856 66.4569 112.878 73.3554C112.878 73.3554 113.294 73.8372 113.512 72.1725C113.73 70.5078 114.124 65.5803 113.665 64.3104C113.205 63.0405 110.978 59.9237 110.978 59.9237C110.978 59.9237 110.206 59.2888 104.965 58.906Z" fill="#B9001D"/>
<path d="M106.597 59.0466C106.597 59.0466 111.642 65.3071 112.364 67.8695C112.364 67.8695 112.337 65.187 112.134 64.3214C111.845 63.082 110.179 59.621 110.179 59.621L106.597 59.0466Z" fill="#FBFFFF"/>
<path d="M110.628 60.332C110.628 60.332 110.138 61.9147 109.716 62.0132C109.293 62.1118 107.757 60.6728 107.626 60.5036C107.494 60.334 106.915 59.4524 106.915 59.4524L109.178 60.7353C109.178 60.7353 109.274 60.7308 109.392 60.7183C109.541 60.7023 109.727 60.6733 109.802 60.6227C109.934 60.5322 110.378 60.3015 110.378 60.3015L110.628 60.332Z" fill="#E6DADA"/>
<path d="M110.407 58.6458L110.359 59.0941L110.188 60.6973C110.188 60.6973 109.556 61.3202 109.282 61.3102C108.523 61.2842 106.89 59.4339 106.89 59.4339V57.6706C107.855 57.3589 108.898 57.7502 109.597 58.1254C110.088 58.3896 110.407 58.6458 110.407 58.6458Z" fill="#FFAC78"/>
<path d="M110.407 58.6459L110.359 59.0942L108.358 58.2226L109.598 58.125C110.088 58.3897 110.407 58.6459 110.407 58.6459Z" fill="#E6996B"/>
<path d="M110.954 51.0826C110.954 51.0826 111.238 52.331 112.244 54.0393C113.249 55.7475 112.659 57.8935 111.599 58.507C110.539 59.1204 106.517 57.7624 106.341 57.2806C106.167 56.7987 103.718 49.9658 110.954 51.0826Z" fill="#FFAC78"/>
<path d="M125.201 62.9792L124.782 64.2271C124.782 64.2271 123.032 61.2124 120.644 62.1811L120.855 61.4946C120.857 61.4891 120.858 61.4841 120.86 61.4801L121.079 60.7706C121.079 60.7706 123.053 59.8304 125.201 62.9792Z" fill="#FFFE9E"/>
<path d="M111.022 50.515C111.022 50.515 107.743 49.3987 106.781 50.0557C105.819 50.7127 103.48 52.7496 103.568 55.312C103.655 57.8743 104.428 58.6188 105.331 59.0572C106.235 59.4955 106.169 58.8165 106.169 58.8165C106.169 58.8165 106.628 59.2108 107.175 59.2983C107.721 59.3859 108.202 59.0577 108.224 58.4442C108.246 57.8308 107.408 57.1793 107.131 56.4293C106.854 55.6787 113.361 52.2002 111.022 50.515Z" fill="#240006"/>
<path d="M112.356 51.0194C112.356 51.0194 112.902 53.319 110.126 54.8081C107.349 56.2972 106.278 55.6402 105.579 55.0273C104.879 54.4138 105.601 50.8663 108.53 50.5816C111.459 50.2969 112.356 51.0194 112.356 51.0194Z" fill="#240006"/>
<path d="M109.224 60.113L109.188 61.3104C109.039 61.2864 108.847 61.1928 108.709 61.0817L109.224 60.113Z" fill="#E6DADA"/>
<path d="M107.279 58.6021L109.224 60.1131L108.736 61.3575L106.558 59.0789L107.279 58.6021Z" fill="white"/>
<path d="M110.013 61.3858L109.63 60.1449L110.323 59.5635L110.74 60.1394L110.013 61.3858Z" fill="white"/>
<path d="M109.63 60.1445L109.481 61.2503C109.641 61.1758 109.796 61.0967 109.885 60.9696L109.63 60.1445Z" fill="#E6DADA"/>
<path d="M111.934 93.2848C111.934 93.2848 107.861 91.7197 105.194 90.6979C98.8552 88.1571 92.3849 85.6588 90.7882 88.2037C88.6236 91.6536 88.1321 84.2618 97.4777 79.1372C106.124 74.3953 102.42 66.9544 101.843 65.5824V65.5814C100.415 62.7764 95.3611 61.6546 93.1975 57.7373C93.2784 57.8079 98.4272 62.3296 100.303 63.1137C100.303 63.1137 101.445 63.7476 102.327 62.6448C102.639 62.252 102.92 61.6391 103.103 60.6979L103.22 61.4885L103.909 66.1633C103.909 66.1633 105.385 75.5836 102.561 77.2138C97.7944 79.9652 91.6921 85.6303 91.6921 85.6303C91.6921 85.6303 97.5366 84.5 101.016 86.4329C104.364 88.2932 111.934 93.2848 111.934 93.2848ZM121.856 82.6432C114.952 77.3939 115.793 68.9558 115.793 68.9558L116.175 69.819C117.132 73.35 118.398 77.4144 120.595 80.7143C121.051 81.3983 121.471 82.0407 121.856 82.6432Z" fill="#1B2026"/>
<path d="M125.201 62.9795L124.782 64.2274C124.782 64.2274 123.032 61.2128 120.644 62.1815L120.855 61.495C120.857 61.4895 120.858 61.4845 120.86 61.4805C120.904 61.3424 121.372 61.459 122.619 61.7612C123.866 62.0639 124.654 63.3133 124.654 63.3133L125.201 62.9795Z" fill="#FFD375"/>
</svg>
