<svg width="199" height="141" viewBox="0 0 199 141" fill="none" xmlns="http://www.w3.org/2000/svg">
<path d="M99.227 132.063C139.057 132.063 171.346 129.444 171.346 126.213C171.346 122.982 139.057 120.363 99.227 120.363C59.397 120.363 27.1084 122.982 27.1084 126.213C27.1084 129.444 59.397 132.063 99.227 132.063Z" fill="#FFEFDB"/>
<path opacity="0.77" d="M142.073 112.408C132.109 119.693 116.847 114.176 101.762 115.087C90.7357 115.754 81.4138 119.074 70.132 117.247C54.4869 114.712 37.8673 103.767 44.9899 83.2802C49.4225 70.5307 39.952 58.866 40.3587 49.0997C41.4132 23.7695 59.6103 11.5528 91.0889 16.6588C103.517 18.6747 118.602 3.92298 136.899 12.4929C147.388 17.4059 145.905 30.0228 148.965 35.5945C152.911 42.7816 167.817 44.6418 167.563 59.5042C167.324 73.4661 156.074 76.3493 152.506 84.1704C147.633 94.8523 153.205 104.27 142.073 112.408Z" fill="#F5FFFF"/>
<path d="M124.811 50.8478C124.493 52.1304 124.673 53.6057 124.673 53.6057C124.673 53.6057 124.637 57.3138 125.574 60.5115C125.914 61.6398 126.417 63.3719 127.767 65.1232C127.916 65.3026 128.064 65.4817 128.213 65.661C128.364 65.8358 128.521 66.0016 128.693 66.1522C128.817 66.2724 128.94 66.3926 129.069 66.5037C129.134 66.569 129.197 66.6268 129.267 66.6829C131.452 68.5944 133.872 69.2393 134.807 69.4559C135.71 69.6457 138.969 70.243 142.427 68.7336C144.565 67.7968 147.222 65.8938 146.818 64.4714C146.724 64.2025 146.547 63.9805 146.588 63.6156C146.643 62.8878 147.435 62.538 148.439 61.9738C150.302 60.9335 151.241 60.4271 151.518 59.7199C151.656 59.3971 151.674 58.5903 151.717 56.9938C151.749 55.8855 151.707 55.8226 151.813 55.622C152.371 54.643 154.001 55.4038 155.683 54.5856C156.968 53.9482 158.03 52.5147 157.98 51.0894C157.937 50.2508 157.546 50.0633 157.28 48.4974C157.094 47.3905 157.01 46.8177 157.161 46.2738C157.755 44.1586 161.44 44.6677 161.774 42.8808C161.938 41.9976 161.218 40.9356 160.531 39.9193C159.814 38.8909 159.421 38.7764 159.179 38.3286C157.765 35.7816 165.836 30.4702 165.074 29.3453C164.49 28.4922 158.263 29.561 154.706 31.8201C154.16 32.1811 153.114 32.9114 151.733 32.7267C150.138 32.5272 149.699 31.3187 148.618 31.4077C148.075 31.4661 147.799 31.8022 145.444 35.0334C144.698 36.0683 144.183 36.7888 143.576 36.6712C142.982 36.5618 142.752 35.725 141.904 35.5875C141.771 35.5537 141.475 35.5311 141.024 35.721C139.515 36.3187 138.384 38.3344 137.85 39.3347C136.775 41.3298 136.4 42.4343 135.891 42.3471C135.389 42.2393 135.413 41.1327 134.544 40.7402C133.922 40.4769 133.201 40.7413 132.783 41.0074C132.193 41.3902 132.024 42.0032 131.703 43.8671C131.371 45.7794 131.386 46.0857 131.17 47.0917C130.828 48.8307 130.51 50.411 129.775 50.4613C129.11 50.506 128.793 49.2923 127.543 49.004C127.49 48.9897 126.535 48.7854 125.782 49.2713C125.281 49.5912 124.97 50.203 124.811 50.8478Z" fill="#A7B56B"/>
<path d="M128.533 53.6772C127.937 54.6806 128.71 55.8156 129.103 56.7422C129.477 57.6233 129.778 58.5358 130.002 59.4667C130.428 61.2417 130.559 63.0779 130.419 64.8971C130.424 64.8916 130.428 64.8861 130.434 64.8805C131.846 63.2999 133.399 61.8314 134.898 60.3605C136.443 58.844 137.969 57.2903 139.287 55.5639C140.384 54.1217 141.236 52.5576 142.032 50.953C142.033 50.9521 142.033 50.9512 142.034 50.9504C141.653 48.9714 140.524 47.2781 139.98 45.3581C139.503 43.676 139.679 41.5953 141.285 40.5759C141.428 40.4853 141.55 40.7182 141.408 40.8085C139.71 41.8865 139.815 44.1507 140.402 45.8224C140.966 47.4295 141.829 48.9103 142.217 50.5766C142.218 50.5738 142.22 50.5712 142.221 50.5684C142.314 50.3785 142.407 50.1885 142.5 49.9986C143.255 48.442 144.044 46.8888 145.175 45.5727C145.953 44.6567 146.809 43.8143 147.688 43.0044C147.439 41.1315 147.728 39.1223 148.628 37.4512C148.709 37.3021 148.931 37.4415 148.851 37.5901C148.012 39.1474 147.726 41.0262 147.928 42.7806C147.973 42.737 148.019 42.6997 148.065 42.6559C150.184 40.7223 152.412 38.893 154.72 37.1943C154.922 37.0474 155.127 36.8962 155.334 36.7522C155.468 36.6559 155.646 36.8473 155.512 36.9436C153.303 38.5121 151.192 40.2337 149.161 42.0246C148.082 42.9766 147.025 43.9543 146.034 45.0043C145.809 45.2483 145.591 45.4904 145.391 45.7437C145.391 45.744 145.39 45.7443 145.39 45.7447C146.27 46.1992 147.248 45.8307 148.127 45.5629C148.901 45.3272 149.699 45.1996 150.509 45.1966C152.109 45.1905 153.694 45.6582 155.035 46.5307C155.177 46.6228 155.039 46.8467 154.897 46.7543C153.473 45.8279 151.778 45.3791 150.083 45.4719C149.209 45.5197 148.409 45.7631 147.577 46.0079C146.797 46.2371 145.969 46.3565 145.225 45.9571C145.222 45.9555 145.222 45.9524 145.22 45.9507C145.219 45.9513 145.219 45.9517 145.218 45.9521C144.573 46.753 144.021 47.6047 143.527 48.5306C142.526 50.4165 141.727 52.404 140.568 54.2044C139.439 55.9556 138.056 57.5294 136.607 59.0194C136.484 59.1474 136.357 59.2727 136.23 59.3981C136.23 59.3985 136.229 59.399 136.229 59.3993C138.439 59.8015 140.768 60.2041 142.956 59.4712C143.462 59.3017 143.943 59.0676 144.388 58.7725C144.819 58.4867 145.221 58.1476 145.698 57.9398C146.59 57.5516 147.546 57.7729 148.446 58.0096C148.61 58.0527 148.535 58.3052 148.372 58.2621C147.857 58.1267 147.334 57.9898 146.798 57.9854C146.248 57.9809 145.768 58.1589 145.308 58.4536C144.857 58.7428 144.443 59.0795 143.966 59.3279C143.536 59.5515 143.079 59.7229 142.612 59.8494C140.471 60.4287 138.243 60.0323 136.106 59.6431C136.07 59.6366 136.05 59.6166 136.036 59.5942C136.034 59.595 136.033 59.5962 136.032 59.5971C134.145 61.4955 132.147 63.3127 130.386 65.3268C130.381 65.3328 130.375 65.3394 130.37 65.3458C130.357 65.367 130.346 65.3857 130.326 65.3966C130.324 65.3989 130.322 65.4014 130.32 65.4035C129.956 65.8212 129.601 66.2447 129.268 66.6818C129.198 66.6257 129.135 66.5679 129.07 66.5027C129.413 66.0594 129.77 65.6316 130.137 65.2091C130.138 65.2081 130.139 65.2071 130.14 65.2062C130.335 63.1623 130.171 61.095 129.642 59.1103C129.372 58.0986 129.004 57.1232 128.562 56.1753C128.176 55.3479 127.798 54.3991 128.31 53.5375C128.396 53.3929 128.619 53.5317 128.533 53.6772Z" fill="#7A8742"/>
<path d="M67.1016 39.3005C67.3055 41.0485 67.5116 42.7945 67.7155 44.5425C68.6508 52.5297 69.5838 60.5169 70.5191 68.5019C71.6406 78.0772 72.7598 87.6503 73.8811 97.2257C74.8807 105.757 75.878 114.286 76.8776 122.818C77.1369 125.028 78.7748 126.822 80.9467 127.284C86.576 128.484 93.5728 129.441 101.609 129.37C108.916 129.303 115.326 128.404 120.583 127.282C122.75 126.82 124.381 125.023 124.641 122.818L127.637 97.2257L130.999 68.5019L133.195 49.7443L134.417 39.3005H67.1016Z" fill="#E89166"/>
<path d="M130.999 68.502L130.875 69.557L130.848 69.7813L127.732 96.4172L127.706 96.6437L127.637 97.2256C119.253 98.1563 109.989 98.7449 99.9711 98.7116C96.4627 98.7005 93.0497 98.6138 89.7342 98.4628H89.732C84.1581 98.2096 78.8656 97.7787 73.8812 97.2256C73.8591 97.0323 73.8347 96.837 73.8125 96.6437C73.8036 96.5682 73.7947 96.4926 73.7859 96.4172C72.7465 87.5393 71.7091 78.6636 70.6698 69.7857C70.6609 69.7101 70.652 69.6346 70.6432 69.5592C70.601 69.206 70.5612 68.855 70.519 68.502C79.3487 69.6058 89.2177 70.3499 99.9711 70.3854C111.19 70.4231 121.469 69.6791 130.62 68.5486L130.999 68.502Z" fill="#6E3C20"/>
<path d="M100.758 96.9522C93.9899 96.9522 88.4834 91.4336 88.4834 84.6504C88.4834 77.8672 93.9899 72.3486 100.758 72.3486C107.527 72.3486 113.033 77.867 113.033 84.6504C113.033 91.4338 107.527 96.9522 100.758 96.9522ZM100.758 72.6641C94.1634 72.6641 88.7982 78.0411 88.7982 84.6504C88.7982 91.2597 94.1635 96.6366 100.758 96.6366C107.353 96.6366 112.718 91.2595 112.718 84.6504C112.718 78.0412 107.353 72.6641 100.758 72.6641Z" fill="white"/>
<path d="M100.758 95.4596C106.715 95.4596 111.544 90.6201 111.544 84.6504C111.544 78.6807 106.715 73.8413 100.758 73.8413C94.8015 73.8413 89.9727 78.6807 89.9727 84.6504C89.9727 90.6201 94.8015 95.4596 100.758 95.4596Z" fill="white"/>
<path d="M107.412 88.0593C107.267 88.3033 107.112 88.5346 106.948 88.7514C106.703 89.0753 106.436 89.3655 106.161 89.62C106.016 89.7525 105.869 89.8724 105.718 89.9838C105.584 90.0848 105.446 90.1815 105.307 90.2635C105.114 90.3814 104.921 90.4781 104.726 90.5559C104.629 90.5958 104.533 90.6294 104.436 90.6588C103.955 90.8039 103.489 90.8229 103.074 90.6945C103.072 90.6945 103.072 90.6945 103.07 90.6925C103.034 90.682 103.001 90.6651 102.971 90.6462C102.963 90.6399 102.956 90.6335 102.95 90.6272C102.929 90.6125 102.908 90.5958 102.891 90.5768C102.885 90.5706 102.881 90.5621 102.877 90.5559C102.86 90.5347 102.845 90.5138 102.833 90.4906C102.828 90.4843 102.828 90.4779 102.824 90.4695C102.814 90.4463 102.803 90.4211 102.797 90.3959C102.797 90.3939 102.797 90.3939 102.797 90.3917C102.77 90.2656 102.797 90.1245 102.896 90.0151C102.881 90.032 102.866 90.0446 102.849 90.0572L102.832 90.0741C102.824 90.0804 102.814 90.0846 102.805 90.0909C102.788 90.1014 102.774 90.1141 102.757 90.1225C102.753 90.1245 102.746 90.1245 102.742 90.1267C102.721 90.1394 102.698 90.1477 102.675 90.1562C102.665 90.1604 102.652 90.1604 102.639 90.1646C102.623 90.1688 102.608 90.1731 102.591 90.1751C102.568 90.1793 102.543 90.1793 102.52 90.1793H102.507C102.48 90.1793 102.455 90.1773 102.43 90.173C102.425 90.171 102.423 90.171 102.421 90.171C102.4 90.1668 102.381 90.1605 102.362 90.1563C102.327 90.1438 102.291 90.1311 102.26 90.1122C102.201 90.0785 102.148 90.0322 102.106 89.9755C102.104 89.9713 102.1 89.9671 102.098 89.9629C101.374 88.8922 101.523 86.9594 102.572 85.1863C103.643 83.3732 105.311 82.3048 106.61 82.4835L106.658 82.492C106.73 82.5024 106.782 82.5466 106.809 82.6056C106.818 82.6245 106.822 82.6434 106.824 82.6644V82.6918C106.822 82.7065 106.822 82.7192 106.818 82.7317C106.818 82.7338 106.818 82.7359 106.818 82.7359C106.807 82.7696 106.793 82.8012 106.765 82.8264C106.765 82.8284 106.763 82.8284 106.763 82.8284C106.761 82.8305 106.759 82.8327 106.757 82.8347C106.755 82.8367 106.753 82.8389 106.753 82.841C106.776 82.8178 106.799 82.7946 106.824 82.7716C106.935 82.6665 107.097 82.6433 107.236 82.6981C107.234 82.696 107.231 82.6918 107.227 82.6896C107.25 82.6981 107.273 82.7086 107.294 82.7212H107.296C108.633 83.5161 108.684 85.9055 107.412 88.0593ZM101.078 83.6928C101.11 83.9263 101.124 84.1514 101.12 84.37C101.116 84.696 101.074 85.0031 100.994 85.2829C100.887 85.653 100.711 85.975 100.468 86.223C100.468 86.2251 100.466 86.2251 100.466 86.2251C100.466 86.2251 100.466 86.2271 100.463 86.2271C100.436 86.2545 100.407 86.2755 100.377 86.2924C100.369 86.2986 100.361 86.2986 100.352 86.3029C100.329 86.3154 100.304 86.326 100.279 86.3323C100.27 86.3343 100.262 86.3343 100.254 86.3365C100.229 86.3407 100.203 86.345 100.176 86.345C100.17 86.345 100.161 86.3429 100.153 86.3429C100.128 86.3409 100.101 86.3387 100.075 86.3324C100.075 86.3324 100.073 86.3324 100.073 86.3304C99.9495 86.2989 99.8362 86.2105 99.7859 86.0737C99.7921 86.0927 99.7963 86.1136 99.8006 86.1326C99.8026 86.1388 99.8048 86.1473 99.8068 86.1535C99.8088 86.1662 99.8088 86.1767 99.8088 86.1872C99.811 86.2061 99.8151 86.2251 99.8151 86.244C99.8151 86.2482 99.8131 86.2545 99.8131 86.2608C99.8131 86.2839 99.811 86.3071 99.8068 86.3301C99.8046 86.3406 99.8026 86.3512 99.7984 86.3617C99.7942 86.3785 99.7921 86.3975 99.7857 86.4143C99.7773 86.4375 99.7668 86.4606 99.7543 86.4836C99.7543 86.4857 99.7522 86.4899 99.7501 86.4921C99.7375 86.5152 99.7228 86.5384 99.7061 86.5616L99.7039 86.5636C99.6934 86.5783 99.6788 86.591 99.6661 86.6057C99.6388 86.6331 99.6094 86.6603 99.5759 86.6814C99.5214 86.7171 99.4562 86.7425 99.3849 86.753C99.3807 86.755 99.3744 86.755 99.3724 86.755C98.0901 86.9106 96.4446 85.8884 95.3554 84.1406C94.241 82.3528 94.0585 80.3778 94.816 79.303L94.8434 79.2631C94.8854 79.2043 94.9503 79.1789 95.0134 79.1832C95.0344 79.1832 95.0532 79.1894 95.0721 79.1958C95.0826 79.2 95.089 79.2043 95.0973 79.2085C95.1099 79.2148 95.1204 79.2232 95.1309 79.2317C95.1309 79.2337 95.1329 79.2337 95.1329 79.2359C95.158 79.259 95.1791 79.2863 95.1896 79.3221C95.1833 79.2969 95.1749 79.2716 95.1685 79.2464C95.1265 79.0971 95.179 78.9435 95.2923 78.8446C95.2881 78.8467 95.2841 78.8467 95.2798 78.8489C95.2987 78.8321 95.3176 78.8174 95.3386 78.8025H95.3406C96.6586 77.976 98.7993 79.0298 100.124 81.152C100.65 81.9955 100.967 82.881 101.078 83.6928Z" fill="white"/>
<path d="M106.824 88.059C105.668 90.0148 103.818 91.1041 102.487 90.6944C102.485 90.6939 102.484 90.6935 102.483 90.693C102.196 90.6011 102.106 90.2381 102.309 90.0158C104.061 88.0967 103.185 85.6348 106.236 82.7713C106.364 82.6514 106.556 82.6309 106.707 82.7203L106.71 82.7219C108.046 83.5149 108.097 85.9047 106.824 88.059Z" fill="#6E3C20"/>
<path d="M106.71 82.7218L106.707 82.7202C106.686 82.7074 106.663 82.6975 106.64 82.6892C107.862 83.6079 107.716 85.9603 106.299 87.9847C105.137 89.6463 103.475 90.5756 102.21 90.392C102.24 90.5266 102.335 90.6456 102.483 90.693C102.484 90.6934 102.485 90.6938 102.487 90.6943C103.818 91.104 105.668 90.0147 106.824 88.0589C108.097 85.9048 108.046 83.515 106.71 82.7218Z" fill="#441D07"/>
<path d="M102.842 89.2932C102.825 89.3232 102.806 89.3529 102.788 89.3826L102.784 89.3893C102.766 89.4181 102.747 89.4476 102.728 89.4767C102.688 89.5379 102.646 89.5982 102.602 89.6579C102.558 89.7179 102.512 89.7772 102.463 89.8366C102.44 89.8659 102.415 89.8952 102.39 89.9245C102.365 89.9538 102.339 89.9826 102.313 90.011C102.313 90.0119 102.312 90.012 102.312 90.0126C102.144 90.1973 101.874 90.2282 101.673 90.1117C101.615 90.0782 101.563 90.0323 101.52 89.9747C101.517 89.9702 101.514 89.9666 101.512 89.9631C100.786 88.8929 100.937 86.96 101.985 85.1865C103.057 83.3732 104.725 82.3047 106.023 82.4845L106.072 82.4914C106.144 82.5019 106.196 82.5472 106.222 82.6045C106.253 82.6756 106.243 82.7641 106.179 82.8265C106.178 82.8275 106.177 82.8278 106.177 82.8288C106.153 82.8517 106.129 82.875 106.105 82.8981C106.057 82.9439 106.01 82.9901 105.966 83.0364C105.944 83.0578 105.922 83.0792 105.901 83.1012C105.856 83.1481 105.81 83.1949 105.767 83.2419C105.746 83.2646 105.725 83.2872 105.704 83.3099C105.683 83.333 105.662 83.3555 105.642 83.3781C105.622 83.401 105.601 83.4237 105.582 83.4464C105.561 83.4687 105.542 83.4913 105.522 83.514C105.505 83.5332 105.489 83.5529 105.473 83.572C105.464 83.5822 105.455 83.5918 105.447 83.6017C105.415 83.6399 105.383 83.6783 105.352 83.7166C105.298 83.7838 105.245 83.8509 105.194 83.9172C105.177 83.9392 105.16 83.9615 105.143 83.9838C105.127 84.0061 105.11 84.0284 105.094 84.0505C105.078 84.0722 105.062 84.0949 105.046 84.1169C105.03 84.1389 105.014 84.1611 104.999 84.1829C104.937 84.2713 104.879 84.3589 104.822 84.4463C104.379 85.1319 104.106 85.7892 103.894 86.417C103.843 86.5662 103.797 86.7139 103.751 86.8598C103.722 86.9576 103.692 87.0541 103.663 87.1495C103.649 87.1976 103.635 87.2452 103.62 87.2927C103.592 87.3873 103.564 87.4811 103.536 87.5749C103.522 87.6216 103.508 87.6687 103.493 87.7146C103.464 87.8072 103.436 87.8993 103.406 87.99C103.256 88.4449 103.087 88.8799 102.842 89.2932Z" fill="#875132"/>
<path d="M102.842 89.2931C102.691 89.5492 102.514 89.7907 102.312 90.0111C102.146 90.1971 101.874 90.2284 101.672 90.1116C103.446 87.7611 103.449 84.2589 106.222 82.6042C106.306 82.792 106.065 82.9112 105.965 83.036C105.538 83.465 105.148 83.9372 104.821 84.4458C103.751 86.0169 103.72 87.7018 102.842 89.2931Z" fill="#441D07"/>
<path d="M99.5368 81.152C100.739 83.0796 100.855 85.2272 99.8801 86.2238C99.8791 86.2248 99.8781 86.2259 99.877 86.2269C99.664 86.4395 99.3007 86.3535 99.197 86.0706C98.3012 83.6288 95.7168 83.2777 94.5805 79.2461C94.5328 79.0773 94.6031 78.8968 94.7515 78.8036L94.7542 78.802C96.0707 77.9768 98.2124 79.0291 99.5368 81.152Z" fill="#875132"/>
<path d="M94.7539 78.802L94.7513 78.8036C94.7301 78.817 94.7109 78.8326 94.6929 78.8492C96.0684 78.1835 98.0864 79.3936 99.2299 81.5849C100.168 83.3835 100.229 85.2895 99.485 86.3312C99.6182 86.3658 99.7674 86.336 99.877 86.2267C99.878 86.2257 99.879 86.2247 99.88 86.2237C100.855 85.2272 100.739 83.0795 99.5367 81.1519C98.2123 79.0291 96.0706 77.9768 94.7539 78.802Z" fill="#441D07"/>
<path d="M98.8014 85.263C98.8198 85.2926 98.8378 85.3226 98.8557 85.3524L98.8599 85.3591C98.8771 85.3889 98.8945 85.4192 98.9114 85.4496C98.9473 85.513 98.9816 85.5781 99.0141 85.6449C99.0471 85.7115 99.0785 85.78 99.1089 85.8503C99.124 85.8849 99.1386 85.9205 99.1529 85.9562C99.1673 85.9919 99.1813 86.0279 99.1942 86.0645C99.1951 86.0646 99.1948 86.0655 99.1952 86.0659C99.2816 86.3007 99.1851 86.5549 98.9893 86.6805C98.933 86.7165 98.8684 86.7421 98.7977 86.7537C98.7923 86.7542 98.7878 86.7549 98.7839 86.7554C97.5021 86.9098 95.8581 85.8879 94.7677 84.1401C93.6527 82.3529 93.4721 80.3774 94.228 79.3038L94.2564 79.264C94.2988 79.2049 94.3632 79.1787 94.4255 79.1822C94.5029 79.187 94.5768 79.2364 94.6024 79.3226C94.603 79.3236 94.6029 79.3245 94.6036 79.3255C94.6128 79.3574 94.6223 79.3898 94.6321 79.4212C94.6505 79.4849 94.67 79.548 94.6904 79.609C94.6994 79.6381 94.7084 79.6673 94.7183 79.6958C94.7388 79.7582 94.7595 79.8198 94.7814 79.8798C94.7915 79.9096 94.8018 79.9386 94.8126 79.9673C94.8232 79.9969 94.8335 80.0259 94.8446 80.0537C94.8555 80.0824 94.8662 80.1111 94.8773 80.1391C94.8877 80.1673 94.8988 80.1951 94.9098 80.223C94.9191 80.247 94.9289 80.2706 94.9385 80.2938C94.9434 80.3063 94.9481 80.3182 94.9533 80.3299C94.9723 80.3762 94.9918 80.4222 95.0114 80.4674C95.0459 80.5466 95.0812 80.6246 95.1164 80.7005C95.128 80.7258 95.1401 80.7509 95.1521 80.7759C95.1642 80.801 95.1763 80.826 95.1886 80.8504C95.2004 80.875 95.213 80.8997 95.2252 80.9239C95.2376 80.9481 95.2498 80.9724 95.2623 80.9959C95.3122 81.0917 95.3627 81.1842 95.4143 81.2747C95.8186 81.9839 96.2758 82.5284 96.7347 83.0062C96.8437 83.1197 96.9531 83.2292 97.0618 83.3364C97.1348 83.408 97.207 83.4783 97.2781 83.5481C97.3142 83.583 97.3498 83.6174 97.3854 83.6519C97.4563 83.7203 97.5265 83.7886 97.5967 83.8567C97.6316 83.891 97.6669 83.9249 97.7009 83.959C97.7697 84.0273 97.8383 84.0951 97.905 84.1634C98.2399 84.5048 98.5473 84.8557 98.8014 85.263Z" fill="#6E3C20"/>
<path d="M98.8011 85.2631C98.9585 85.5157 99.0914 85.7837 99.1941 86.0645C99.2825 86.2983 99.1851 86.5551 98.9892 86.6806C97.7207 84.0217 94.6182 82.4104 94.4253 79.1821C94.6305 79.1929 94.6256 79.4621 94.6901 79.6089C94.874 80.1865 95.1138 80.7499 95.4141 81.2748C96.315 82.9493 97.7941 83.7508 98.8011 85.2631Z" fill="#441D07"/>
<path d="M126.988 39.3007L126.206 45.9886C122.577 67.5834 123.075 89.9345 114.024 104.427C104.972 118.92 82.2166 125.047 77.2268 124.165C77.8634 125.731 79.238 126.921 80.9464 127.284C86.5757 128.484 93.5725 129.441 101.609 129.37C108.916 129.303 115.325 128.404 120.582 127.282C122.75 126.82 124.381 125.023 124.64 122.818L127.637 97.2257L130.999 68.5019L133.195 49.7443L134.416 39.3005H126.988V39.3007Z" fill="#E8D6C1"/>
<path d="M134.44 42.3456H67.0746C65.5964 42.3456 64.5502 40.893 65.0135 39.4869L67.1966 32.8657C67.2253 32.779 67.2586 32.6947 67.2985 32.6147C67.6553 31.8639 68.4133 31.373 69.2577 31.373H132.258C133.195 31.373 134.026 31.9749 134.319 32.8657L135.159 35.4089L136.504 39.4868C136.967 40.893 135.921 42.3456 134.44 42.3456Z" fill="#6E3C20"/>
<path d="M131.976 30.5494V31.3735H69.5391V30.5494C69.5391 29.9009 69.7696 29.3079 70.1552 28.8435C70.6428 28.2571 71.3786 27.884 72.1986 27.884H129.316C130.604 27.884 131.677 28.7991 131.923 30.0163C131.958 30.1896 131.976 30.3672 131.976 30.5494Z" fill="#E89166"/>
<path d="M122.915 27.8842H109.878V26.1534C109.878 25.858 110.117 25.6184 110.412 25.6184H122.381C122.676 25.6184 122.915 25.8579 122.915 26.1534L122.915 27.8842Z" fill="#5B3114"/>
<path d="M135.158 35.4093L67.2983 32.6151C67.6552 31.8643 68.4132 31.3735 69.2576 31.3735H132.257C133.195 31.3735 134.026 31.9753 134.319 32.8661L135.158 35.4093ZM131.923 30.0163L70.1551 28.8435C70.6428 28.2571 71.3785 27.884 72.1986 27.884H129.316C130.604 27.884 131.677 28.7991 131.923 30.0163Z" fill="#E8D6C1"/>
<path d="M82.2662 114.229C80.6295 114.374 79.1849 113.163 79.0397 111.522L73.8517 52.9435C73.7065 51.3031 74.9155 49.8554 76.5522 49.7098C78.189 49.5643 79.6336 50.776 79.7788 52.4163L84.9666 110.995C85.112 112.635 83.903 114.083 82.2662 114.229Z" fill="#929496"/>
<path d="M138.67 98.0301C139.138 97.3141 140.238 97.2635 140.947 97.7374C141.656 98.2111 142.037 99.0494 142.263 99.876C142.628 101.213 142.677 102.508 142.667 103.862C143.204 102.695 143.784 101.547 144.397 100.421C144.802 99.6763 145.225 98.9401 145.663 98.2131C144.063 97.148 142.789 95.5951 142.062 93.8128C141.787 93.1372 141.601 92.3221 142.002 91.7126C142.469 91.0005 143.569 90.9501 144.279 91.4212C144.988 91.8922 145.368 92.7257 145.594 93.5476C145.973 94.9276 146.011 96.2623 145.997 97.6657C147.372 95.4406 148.905 93.3113 150.61 91.3314C149.231 90.0322 148.242 88.3209 147.812 86.4732C147.647 85.7625 147.593 84.9281 148.085 84.3899C148.659 83.7612 149.753 83.8863 150.379 84.4642C151.004 85.0419 151.248 85.9252 151.341 86.7727C151.492 88.1459 151.335 89.4266 151.112 90.7578C152.942 88.6991 155.029 86.7317 157.493 85.4877C157.545 85.4618 157.597 85.4382 157.649 85.4127C156.446 83.9213 155.696 82.0652 155.533 80.1539C155.47 79.4267 155.536 78.5932 156.099 78.1309C156.757 77.5908 157.822 77.8712 158.359 78.5325C158.896 79.1938 159.011 80.1029 158.983 80.9549C158.932 82.4562 158.537 83.7973 158.079 85.2046C160.965 83.8452 164.113 83.0133 166.948 81.5568C165.709 80.0524 164.935 78.1663 164.769 76.2221C164.706 75.4951 164.772 74.6614 165.335 74.1991C165.993 73.659 167.059 73.9395 167.595 74.6008C168.132 75.2622 168.248 76.1713 168.219 77.0234C168.167 78.5651 167.752 79.9379 167.278 81.3867C167.98 81.01 168.661 80.5921 169.312 80.1131C170.629 79.1433 171.726 77.8999 172.598 76.4987C170.961 75.3621 169.687 73.7072 169.011 71.8293C168.765 71.1429 168.613 70.3204 169.039 69.7283C169.536 69.0366 170.638 69.0325 171.326 69.533C172.015 70.0335 172.36 70.8823 172.551 71.7129C172.902 73.2362 172.847 74.6881 172.76 76.2333C174.121 73.9429 174.894 71.2594 175.047 68.659C173.698 67.454 172.691 65.8654 172.187 64.1256C171.984 63.4246 171.886 62.5943 172.348 62.0306C172.888 61.3719 173.987 61.438 174.643 61.9815C175.298 62.525 175.589 63.3939 175.727 64.2351C175.947 65.577 175.865 66.8454 175.718 68.1643C175.738 68.2092 175.75 68.2612 175.748 68.3215C175.667 70.5376 175.131 72.7276 174.242 74.7558C174.046 75.203 173.833 75.6453 173.603 76.0793C174.952 74.9497 176.611 74.1924 178.35 73.9271C179.07 73.8173 179.904 73.8281 180.401 74.3612C180.982 74.9841 180.773 76.0677 180.149 76.6477C179.526 77.2279 178.628 77.4029 177.778 77.43C176.192 77.4802 174.759 77.1329 173.235 76.7392C172.713 77.6281 172.11 78.4675 171.396 79.2081C170.315 80.3299 169.064 81.1967 167.725 81.9204C169.486 81.4894 171.37 81.5619 173.09 82.1388C173.78 82.3704 174.518 82.7615 174.717 83.4633C174.95 84.2831 174.27 85.1514 173.452 85.3826C172.633 85.6136 171.754 85.3587 170.986 84.9938C169.512 84.2945 168.374 83.2958 167.162 82.2151C164.919 83.3444 162.465 84.1258 160.16 85.0521C159.434 85.3437 158.723 85.6535 158.031 86.0003C159.918 85.436 161.977 85.4647 163.845 86.0885C164.536 86.3192 165.274 86.7094 165.475 87.4108C165.709 88.2305 165.03 89.0997 164.211 89.3317C163.393 89.5639 162.514 89.3102 161.745 88.9461C160.237 88.233 159.08 87.2062 157.834 86.0987C157.101 86.4764 156.393 86.9001 155.72 87.3973C154.489 88.3067 153.363 89.3552 152.31 90.4643C152.03 90.7591 151.755 91.0595 151.485 91.3633C153.139 90.6906 154.982 90.4834 156.743 90.7833C157.461 90.9055 158.249 91.1782 158.554 91.8407C158.911 92.6149 158.372 93.5779 157.599 93.9324C156.825 94.287 155.918 94.1709 155.102 93.9289C153.595 93.482 152.353 92.712 151.043 91.8681C149.377 93.8026 147.89 95.8982 146.551 98.0725C148.053 96.9669 149.878 96.3043 151.739 96.2009C152.466 96.1605 153.295 96.2511 153.739 96.8294C154.258 97.505 153.946 98.5637 153.27 99.0813C152.594 99.5991 151.684 99.6874 150.835 99.6328C149.224 99.5292 147.811 99.0309 146.302 98.4819C146.127 98.7714 145.953 99.0622 145.783 99.3541C144.849 100.957 143.984 102.609 143.213 104.303C144.692 103.248 146.47 102.617 148.283 102.517C149.01 102.476 149.84 102.567 150.284 103.145C150.802 103.821 150.491 104.88 149.815 105.397C149.139 105.915 148.229 106.003 147.38 105.949C145.813 105.848 144.433 105.374 142.971 104.843C142.115 106.785 141.386 108.781 140.824 110.825C140.707 111.251 140.057 111.04 140.173 110.615C140.741 108.551 141.481 106.536 142.346 104.577C140.74 103.505 139.461 101.94 138.732 100.142C138.455 99.4631 138.27 98.6431 138.67 98.0301ZM60.114 79.9152C59.7734 79.1303 58.6976 78.8946 57.919 79.2418C57.1403 79.5889 56.6239 80.3507 56.2621 81.1274C55.6768 82.3836 55.4114 83.6513 55.1924 84.9883C54.8596 83.7465 54.4818 82.517 54.067 81.3038C53.7926 80.5013 53.5001 79.7044 53.1907 78.9137C54.9469 78.1343 56.4636 76.8187 57.48 75.1851C57.8652 74.5659 58.1851 73.7937 57.8931 73.1252C57.552 72.3442 56.476 72.1086 55.6978 72.453C54.9196 72.7975 54.4042 73.5547 54.0433 74.3267C53.4372 75.6228 53.176 76.9322 52.9533 78.3178C51.9721 75.8922 50.8199 73.5343 49.4723 71.2945C51.05 70.2469 52.3132 68.7274 53.0474 66.9787C53.3299 66.3062 53.5237 65.4928 53.1295 64.8793C52.669 64.1624 51.5693 64.1008 50.8557 64.5648C50.1419 65.0284 49.7528 65.8578 49.5186 66.6776C49.1391 68.0057 49.0784 69.2947 49.0742 70.6446C47.6165 68.306 45.8908 66.0143 43.6711 64.3715C43.625 64.3372 43.577 64.3052 43.5306 64.2712C44.9671 63.0044 46.0184 61.3017 46.5012 59.4453C46.685 58.7392 46.7608 57.9064 46.2835 57.3556C45.7255 56.7121 44.6285 56.8084 43.9881 57.3695C43.3477 57.9306 43.0808 58.8072 42.9657 59.6519C42.7629 61.1402 42.9266 62.5289 43.1413 63.9933C40.5255 62.1656 37.5623 60.8136 35.0135 58.8988C36.4882 57.6254 37.5678 55.8971 38.0589 54.0088C38.2428 53.3028 38.3187 52.47 37.8411 51.9191C37.2832 51.2755 36.1861 51.372 35.5457 51.9331C34.9053 52.4942 34.6383 53.3708 34.5234 54.2155C34.3151 55.7438 34.4934 57.1671 34.7165 58.6753C34.0881 58.1855 33.487 57.6585 32.9264 57.0764C31.7913 55.8978 30.9191 54.4869 30.2951 52.9583C32.1 52.1147 33.6344 50.6988 34.6165 48.9621C34.9754 48.3273 35.2627 47.5421 34.943 46.8865C34.5693 46.1206 33.4844 45.9305 32.7215 46.3073C31.9586 46.6843 31.4753 47.4624 31.1471 48.2489C30.5451 49.6913 30.3544 51.1315 30.1807 52.6693C29.2248 50.1816 28.9147 47.4061 29.2015 44.817C30.7339 43.8574 31.9935 42.4616 32.7828 40.8319C33.1007 40.1752 33.3378 39.3736 32.977 38.7398C32.5555 37.9993 31.4606 37.8787 30.7231 38.3036C29.9856 38.7285 29.5528 39.5359 29.2752 40.3417C28.8323 41.6272 28.6999 42.8914 28.623 44.2161C28.5953 44.2569 28.5748 44.306 28.5668 44.366C28.2735 46.5641 28.4338 48.8133 28.9684 50.9626C29.0862 51.4366 29.222 51.9084 29.3753 52.3752C28.2358 51.0337 26.7281 50.0068 25.0593 49.4515C24.3681 49.2215 23.544 49.0913 22.9642 49.5326C22.2869 50.0484 22.311 51.1519 22.8279 51.8289C23.3448 52.5061 24.2001 52.8304 25.0337 53.0008C26.5885 53.3183 28.0586 53.2183 29.6275 53.0878C29.992 54.0521 30.4457 54.9814 31.0247 55.8321C31.9016 57.1205 32.9887 58.1863 34.1867 59.126C32.5231 58.4035 30.6545 58.1566 28.8621 58.4346C28.1425 58.5461 27.3498 58.807 27.035 59.465C26.6672 60.2337 27.1914 61.2045 27.9597 61.5707C28.7278 61.9368 29.6365 61.834 30.4558 61.6044C32.0256 61.164 33.3154 60.3721 34.6928 59.5118C36.7137 61.0041 39.0005 62.1888 41.1167 63.4915C41.7829 63.9015 42.4324 64.3273 43.0558 64.786C41.291 63.9109 39.2561 63.591 37.3097 63.8902C36.5899 64.0009 35.7969 64.2608 35.4812 64.9183C35.1125 65.6865 35.6353 66.6581 36.403 67.0251C37.1707 67.3921 38.0797 67.2906 38.8992 67.0619C40.5054 66.6138 41.8189 65.7972 43.2333 64.9163C43.8924 65.4125 44.5193 65.9499 45.0989 66.5537C46.1591 67.6581 47.0925 68.8819 47.9437 70.1531C48.1701 70.491 48.3902 70.8335 48.6057 71.1787C47.088 70.2361 45.3068 69.7203 43.5206 69.7183C42.7926 69.7174 41.9692 69.853 41.5571 70.4545C41.0756 71.1573 41.4442 72.1975 42.1469 72.6778C42.8497 73.158 43.7635 73.1969 44.6083 73.0963C46.1691 72.9105 47.5227 72.3615 48.9562 71.751C50.2726 73.9394 51.3855 76.2563 52.3395 78.6259C51.0452 77.2823 49.3582 76.3207 47.5412 75.9043C46.8315 75.7417 45.9985 75.6907 45.4636 76.1857C44.8386 76.764 44.968 77.8601 45.547 78.4846C46.126 79.1092 47.0084 79.35 47.8544 79.4397C49.4598 79.6098 50.9371 79.3577 52.5167 79.0715C52.6407 79.3865 52.7628 79.7023 52.8815 80.019C53.5325 81.757 54.1074 83.5309 54.5821 85.3309C53.3016 84.0417 51.6547 83.1192 49.8846 82.7137C49.1748 82.551 48.3421 82.5003 47.8069 82.9951C47.1819 83.5734 47.3113 84.6697 47.8903 85.2942C48.4694 85.9186 49.3518 86.1594 50.1977 86.2491C51.759 86.4146 53.1988 86.1808 54.7296 85.9046C55.2462 87.963 55.6289 90.0542 55.8386 92.1635C55.8824 92.6028 56.5592 92.5046 56.5156 92.0662C56.3039 89.9361 55.913 87.8251 55.3899 85.7472C57.1534 84.9622 58.6774 83.6355 59.6986 81.9871C60.0845 81.3638 60.4053 80.587 60.114 79.9152Z" fill="#416E61"/>
<path d="M59.9553 97.7053C60.3933 98.9521 60.3527 100.438 60.3527 100.438C60.3527 100.438 60.7369 104.126 60.1052 107.398C59.8734 108.553 59.5354 110.325 58.3558 112.196C58.2248 112.389 58.0937 112.581 57.9625 112.774C57.8283 112.962 57.6878 113.142 57.5304 113.308C57.4188 113.44 57.3073 113.571 57.1894 113.694C57.1308 113.765 57.0737 113.828 57.009 113.891C55.0136 116 52.6653 116.871 51.7546 117.175C50.8741 117.449 47.6858 118.352 44.1012 117.176C41.8841 116.445 39.0602 114.802 39.3286 113.348C39.3962 113.071 39.5522 112.833 39.4772 112.474C39.3538 111.755 38.5324 111.481 37.4791 111.014C35.5268 110.155 34.5448 109.739 34.2022 109.062C34.0344 108.753 33.9405 107.952 33.7473 106.366C33.6118 105.266 33.647 105.2 33.5227 105.01C32.8758 104.088 31.3242 104.999 29.5729 104.344C28.2334 103.831 27.0416 102.504 26.9574 101.08C26.9214 100.241 27.2929 100.018 27.4105 98.4335C27.4911 97.314 27.5208 96.7358 27.3189 96.2086C26.5289 94.1589 22.9085 95.014 22.4074 93.2666C22.161 92.4028 22.7786 91.2775 23.3668 90.2008C23.9833 89.1091 24.3637 88.9582 24.5621 88.4895C25.7303 85.8203 17.1958 81.2951 17.8484 80.1032C18.3497 79.1988 24.649 79.6744 28.4036 81.5871C28.9804 81.8949 30.0907 82.5232 31.4488 82.2088C33.0178 81.8594 33.3405 80.6149 34.4253 80.6014C34.9717 80.6082 35.2784 80.9166 37.9266 83.9108C38.767 84.8706 39.3472 85.5392 39.9405 85.3648C40.5215 85.1998 40.6712 84.345 41.5027 84.128C41.6325 84.0818 41.9244 84.0314 42.3917 84.1778C43.9495 84.6302 45.2659 86.5301 45.8909 87.4754C47.1491 89.3598 47.6269 90.4241 48.125 90.289C48.6144 90.1342 48.4865 89.0348 49.3152 88.562C49.9097 88.2411 50.6516 88.4362 51.0933 88.6617C51.7162 88.9871 51.9428 89.5812 52.4373 91.4066C52.9477 93.279 52.9624 93.5853 53.2713 94.5665C53.7753 96.2654 54.2406 97.8087 54.9778 97.7891C55.6438 97.7709 55.8457 96.5326 57.0624 96.1275C57.1138 96.1082 58.0456 95.8146 58.8404 96.2271C59.3694 96.4988 59.7369 97.0784 59.9553 97.7053Z" fill="#A7B56B"/>
<path d="M56.5171 100.874C57.2047 101.817 56.5415 103.02 56.2373 103.979C55.948 104.892 55.7342 105.829 55.5992 106.777C55.3418 108.584 55.3839 110.424 55.695 112.222C55.6893 112.217 55.6845 112.212 55.6787 112.207C54.1239 110.767 52.4397 109.452 50.8089 108.129C49.1276 106.765 47.4628 105.363 45.9887 103.769C44.7604 102.437 43.7652 100.96 42.8212 99.4378C42.8205 99.4371 42.82 99.4361 42.8196 99.4354C43.0125 97.4291 43.9776 95.6367 44.3386 93.674C44.6549 91.9544 44.2837 89.8995 42.5891 89.0364C42.4384 88.9597 42.3386 89.2032 42.4888 89.2797C44.2806 90.1923 44.3886 92.4565 43.9616 94.1762C43.5511 95.8296 42.8318 97.3853 42.602 99.0808C42.6004 99.0782 42.5988 99.0757 42.5971 99.0731C42.4866 98.8928 42.3761 98.7124 42.2658 98.5321C41.3683 97.0537 40.4361 95.5821 39.1865 94.3787C38.3259 93.5403 37.3945 92.7825 36.4434 92.0594C36.5149 90.1713 36.0384 88.1983 34.9844 86.6198C34.8905 86.4788 34.6818 86.6388 34.7754 86.7791C35.7576 88.2501 36.219 90.0935 36.1835 91.8591C36.1345 91.8201 36.0845 91.7873 36.0354 91.748C33.7433 90.0233 31.3535 88.4128 28.896 86.9397C28.681 86.8126 28.4627 86.6815 28.2434 86.5576C28.1009 86.4745 27.9416 86.6819 28.0839 86.7651C30.4302 88.1179 32.6946 89.6323 34.8847 91.2232C36.0479 92.069 37.1924 92.9425 38.2777 93.8942C38.5249 94.1159 38.7649 94.3363 38.988 94.5695C38.9881 94.5698 38.9887 94.5701 38.989 94.5706C38.1551 95.1063 37.1472 94.8317 36.2473 94.6484C35.4546 94.4868 34.6476 94.4352 33.8414 94.5088C32.2481 94.6539 30.7141 95.2693 29.4605 96.2648C29.3282 96.3698 29.4868 96.5796 29.6195 96.4743C30.9501 95.4175 32.5945 94.8105 34.2912 94.7426C35.1653 94.7076 35.985 94.8743 36.8368 95.0395C37.6339 95.194 38.4697 95.2347 39.1734 94.7666C39.1762 94.7647 39.1752 94.7618 39.1778 94.7598C39.1782 94.7604 39.1788 94.7608 39.1792 94.7612C39.8965 95.4976 40.5268 96.2934 41.1052 97.1684C42.2799 98.9513 43.262 100.854 44.5853 102.537C45.8738 104.174 47.399 105.61 48.9816 106.957C49.1159 107.072 49.2542 107.185 49.3925 107.298C49.3929 107.299 49.3935 107.299 49.3939 107.299C47.2314 107.908 44.9505 108.529 42.7038 108.006C42.184 107.885 41.6823 107.698 41.2115 107.446C40.7558 107.202 40.324 106.903 39.8291 106.741C38.9045 106.439 37.9739 106.75 37.1001 107.07C36.941 107.129 37.0393 107.373 37.1979 107.315C37.6976 107.131 38.2059 106.945 38.7387 106.89C39.2855 106.834 39.7805 106.966 40.266 107.216C40.7427 107.461 41.1862 107.757 41.6846 107.959C42.1334 108.141 42.6045 108.269 43.0815 108.35C45.2677 108.725 47.4483 108.12 49.539 107.53C49.5743 107.52 49.5922 107.499 49.6048 107.475C49.606 107.476 49.6071 107.477 49.6082 107.478C51.6657 109.189 53.8258 110.81 55.7688 112.648C55.7745 112.654 55.7807 112.66 55.7867 112.665C55.8009 112.685 55.8139 112.703 55.8352 112.712C55.8371 112.714 55.8396 112.716 55.8416 112.718C56.2435 113.1 56.6368 113.488 57.0095 113.891C57.0742 113.829 57.1313 113.765 57.1899 113.694C56.8067 113.285 56.4102 112.893 56.0053 112.508C56.0043 112.507 56.0034 112.506 56.0024 112.505C55.6156 110.488 55.5852 108.415 55.9251 106.389C56.0983 105.356 56.3732 104.351 56.7242 103.365C57.0303 102.505 57.3169 101.525 56.7264 100.715C56.6262 100.578 56.4172 100.737 56.5171 100.874Z" fill="#7A8742"/>
<path d="M139.715 75.639C138.341 74.4395 137.223 72.9741 136.495 71.2954C135.719 69.5053 135.406 67.5405 135.582 65.5967C135.685 64.4671 135.95 63.3383 136.344 62.2754C136.347 62.2669 136.333 62.2611 136.33 62.2694C135.916 63.2031 135.647 64.1795 135.515 65.1926C135.382 66.2033 135.378 67.2298 135.506 68.2411C135.742 70.1138 136.442 71.9081 137.522 73.4538C138.115 74.3028 138.818 75.081 139.627 75.7288C139.688 75.7782 139.776 75.6929 139.715 75.639Z" fill="#383A42"/>
<path d="M139.39 60.3337C141.788 60.0083 143.242 61.7984 143.586 65.5844C143.919 69.2479 145.99 68.7423 148.635 71.1471C153.956 75.9854 144.705 81.7954 141.718 80.1201C138.73 78.4448 137.441 74.3739 136.458 70.5167C136.008 68.7526 134.483 59.4555 139.39 60.3337Z" fill="#383A42"/>
<path d="M151.028 73.5475C150.885 72.5562 150.349 71.6962 149.575 71.073C148.77 70.4247 147.812 70.0207 146.884 69.5867C145.945 69.1478 145.002 68.6591 144.285 67.893C144.193 67.7948 144.109 67.6904 144.029 67.5823C144.019 67.5689 143.996 67.5819 144.006 67.5957C144.595 68.4215 145.446 68.9648 146.337 69.4152C147.243 69.8727 148.191 70.2512 149.031 70.8283C149.449 71.1147 149.839 71.4544 150.15 71.8553C150.446 72.2349 150.657 72.6736 150.78 73.1387C151.019 74.0496 150.917 75.0628 150.411 75.8673C149.864 76.7361 148.936 77.2273 148.231 77.9442C148.142 78.0342 148.06 78.1297 147.981 78.228C147.943 78.2752 148.007 78.3419 148.049 78.2953C148.739 77.5281 149.686 77.0357 150.341 76.2354C150.952 75.4889 151.164 74.4919 151.028 73.5475Z" fill="#383A42"/>
<path d="M148.994 121.354C149.68 120.596 149.476 119.959 149.324 119.168C149.172 118.376 149.648 117.632 149.648 117.632L151.227 118.962L151.642 118.457C151.498 118.351 150.695 117.3 150.135 116.518C150.054 116.405 149.979 116.299 149.914 116.202L149.911 116.198C149.796 116.026 149.703 115.889 149.644 115.792C149.32 115.261 147.803 114.484 147.803 114.484C147.803 114.491 147.786 114.497 147.786 114.503C147.486 115.261 146.819 115.836 146.039 116.136C146.039 116.136 146.042 116.139 146.048 116.152C146.048 116.152 146.051 116.155 146.054 116.158C146.089 116.205 146.173 116.333 146.284 116.52C146.542 116.961 146.936 117.732 147.112 118.612C147.161 118.848 147.172 119.129 147.161 119.431C147.106 120.691 146.662 122.344 146.967 122.769C147.344 123.298 148.308 122.112 148.994 121.354Z" fill="#2A2C33"/>
<path d="M147.076 120.349C149.458 120.624 147.794 114.49 147.794 114.49C147.711 114.617 145.724 112.045 145.724 112.045C145.724 112.045 144.202 113.223 143.628 113.445C145.091 115.064 147.052 116.739 147.076 120.349Z" fill="#FAC0C0"/>
<path d="M139.29 126.045C140.309 125.916 140.574 125.303 140.981 124.605C141.387 123.908 142.237 123.653 142.237 123.653L142.557 125.684L143.203 125.571C143.164 125.397 143.249 124.081 143.341 123.126C143.354 122.989 143.367 122.86 143.382 122.744L143.381 122.74C143.408 122.535 143.428 122.37 143.447 122.259C143.552 121.647 142.916 120.076 142.916 120.076C142.911 120.081 142.894 120.074 142.89 120.079C142.164 120.458 141.28 120.46 140.492 120.181C140.492 120.181 140.492 120.186 140.488 120.199C140.488 120.199 140.489 120.204 140.489 120.208C140.484 120.266 140.463 120.417 140.424 120.631C140.329 121.132 140.118 121.971 139.673 122.75C139.554 122.961 139.377 123.18 139.17 123.401C138.298 124.319 136.873 125.282 136.823 125.801C136.76 126.445 138.271 126.173 139.29 126.045Z" fill="#2A2C33"/>
<path d="M138.5 124.041C140.122 125.794 142.905 120.074 142.905 120.074C142.759 120.117 142.949 116.883 142.949 116.883C142.949 116.883 141.02 116.786 140.44 116.582C140.48 118.755 140.861 121.294 138.5 124.041Z" fill="#FFCFCF"/>
<path d="M144.864 115.465C144.864 115.465 133.671 106.021 132.798 103.857C131.864 101.543 133.58 93.0711 134.714 87.6955C135.261 85.0978 135.777 82.9644 136.015 82.0083C136.101 81.6568 136.151 81.4636 136.151 81.4636L143.269 81.7962L142.164 85.9737L137.936 101.969C137.936 101.969 138.971 103.18 140.359 104.802C143.137 108.048 147.326 112.942 147.452 113.078C147.852 113.513 145.296 115.638 144.864 115.465Z" fill="#383A42"/>
<path d="M137.936 101.969C137.936 101.969 138.971 103.18 140.359 104.802L136.282 101.634C136.282 101.634 137.092 99.7361 137.408 98.516C137.821 96.9226 139.058 88.997 137.703 88.1765C136.771 87.6129 135.638 88.1803 134.714 87.6955C135.261 85.0979 135.777 82.9645 136.015 82.0083C137.124 82.082 140.625 82.7401 140.664 82.9484C140.685 83.0657 141.412 84.421 142.164 85.9736L137.936 101.969Z" fill="#2A2C33"/>
<path d="M145.308 98.6769C144.478 105.88 143.07 113.291 143.739 117.521C142.281 117.988 140.658 117.816 139.432 117.479L139.08 83.3364L142.151 83.3806L144.11 83.4087C146.133 87.1323 145.981 92.8312 145.308 98.6769Z" fill="#383A42"/>
<path d="M145.308 98.6766C145.176 94.1011 144.831 87.8353 143.638 87.9118C140.293 88.1264 139.115 86.1887 139.115 86.1887L142.151 83.3801L144.11 83.4082C146.133 87.132 145.981 92.8309 145.308 98.6766Z" fill="#2A2C33"/>
<path d="M137.274 72.5253C137.285 73.021 137.227 73.603 137.077 74.2698C136.924 74.9422 136.678 75.7023 136.32 76.546C136.228 76.7526 135.83 79.6088 133.873 79.6774C133.298 79.6975 132.083 78.309 132.424 76.3941C132.665 75.0422 133.222 73.1054 134.743 71.3759C135.584 70.4189 135.975 70.0122 136.806 69.6228C137.015 70.0685 136.884 71.7047 137.274 72.5253Z" fill="#DD5442"/>
<path d="M142.639 78.1997C142.69 81.0544 144.977 83.9291 144.87 84.4117C144.705 85.148 143.953 85.6035 142.911 85.8867C141.994 86.1371 140.852 86.2497 139.697 86.3028C138.778 86.3243 138 86.2577 137.356 86.1416C135.085 85.7308 134.778 85.0954 134.778 85.0954C134.778 85.0954 136.821 80.9611 136.641 78.6483C136.538 75.8824 134.489 74.028 135.544 71.3574C135.863 70.5503 136.302 69.7411 137.053 69.4384C137.161 69.3927 137.272 69.3513 137.379 69.3184C138.554 68.9134 139.73 68.9198 140.873 69.2059C142.404 69.5845 142.434 70.4173 143.788 71.5153C143.046 72.2846 142.609 76.3335 142.639 78.1997Z" fill="white"/>
<path d="M136.755 86.7295C135.81 86.998 134.935 86.9632 134.412 86.6834C134.128 86.5314 134.023 86.1741 134.157 85.8803C134.659 84.7743 136.057 81.5031 135.909 79.6024C135.805 76.8365 133.98 74.1515 135.034 71.4808C135.354 70.6737 136.303 69.7408 137.053 69.4382C137.161 69.3924 137.985 69.104 138.331 69.0415C138.156 69.5191 136.204 71.6122 137.051 75.3965C138.233 80.6792 138.439 84.3902 137.695 85.9463C137.511 86.3317 137.166 86.6132 136.755 86.7295ZM142.639 78.1996C142.69 81.0543 145.828 84.6212 145.647 85.6596C145.44 86.8484 143.322 87.0296 141.921 86.8321C141.494 86.7721 141.16 86.4379 141.092 86.0164C139.989 79.1804 138.204 74.3344 140.659 69.0629C142.336 69.4012 143.96 70.2412 145.047 71.6084C144.304 72.3775 142.609 76.3334 142.639 78.1996Z" fill="#DD5442"/>
<path d="M140.659 69.0628C140.421 69.4718 140.155 69.7555 139.887 69.9317C139.883 69.9317 139.883 69.9317 139.883 69.9317C139.064 70.4713 138.25 69.9992 138.331 69.0417L138.579 67.5531L138.643 67.1712L140.228 66.8853L140.659 69.0628Z" fill="#FFD4D1"/>
<path d="M140.659 69.0628C140.421 69.4718 140.156 69.7555 139.887 69.9317C139.884 69.9317 139.884 69.9317 139.884 69.9317C139.8 70.001 139.764 69.9629 139.764 69.9629C139.764 69.9629 140.583 69.2297 140.255 68.2749C140.055 67.6938 138.707 68.3374 138.579 67.5531L138.644 67.1712L140.228 66.8853L140.659 69.0628Z" fill="#F2E2E2"/>
<path d="M136.723 61.9738C136.723 61.9738 135.992 67.5797 139.083 67.6078C140.892 67.6243 141.34 65.552 141.34 65.552C141.34 65.552 142.141 65.0912 141.915 64.2932C141.671 63.432 140.967 64.2846 140.967 64.2846L140.825 61.9022C139.12 61.2009 137.94 60.7237 136.723 61.9738Z" fill="#FFD4D1"/>
<path d="M141.413 62.481C141.246 61.2007 138.687 59.8393 137.141 61.3546C136.199 62.2776 136.574 63.4513 136.574 63.4513C137.064 62.4977 137.26 62.4931 137.209 61.5633C137.209 61.5633 137.248 62.605 138.563 63.0431C139.878 63.4813 140.552 64.2958 140.547 64.7808C140.547 64.7808 141.579 63.7611 141.413 62.481Z" fill="#383A42"/>
<path d="M140.495 63.9485C140.321 63.7415 140.052 63.6301 139.799 63.5466C139.529 63.4576 139.251 63.4071 138.974 63.3473C138.438 63.2317 137.853 63.0581 137.557 62.5607C137.391 62.2825 137.317 61.9575 137.242 61.6461C137.239 61.6323 137.219 61.6381 137.221 61.6516C137.267 61.9306 137.32 62.2078 137.438 62.4671C137.549 62.7118 137.723 62.9179 137.941 63.0754C138.399 63.4049 138.992 63.4729 139.524 63.612C139.69 63.6551 139.854 63.7057 140.01 63.7757C140.161 63.8436 140.301 63.9309 140.442 64.0155C140.486 64.042 140.526 63.9848 140.495 63.9485Z" fill="#383A42"/>
<path d="M138.698 71.3945C138.698 71.3945 138.243 75.2494 137.435 77.1415C136.959 78.2586 137.415 78.9455 138.539 79.3884L135.908 79.6031C135.908 79.6031 135.866 78.8669 135.741 78.1874L138.698 71.3945ZM142.128 72.3288C142.128 72.3288 141.091 74.321 141.95 77.1403C142.49 78.9142 139.802 79.1483 139.802 79.1483L142.926 79.9212C142.926 79.9212 142.459 78.4539 142.714 77.3441C142.97 76.2344 142.128 72.3288 142.128 72.3288ZM143.722 81.6627L144.661 83.3735C144.661 83.3735 141.484 81.8105 135.757 81.2833C135.757 81.2833 135.843 80.8998 135.85 80.6787L139.325 80.619L143.722 81.6627Z" fill="#DDE9ED"/>
<path d="M145.083 81.0403C143.913 81.7627 140.651 81.637 138.52 81.2464C137.47 81.0542 136.733 80.876 136.733 80.876C134.853 80.1803 133.566 81.515 132.952 80.5536C132.477 79.8109 133.27 79.1113 133.795 78.9253C134.2 78.7812 134.729 78.7139 135.539 78.8536C136.088 78.9481 136.955 79.2869 136.955 79.2869C136.955 79.2869 137.382 79.2702 138.007 79.2393C139.76 79.1567 143.075 79.0151 143.224 79.014C144.369 79.0052 145.867 80.5567 145.083 81.0403Z" fill="#FFD4D1"/>
<path d="M138.07 81.1613C140.202 81.5524 144.064 82.0934 145.151 81.2483C145.233 81.1839 145.447 80.9647 145.528 80.8691C146.974 79.168 146.315 73.0482 145.047 71.6086C144.666 71.3362 144.11 70.9649 143.085 71.4544C142.143 71.9043 141.726 72.8 141.855 73.9667C142.047 75.7085 143.219 78.6532 143.15 78.8442C143.095 78.982 139.76 79.1571 138.006 79.2398L138.07 81.1613Z" fill="#DD5442"/>
<path d="M137.22 67.4154C137.406 68.4977 137.591 69.5804 137.776 70.6628C137.776 70.6665 137.777 70.6703 137.778 70.6739C137.785 70.7178 137.793 70.762 137.8 70.8059C137.801 70.8138 137.803 70.8219 137.804 70.8298C137.817 70.9039 137.829 70.9778 137.842 71.0519C138.013 71.1236 138.329 71.2299 138.733 71.2142C139.081 71.2006 139.352 71.1028 139.513 71.0299L139.541 70.8005L139.545 70.7683L139.558 70.6602L139.562 70.6276L139.572 70.5478L139.926 67.6518L139.96 67.3794L137.22 67.4154Z" fill="#D9875F"/>
<path d="M137.804 69.0196C137.979 70.2451 137.942 70.352 138.1 70.4986C138.484 70.8559 139.198 70.6772 139.572 70.5475L139.927 67.6515L139.933 67.5178C139.182 67.6402 138.592 67.6397 138.178 67.6124C138.079 67.6058 137.93 67.5609 137.813 67.644C137.605 67.7924 137.685 68.1831 137.804 69.0196Z" fill="#E89166"/>
<path d="M137.169 67.13C137.204 67.1295 137.24 67.1291 137.275 67.1285C137.276 67.0637 137.324 66.7856 137.563 66.6552C137.738 66.5595 137.861 66.7689 138.514 66.7603C138.829 66.7562 139.503 66.7432 139.645 66.7192C139.661 66.7164 139.716 66.7064 139.751 66.7482V66.7485C139.805 66.822 139.818 67.0348 139.821 67.0949C139.866 67.0943 139.912 67.0937 139.958 67.0931C140.026 67.127 140.063 67.198 140.052 67.265C140.038 67.3404 139.97 67.3753 139.962 67.3789C139.047 67.391 138.131 67.4029 137.215 67.415C137.153 67.3929 137.11 67.3372 137.104 67.2734C137.097 67.1874 137.164 67.1337 137.169 67.13Z" fill="#663D28"/>
<path d="M139.624 66.8138C139.643 66.8152 139.683 66.8232 139.7 66.8366C139.723 66.8546 139.738 66.8825 139.738 66.9062C139.734 67.0025 139.187 66.9936 139.085 66.9715C139.081 66.9704 139.075 66.9693 139.075 66.9693C139.002 66.9527 138.926 66.9352 138.926 66.9139C138.926 66.871 139.325 66.7919 139.624 66.8138ZM137.174 67.2015C137.174 67.2133 137.856 67.2224 138.556 67.2104C139.277 67.1978 139.973 67.1633 139.972 67.1514C139.972 67.1362 138.835 67.1563 138.595 67.1605C138.421 67.1634 137.174 67.1854 137.174 67.2015Z" fill="#724A33"/>
<path d="M138.158 68.3524C138.222 68.3359 138.36 68.3119 138.485 68.3855C138.584 68.4433 138.657 68.5252 138.657 68.5252C138.657 68.5252 138.727 68.3939 138.846 68.3502C138.969 68.3048 139.051 68.3087 139.158 68.33C139.406 68.3794 139.481 68.6602 139.439 68.8493C139.366 69.1769 138.909 69.3792 138.769 69.4365C138.763 69.4399 138.726 69.4612 138.669 69.4606C138.618 69.4602 138.585 69.4429 138.578 69.4389C138.422 69.3737 138.002 69.1789 137.923 68.8606C137.883 68.6979 137.91 68.4169 138.158 68.3524Z" fill="white"/>
<path d="M140.102 68.3132C139.862 67.5014 138.801 69.3656 137.949 69.4883C137.444 69.561 137.604 68.7551 137.346 69.0629C137.107 69.3474 137.292 70.355 137.319 70.4596C137.304 71.3374 135.314 73.1212 135.174 74.3523C135.076 75.2199 135.873 75.8581 136.589 75.6022C137.999 75.098 138.818 71.1065 138.818 71.1065C140.244 69.9429 140.537 69.7866 140.102 68.3132Z" fill="#FFD4D1"/>
<path d="M133.451 80.0212C134.332 80.5343 135.594 79.4274 136.041 78.8049C137.308 77.0462 138.075 73.8444 138.782 71.8692L137.071 70.9163C135.829 72.8522 133.258 76.2655 133.149 76.4277C132.59 77.2636 131.968 79.1569 133.451 80.0212Z" fill="#DD5442"/>
<path d="M65.1519 71.919C66.2784 72.9866 70.3585 76.2227 72.126 76.2348C73.0236 76.2415 74.7538 73.5437 76.0279 71.3166C76.7154 70.1171 77.2701 69.0534 77.4909 68.6217C77.56 68.4871 76.3073 67.5781 76.3073 67.5781L74.3245 69.9133L71.8296 72.8521C71.8296 72.8521 68.0618 69.7879 66.5176 68.9669C64.1835 67.7286 63.0334 69.9037 65.1519 71.919Z" fill="#FFD4D1"/>
<path d="M76.1653 71.3769L76.7295 70.616L75.5413 69.7032L74.9351 70.0142L75.0451 69.3525L74.8109 69.209L74.2124 70.0174L76.1653 71.3769Z" fill="white"/>
<path d="M64.9179 73.1689C65.156 73.3941 65.5496 73.6727 66.039 73.9753C67.873 75.1055 71.0594 76.541 72.4544 76.5502C72.8268 76.5528 73.3454 76.081 73.9161 75.3693C74.7246 74.3617 75.637 72.8742 76.383 71.5694C75.7271 70.9798 74.9431 70.3708 74.198 69.8088L73.1648 70.9351L71.8175 72.4038C71.8175 72.4038 71.5023 72.0653 71.0196 71.5735C70.9279 71.4803 70.8308 71.3815 70.7283 71.279C69.6231 70.1661 67.9395 68.5574 66.9634 68.0375C64.6293 66.7992 62.7994 71.1536 64.9179 73.1689Z" fill="#DD5442"/>
<path d="M66.039 73.9752C67.873 75.1055 71.0594 76.541 72.4545 76.5502C72.8268 76.5528 73.3454 76.081 73.9161 75.3693C72.5673 76.673 68.2478 74.9243 68.3519 73.6552C68.4673 72.2472 67.4053 70.4475 67.4053 70.4475L66.0788 70.5498C65.9845 70.7712 65.9272 72.4612 66.039 73.9752ZM71.5049 73.3942C71.5049 73.3942 72.7311 72.9731 73.1646 70.9351L71.8174 72.4038C71.8174 72.4038 71.5022 72.0653 71.0195 71.5735C71.2748 71.896 71.5927 72.4905 71.5049 73.3942Z" fill="#D8483D"/>
<path d="M76.1581 66.3924C76.1982 66.1622 76.3822 65.4655 76.5048 65.4039C76.8318 65.2393 76.62 65.8106 76.7345 66.1331C76.9095 66.6259 77.3398 63.87 77.9607 64.104C78.331 64.2435 77.4895 65.9024 77.9784 66.0477C78.2873 66.1396 78.9685 66.5903 78.8321 67.1109C78.6884 67.6592 78.2335 68.2913 77.9709 68.4285L76.4428 67.9707C76.2112 67.682 76.0848 66.8138 76.1581 66.3924ZM51.3679 82.148C52.406 84.6889 54.7278 88.2539 54.7278 88.2539L55.233 84.9942L54.2621 80.74L51.3679 82.148Z" fill="#FFD4D1"/>
<path d="M51.4709 82.3732L51.8839 83.4194C52.5647 83.3537 53.1892 83.1437 53.7356 82.7324L53.8587 82.0398L54.3987 82.5142C54.5269 82.5077 54.6414 82.4694 54.7274 82.3651L54.3895 81.25L51.4709 82.3732Z" fill="white"/>
<path d="M54.0878 80.0566L54.4991 81.3382C54.4897 81.3482 54.4815 81.3599 54.4721 81.3698C53.7121 82.2503 52.6259 82.4141 51.3465 82.5723C50.9417 81.6922 50.8339 80.8964 50.7622 80.3324C50.4172 77.6043 53.0452 69.5225 53.852 68.5752C54.4416 68.5664 55.1344 69.7377 55.6841 71.1556C56.0578 72.1181 56.3672 73.1933 56.5341 74.0942L54.0878 80.0566Z" fill="#DD5442"/>
<path d="M54.0878 80.0567L54.4991 81.3382C54.4897 81.3483 54.4816 81.3599 54.4721 81.3698L53.0425 79.949C54.4529 78.2485 53.392 76.2686 53.7243 71.2937L55.6843 71.1558C56.058 72.1183 56.3674 73.1935 56.5343 74.0944L54.0878 80.0567Z" fill="#D8483D"/>
<path d="M68.4077 118.712L68.5552 121.608C67.976 122.67 67.1004 122.742 66.0227 121.724L65.2026 118.661L68.4077 118.712Z" fill="#FFD4D1"/>
<path d="M68.565 121.551C68.9291 121.451 69.5617 122.539 70.1932 122.388C71.5773 122.056 72.6513 122.867 72.6513 124.317H65.9383C65.7379 124.366 65.6507 121.952 66.0229 121.724C66.2008 121.615 66.5467 122.063 67.4344 122.181C68.322 122.299 68.0591 121.675 68.565 121.551Z" fill="#2A2C33"/>
<path d="M52.618 118.712L52.4705 121.608C53.0497 122.67 53.9252 122.742 55.003 121.724L55.823 118.661L52.618 118.712Z" fill="#FFD4D1"/>
<path d="M52.4608 121.551C52.0967 121.451 51.4641 122.539 50.8326 122.388C49.4485 122.056 48.3745 122.867 48.3745 124.317H55.0875C55.2879 124.366 55.3751 121.952 55.0029 121.724C54.825 121.615 54.4791 122.063 53.5914 122.181C52.7041 122.299 52.9667 121.675 52.4608 121.551Z" fill="#2A2C33"/>
<path d="M58.0254 84.2928L59.9226 93.8161L62.1378 104.94L63.1465 110.005C63.1465 110.005 63.1478 110.011 63.1506 110.022L65.1762 120.196C66.0988 120.423 67.0665 120.467 68.0766 120.341C68.4042 120.303 68.7372 120.244 69.0744 120.169C69.0744 120.169 66.9561 85.877 66.7254 83.9331L58.0254 84.2928Z" fill="#383A42"/>
<path d="M62.1381 104.94C62.0672 101.788 61.2663 97.0848 61.9084 95.5185C63.2084 92.3475 62.2006 89.613 62.2006 89.613L59.9229 93.8159L62.1381 104.94Z" fill="#2A2C33"/>
<path d="M51.6638 120.089C52.3067 120.233 53.0164 120.324 53.7235 120.352C54.5069 120.383 55.2863 120.335 55.9633 120.196L58.3806 108.384L63.3187 84.2516C62.4616 83.6867 61.4939 83.3939 60.4374 83.2967C58.7926 83.1422 56.9351 83.4541 54.9572 83.9301L54.1369 94.3384L51.6638 120.089Z" fill="#383A42"/>
<path d="M54.1368 94.3384C55.2355 91.4111 55.4035 88.1199 56.7014 88.1336C58.4103 88.1513 59.3507 86.6603 59.3507 86.6603L60.4371 83.2967C58.7924 83.1422 56.9349 83.4541 54.957 83.9301L54.1368 94.3384ZM63.1506 110.021L65.1762 120.196C66.0988 120.423 67.0666 120.467 68.0766 120.341C65.4327 118.732 63.257 110.432 63.1506 110.021ZM53.7231 120.352C54.5066 120.383 55.2859 120.335 55.9629 120.196L58.3802 108.384C58.3802 108.384 55.6586 117.839 53.7231 120.352Z" fill="#2A2C33"/>
<path d="M54.8224 75.6102C55.2564 79.082 55.3532 82.6679 54.466 86.0794C56.1776 86.394 57.7923 86.5882 59.351 86.6607C59.7687 86.6798 60.1822 86.6909 60.5917 86.6935C60.9398 85.9741 61.1187 84.6109 61.1693 83.6165C61.6702 84.3962 61.8529 85.8523 61.8543 86.673C62.7415 86.6387 63.6163 86.5608 64.4858 86.4431C65.3743 86.3228 66.2574 86.1586 67.1433 85.9508C66.5906 83.9946 66.5689 81.1228 66.7026 78.6114C66.7039 78.5868 66.7054 78.5649 66.7067 78.5444C66.7095 78.5007 66.7122 78.4568 66.7148 78.4131C66.7162 78.383 66.7176 78.3667 66.7176 78.3667C66.9946 73.5817 67.7986 68.8243 66.5538 67.7983C66.2085 67.5138 65.6215 67.3743 64.6852 67.1315C63.7479 66.8884 62.5738 66.7602 61.752 66.7041C60.8853 66.6439 60.0104 66.8642 59.141 66.819C58.8748 66.8053 57.7051 66.9393 56.5285 67.2349C55.2537 67.5549 53.972 68.0652 53.8246 68.7806C53.5299 70.2251 53.7988 71.2605 54.1482 72.5204C54.3871 73.3792 54.6642 74.3421 54.8224 75.6102Z" fill="#DD5442"/>
<path d="M54.7437 75.7508C55.1777 79.2226 55.3533 82.6676 54.4661 86.0791C56.1777 86.3938 57.7924 86.5879 59.3511 86.6605C59.7688 86.6796 60.1823 86.6906 60.5918 86.6932C60.9399 85.9738 61.1188 84.6107 61.1694 83.6162C61.6702 84.396 61.8529 85.852 61.8544 86.6727C62.7416 86.6385 63.6164 86.5605 64.4859 86.4429C65.3744 86.3225 66.2575 86.1584 67.1434 85.9505C66.5906 83.9944 66.569 81.1226 66.7027 78.6111C66.704 78.5865 66.7055 78.5647 66.7068 78.5441C66.7095 78.5004 66.7123 78.4566 66.7149 78.4129C66.7162 78.3827 66.7177 78.3664 66.7177 78.3664C66.9947 73.5814 68.2055 69.0811 66.5539 67.7981C66.3205 67.6161 65.6503 67.3098 64.9501 67.1223C64.5898 67.0252 64.2227 66.9609 63.9019 66.9609C62.7048 69.3465 61.1175 73.929 61.1175 73.929L57.3244 67.0403C57.035 67.0649 56.717 67.1251 56.3921 67.2141C55.2006 67.5356 54.0404 68.0702 53.8 68.6968C53.2722 70.0731 53.7355 71.3689 54.0849 72.6288C54.3238 73.4876 54.5853 74.4828 54.7437 75.7508Z" fill="#DD5442"/>
<path d="M59.1252 66.9228C59.3956 67.402 59.6991 67.7354 60.0069 67.9439C60.0111 67.9439 60.0111 67.9439 60.0111 67.9439C60.9509 68.5816 61.895 68.0397 61.8118 66.9228L61.5415 65.1848L61.4708 64.7389L59.6453 64.3889L59.1252 66.9228Z" fill="#FFD4D1"/>
<path d="M59.1252 66.9229C59.3956 67.4021 59.6991 67.7355 60.0069 67.944C60.0111 67.944 60.0111 67.944 60.0111 67.944C60.0985 67.969 60.1483 67.9816 60.1483 67.9816C60.1483 67.9816 59.4563 65.9137 59.8447 65.9644C61.0773 66.1251 61.6319 65.7666 61.6319 65.7666L61.5415 65.1851L61.4708 64.7392L59.6453 64.3892L59.1252 66.9229Z" fill="#E6E6E6"/>
<path d="M61.7779 66.7052C62.2035 66.6641 62.733 66.7149 63.241 66.8597L61.9481 68.6667L60.7769 68.2808L59.6197 68.7804L57.6948 66.9972C58.1201 66.8568 58.705 66.8 59.1252 66.8215C59.1252 66.8215 59.6997 68.0846 60.7145 68.0846C61.7294 68.0846 61.7779 66.7052 61.7779 66.7052ZM67.1431 85.9508C66.5903 83.9946 66.5687 81.1228 66.7024 78.6114C66.6274 79.7099 66.2164 84.5802 64.4856 86.4433C65.3742 86.323 66.2573 86.1588 67.1431 85.9508Z" fill="#D8483D"/>
<path d="M58.2332 63.4158C58.2332 63.4158 58.2692 63.5255 58.3462 63.6962H58.3477C58.6731 64.4131 59.7183 66.1992 61.7735 65.3429C63.5341 64.6089 63.5584 61.7272 63.3271 60.0449C62.6171 60.6506 61.1235 60.4028 60.1494 60.1931C58.8525 59.9127 58.083 61.7562 58.083 61.7562C58.083 61.7562 57.4766 61.3741 57.2698 62.0094C56.9259 63.0654 58.2332 63.4158 58.2332 63.4158Z" fill="#FFD4D1"/>
<path d="M63.8534 58.709C64.1035 59.1275 64.2855 60.4599 63.0029 60.738C61.7236 61.0153 60.6014 60.5502 60.2374 60.2616C59.8735 59.9731 60.1733 61.2466 59.1623 62.0698C59.1623 62.0698 59.0622 61.7624 58.9674 61.6229C58.9674 61.6229 58.9358 62.3288 58.3207 62.8782C58.3245 62.5766 58.2456 62.2627 57.7693 61.7808C57.4194 61.739 57.2748 61.9911 57.2106 62.1541C57.2106 62.1541 56.3167 59.2641 57.7462 58.5445C57.7462 58.5445 57.8582 58.1757 57.5458 58.092C57.5458 58.092 57.9803 58.0324 58.2521 58.3301C58.2521 58.3301 58.3142 57.9996 58.0973 57.7517C58.3816 57.6893 58.6668 57.8695 58.8388 58.1161C59.0069 58.3575 62.7657 56.8898 63.8534 58.709Z" fill="#383A42"/>
<path d="M76.2246 64.1855C76.4531 65.4901 76.6807 66.7951 76.9088 68.0997C76.9092 68.1041 76.9102 68.1087 76.9111 68.113C76.9201 68.1658 76.9297 68.2192 76.9387 68.272C76.9406 68.2815 76.942 68.2914 76.9439 68.3009C76.9596 68.3903 76.9749 68.4792 76.9906 68.5686C77.1976 68.6544 77.5789 68.7811 78.0663 68.7606C78.4853 68.7428 78.8118 68.6237 79.006 68.5351L79.0384 68.2583L79.0429 68.2195L79.0583 68.0891L79.0632 68.0498L79.0746 67.9535L79.49 64.4592L79.5292 64.1306L76.2246 64.1855Z" fill="#D97C4E"/>
<path d="M76.9363 66.1186C77.1526 67.5958 77.1082 67.725 77.2991 67.9011C77.7642 68.3304 78.6245 68.1117 79.0746 67.9538L79.49 64.4596L79.4969 64.2983C78.5916 64.4492 77.8808 64.4511 77.3811 64.4198C77.261 64.4124 77.0816 64.3589 76.9409 64.4594C76.6902 64.6393 76.7883 65.11 76.9363 66.1186Z" fill="#E89166"/>
<path d="M76.1623 63.8422C76.205 63.8414 76.2476 63.8407 76.2903 63.84C76.2915 63.7619 76.3477 63.4263 76.6354 63.268C76.8463 63.1519 76.995 63.4039 77.7835 63.3906C78.1627 63.3843 78.9755 63.3657 79.1465 63.3363C79.166 63.3329 79.2321 63.3205 79.2755 63.3708V63.3712C79.3401 63.4598 79.3567 63.7163 79.3602 63.7887C79.4156 63.7878 79.4709 63.7868 79.5263 63.7859C79.608 63.8266 79.6534 63.9119 79.6396 63.9929C79.624 64.084 79.541 64.1262 79.532 64.1306C78.4278 64.1489 77.3236 64.1674 76.2194 64.1858C76.1443 64.1593 76.0915 64.0924 76.085 64.0155C76.0758 63.9117 76.1563 63.8467 76.1623 63.8422Z" fill="#663D28"/>
<path d="M79.1214 63.4501C79.1442 63.4517 79.1928 63.4612 79.2131 63.4772C79.2405 63.4989 79.2596 63.5324 79.2588 63.5611C79.2551 63.6772 78.5951 63.6689 78.4723 63.6427C78.4666 63.6415 78.4604 63.6401 78.4604 63.6401C78.3723 63.6204 78.2797 63.5997 78.2797 63.5739C78.2799 63.5221 78.7605 63.4251 79.1214 63.4501ZM76.1687 63.928C76.1688 63.9422 76.9914 63.9505 77.835 63.9328C78.7051 63.9146 79.5435 63.8701 79.5432 63.8556C79.5426 63.8374 78.172 63.8664 77.8825 63.8725C77.672 63.8771 76.1686 63.9088 76.1687 63.928Z" fill="#724A33"/>
<path d="M77.3605 65.3124C77.4365 65.2923 77.6038 65.2627 77.755 65.3508C77.874 65.4202 77.9626 65.5186 77.9626 65.5186C77.9626 65.5186 78.0458 65.3601 78.1893 65.3068C78.338 65.2515 78.4365 65.2558 78.5655 65.281C78.8653 65.3396 78.9566 65.678 78.9066 65.9061C78.82 66.3014 78.27 66.5475 78.1018 66.6171C78.0947 66.6213 78.0502 66.6471 77.9807 66.6467C77.9191 66.6464 77.8801 66.6257 77.8716 66.6209C77.6828 66.5428 77.1751 66.3097 77.0788 65.9262C77.0297 65.7304 77.0617 65.3913 77.3605 65.3124Z" fill="#6E3C20"/>
<path d="M79.4843 67.0025C79.5945 66.4794 79.5128 66.0191 79.3019 65.9745C79.0909 65.9299 78.8305 66.3177 78.7203 66.8409C78.6101 67.364 78.6918 67.8243 78.9027 67.8689C79.1137 67.9136 79.3741 67.5257 79.4843 67.0025Z" fill="#FFD4D1"/>
<path d="M76.6268 65.328C76.3647 65.2977 76.2246 66.1003 76.2246 66.1003L76.637 66.544C76.637 66.544 76.889 65.3583 76.6268 65.328Z" fill="#FFD4D1"/>
<path d="M93.2823 119.17C91.5078 123.107 88.4574 125.651 86.1407 125.285C86.1384 125.284 86.1359 125.284 86.1336 125.283C85.6348 125.197 85.4426 124.556 85.7667 124.087C88.5648 120.045 86.8148 115.768 91.7348 109.609C91.9409 109.351 92.2674 109.257 92.5341 109.377L92.5387 109.38C94.9038 110.45 95.2368 114.834 93.2823 119.17Z" fill="#6E4229"/>
<path d="M92.5389 109.38L92.5342 109.378C92.496 109.36 92.4563 109.349 92.4162 109.34C94.5986 110.675 94.5918 115.047 92.3783 119.187C90.5615 122.584 87.8175 124.778 85.637 124.809C85.7028 125.048 85.8774 125.239 86.1339 125.283C86.1364 125.284 86.1387 125.284 86.141 125.285C88.4577 125.651 91.5081 123.107 93.2826 119.17C95.2368 114.834 94.9038 110.451 92.5389 109.38Z" fill="#441D07"/>
<path d="M86.6046 122.602C86.5772 122.662 86.5492 122.722 86.521 122.782L86.5149 122.796C86.4863 122.854 86.4572 122.914 86.4272 122.973C86.3658 123.097 86.3002 123.221 86.2306 123.343C86.1618 123.467 86.0889 123.589 86.0124 123.713C85.9751 123.774 85.9354 123.835 85.8957 123.896C85.856 123.957 85.8155 124.017 85.773 124.077C85.7735 124.079 85.7722 124.079 85.7716 124.08C85.5027 124.469 85.0451 124.605 84.6893 124.449C84.5873 124.404 84.493 124.335 84.4141 124.242C84.4087 124.234 84.4036 124.228 84.3995 124.222C83.0492 122.464 83.1081 118.863 84.7171 115.293C86.3624 111.643 89.1031 109.19 91.341 109.143L91.4241 109.141C91.5481 109.14 91.643 109.208 91.6926 109.306C91.7533 109.427 91.7458 109.593 91.6414 109.727C91.6405 109.729 91.6391 109.729 91.6382 109.731C91.5996 109.781 91.5605 109.831 91.5228 109.88C91.4456 109.978 91.3702 110.077 91.2984 110.175C91.2635 110.221 91.2286 110.266 91.1955 110.313C91.1219 110.413 91.0497 110.512 90.9808 110.611C90.9459 110.659 90.9124 110.707 90.8797 110.755C90.8456 110.803 90.8121 110.851 90.7808 110.898C90.7483 110.946 90.7156 110.994 90.6843 111.042C90.6522 111.088 90.6209 111.136 90.5897 111.183C90.5627 111.224 90.5365 111.264 90.5109 111.304C90.497 111.326 90.4834 111.346 90.4708 111.367C90.4195 111.446 90.3691 111.526 90.3201 111.606C90.2342 111.745 90.1505 111.884 90.0701 112.021C90.043 112.066 90.0167 112.112 89.9906 112.158C89.9644 112.204 89.9382 112.25 89.9134 112.295C89.8877 112.34 89.8624 112.386 89.8377 112.431C89.8128 112.477 89.7881 112.522 89.7647 112.567C89.6678 112.747 89.5765 112.926 89.4887 113.103C88.8022 114.494 88.404 115.783 88.105 117.001C88.0341 117.29 87.9692 117.576 87.9072 117.858C87.8662 118.046 87.8262 118.233 87.7862 118.417C87.7665 118.509 87.7471 118.601 87.728 118.693C87.6899 118.875 87.6512 119.056 87.6127 119.236C87.5929 119.327 87.5742 119.417 87.554 119.506C87.514 119.685 87.4746 119.863 87.4329 120.039C87.2251 120.92 86.9796 121.77 86.6046 122.602Z" fill="#875132"/>
<path d="M86.6047 122.601C86.372 123.117 86.0952 123.613 85.7732 124.077C85.5075 124.468 85.0453 124.605 84.6895 124.449C87.4794 119.606 87.1246 113.159 91.6927 109.305C91.8568 109.626 91.4574 109.916 91.2985 110.175C90.612 111.089 89.9953 112.072 89.4887 113.103C87.8209 116.307 87.9414 119.417 86.6047 122.601Z" fill="#441D07"/>
<path d="M121.435 129.348C125.706 131.175 129.976 130.965 131.547 128.982C131.549 128.98 131.55 128.978 131.552 128.976C131.885 128.544 131.571 127.894 130.973 127.76C125.813 126.596 124.092 121.925 115.71 120.632C115.359 120.578 115.032 120.742 114.908 121.033L114.906 121.038C113.808 123.614 116.732 127.335 121.435 129.348Z" fill="#6E4229"/>
<path d="M114.906 121.038L114.908 121.033C114.926 120.991 114.949 120.953 114.974 120.917C114.214 123.57 117.398 127.033 122.165 128.7C126.076 130.068 129.849 129.805 131.601 128.237C131.722 128.474 131.723 128.754 131.552 128.976C131.55 128.978 131.548 128.98 131.547 128.982C129.976 130.965 125.706 131.174 121.435 129.347C116.732 127.335 113.808 123.614 114.906 121.038Z" fill="#441D07"/>
<path d="M129.228 127.192C129.293 127.22 129.359 127.247 129.425 127.274L129.44 127.281C129.505 127.306 129.572 127.332 129.638 127.357C129.777 127.411 129.919 127.461 130.064 127.508C130.208 127.555 130.355 127.599 130.505 127.641C130.579 127.662 130.655 127.682 130.731 127.701C130.807 127.721 130.883 127.739 130.961 127.756C130.961 127.757 130.963 127.757 130.964 127.757C131.46 127.869 131.922 127.643 132.09 127.259C132.139 127.149 132.163 127.025 132.158 126.893C132.157 126.883 132.156 126.875 132.156 126.867C131.948 124.486 129.282 121.672 125.41 120.015C121.451 118.321 117.493 118.377 115.683 119.974L115.616 120.034C115.517 120.123 115.491 120.247 115.523 120.36C115.563 120.501 115.69 120.627 115.87 120.657C115.872 120.658 115.873 120.657 115.876 120.658C115.942 120.669 116.009 120.68 116.075 120.692C116.208 120.713 116.339 120.737 116.468 120.762C116.529 120.773 116.589 120.784 116.65 120.796C116.781 120.822 116.91 120.848 117.037 120.876C117.1 120.889 117.161 120.902 117.222 120.916C117.284 120.93 117.345 120.943 117.404 120.958C117.465 120.972 117.526 120.986 117.585 121.001C117.645 121.015 117.704 121.03 117.763 121.044C117.814 121.057 117.864 121.07 117.914 121.083C117.94 121.09 117.966 121.096 117.991 121.103C118.09 121.129 118.188 121.155 118.285 121.183C118.454 121.231 118.621 121.28 118.785 121.33C118.839 121.346 118.893 121.363 118.947 121.38C119.002 121.398 119.056 121.415 119.108 121.433C119.161 121.449 119.215 121.468 119.268 121.486C119.32 121.503 119.373 121.521 119.424 121.539C119.632 121.612 119.834 121.687 120.033 121.764C121.589 122.366 122.842 123.098 123.965 123.845C124.232 124.023 124.491 124.202 124.745 124.38C124.915 124.5 125.082 124.618 125.247 124.735C125.33 124.794 125.412 124.853 125.494 124.912C125.657 125.028 125.819 125.144 125.981 125.259C126.062 125.316 126.143 125.374 126.224 125.43C126.385 125.543 126.546 125.655 126.707 125.764C127.512 126.311 128.326 126.806 129.228 127.192Z" fill="#875132"/>
<path d="M129.228 127.192C129.787 127.431 130.367 127.623 130.961 127.756C131.456 127.872 131.922 127.643 132.09 127.259C126.355 125.455 121.949 120.081 115.523 120.361C115.626 120.735 116.153 120.673 116.468 120.762C117.677 120.986 118.881 121.316 120.033 121.764C123.686 123.087 125.852 125.642 129.228 127.192Z" fill="#441D07"/>
<path d="M90.8794 126.034C90.8879 126.059 90.899 126.083 90.9043 126.11C90.915 126.164 90.9192 126.22 90.915 126.277C90.9118 126.321 90.9044 126.366 90.8915 126.412C90.8895 126.414 90.8886 126.417 90.8897 126.419C90.796 126.736 90.6483 127.043 90.4496 127.336C90.1646 127.774 89.7722 128.184 89.294 128.559C88.7747 128.966 88.155 129.333 87.4495 129.646C85.7948 130.391 83.6827 130.851 81.3915 130.874C77.0984 130.918 73.5011 129.426 72.3668 127.333C72.1086 126.868 71.9767 126.37 71.9877 125.854L71.9896 125.848C71.9892 125.818 71.9941 125.787 71.999 125.757C72.0005 125.745 72.003 125.73 72.0089 125.715L72.0078 125.713C72.0684 125.452 72.2948 125.23 72.5986 125.151C72.6524 125.136 72.7075 125.123 72.7602 125.111L72.7623 125.11C72.7623 125.11 72.7644 125.108 72.7676 125.109C72.8118 125.097 72.8553 125.088 72.8992 125.077C72.9236 125.071 72.9477 125.064 72.9714 125.058C73.0134 125.047 73.0554 125.036 73.0986 125.027C73.1083 125.025 73.1179 125.022 73.1277 125.019C73.1428 125.015 73.1579 125.012 73.173 125.008C73.23 124.994 73.2851 124.981 73.3402 124.968C73.4136 124.952 73.4858 124.934 73.5572 124.92C73.6252 124.905 73.691 124.891 73.759 124.876C73.8262 124.864 73.892 124.85 73.958 124.836C74.0218 124.823 74.0856 124.81 74.1493 124.798C74.2022 124.786 74.2541 124.777 74.3061 124.769C74.317 124.768 74.3288 124.764 74.3397 124.763C74.4035 124.75 74.4651 124.739 74.5279 124.729C74.8689 124.669 75.2132 124.615 75.5563 124.573C75.6366 124.565 75.7158 124.554 75.7961 124.545C75.8241 124.54 75.8548 124.538 75.884 124.535C75.9283 124.528 75.9719 124.524 76.0176 124.519C76.0599 124.514 76.1033 124.51 76.1448 124.508C76.1632 124.505 76.1815 124.503 76.2 124.5C76.2379 124.497 76.2795 124.495 76.3174 124.492C76.4304 124.48 76.5424 124.472 76.6513 124.463C76.6905 124.462 76.7308 124.458 76.77 124.457C76.8964 124.449 77.0238 124.443 77.1511 124.436C77.1674 124.435 77.1838 124.434 77.2013 124.434C78.3378 124.386 79.3697 124.445 80.3302 124.558C80.4434 124.571 80.5544 124.585 80.6666 124.602C80.7062 124.606 80.747 124.613 80.7877 124.619C80.7887 124.616 80.7899 124.618 80.7899 124.618C80.9318 124.636 81.0694 124.657 81.2069 124.678C81.2851 124.69 81.3633 124.702 81.4405 124.717C81.5252 124.73 81.6112 124.746 81.6961 124.759C82.0136 124.815 82.3236 124.872 82.6291 124.932L82.6458 124.936C82.7263 124.952 82.8082 124.97 82.8875 124.984C83.0134 125.009 83.1371 125.036 83.2596 125.06C83.3601 125.081 83.4606 125.101 83.5609 125.122C83.7486 125.161 83.9308 125.199 84.1173 125.236C84.1305 125.239 84.1461 125.241 84.1592 125.244C84.2596 125.265 84.3568 125.285 84.4561 125.303C84.4814 125.308 84.5047 125.314 84.53 125.318C84.5311 125.32 84.5311 125.32 84.5311 125.32C84.6018 125.333 84.6757 125.348 84.7464 125.361C84.7464 125.361 84.7484 125.36 84.7518 125.361C84.775 125.367 84.797 125.37 84.8202 125.376C84.852 125.382 84.8875 125.389 84.9215 125.393C84.9282 125.395 84.9369 125.395 84.9435 125.397C84.9768 125.405 85.0108 125.41 85.0427 125.416C85.4099 125.483 85.7746 125.541 86.1419 125.59C86.1519 125.592 86.1586 125.594 86.1671 125.594C86.275 125.608 86.3827 125.622 86.4913 125.632C86.567 125.64 86.6429 125.648 86.7174 125.653C86.7186 125.655 86.7186 125.655 86.7208 125.654C86.7725 125.66 86.8241 125.665 86.8766 125.667C87.108 125.688 87.3414 125.702 87.5787 125.709C87.7164 125.71 87.8542 125.712 87.9927 125.71C88.1489 125.709 88.3048 125.703 88.4626 125.695C88.5257 125.691 88.5867 125.688 88.65 125.684C88.6575 125.683 88.6684 125.682 88.6792 125.681C88.6845 125.68 88.6901 125.68 88.6954 125.679C88.7672 125.676 88.8401 125.669 88.9097 125.661C88.9966 125.654 89.0845 125.643 89.1725 125.633C89.2462 125.622 89.3212 125.614 89.3969 125.603C89.4447 125.597 89.4946 125.589 89.5411 125.581C89.5671 125.577 89.5951 125.572 89.6212 125.567L89.6245 125.568C89.6819 125.559 89.7403 125.547 89.7964 125.536C89.8183 125.534 89.8409 125.529 89.8614 125.525C89.8669 125.525 89.869 125.523 89.8745 125.523C90.1755 125.465 90.4581 125.549 90.6538 125.711C90.6543 125.71 90.655 125.709 90.6553 125.708C90.6701 125.72 90.6812 125.736 90.6948 125.748C90.7182 125.771 90.7421 125.792 90.762 125.817C90.7771 125.835 90.7883 125.856 90.8014 125.875C90.8188 125.902 90.8377 125.927 90.8512 125.955C90.864 125.98 90.8706 126.007 90.8794 126.034Z" fill="#6E4229"/>
<path d="M90.915 126.277C90.9118 126.32 90.9044 126.366 90.8915 126.412C90.8895 126.413 90.8886 126.417 90.8897 126.419C90.796 126.735 90.6483 127.043 90.4496 127.336C90.1646 127.773 89.7722 128.183 89.294 128.558C88.7747 128.965 88.155 129.333 87.4495 129.646C85.7948 130.391 83.6827 130.851 81.3915 130.874C77.0984 130.918 73.5011 129.426 72.3668 127.333C72.1086 126.868 71.9767 126.37 71.9877 125.854L71.9896 125.848C71.9892 125.818 71.9941 125.787 71.999 125.757C72.0005 125.745 72.003 125.73 72.0089 125.715C72.0621 126.229 72.2567 126.712 72.575 127.158C73.9506 129.104 77.6242 130.303 81.8393 129.98C82.8259 129.904 83.7689 129.748 84.6521 129.529C85.4413 129.335 86.1796 129.088 86.8548 128.801C86.9157 128.773 86.9764 128.746 87.0373 128.718C88.7802 127.944 90.0752 126.882 90.6559 125.708C90.827 125.85 90.9316 126.053 90.915 126.277Z" fill="#441D07"/>
<path d="M87.9936 125.709C88.0668 125.709 88.1401 125.707 88.2133 125.705L88.2298 125.705C88.3017 125.702 88.3751 125.699 88.4484 125.695C88.6013 125.688 88.7555 125.676 88.9111 125.66C89.0667 125.646 89.2236 125.626 89.3832 125.604C89.4617 125.593 89.5415 125.58 89.6213 125.568C89.7011 125.555 89.7809 125.541 89.8608 125.525C89.862 125.526 89.8633 125.525 89.8646 125.525C90.3805 125.426 90.7335 125.029 90.7475 124.606C90.7512 124.484 90.7274 124.36 90.6719 124.24C90.6669 124.231 90.6634 124.224 90.6598 124.217C89.5504 122.101 85.9326 120.586 81.6078 120.631C77.1857 120.678 73.4355 122.341 72.3223 124.554L72.2815 124.636C72.2208 124.759 72.2434 124.884 72.3172 124.976C72.4095 125.09 72.5785 125.155 72.7612 125.109C72.7637 125.109 72.765 125.108 72.7676 125.108C72.8349 125.09 72.9034 125.073 72.9707 125.057C73.1053 125.023 73.2397 124.991 73.3716 124.962C73.4338 124.948 73.4958 124.933 73.558 124.92C73.6925 124.89 73.8256 124.862 73.9574 124.836C74.0221 124.822 74.0855 124.809 74.1489 124.798C74.2135 124.785 74.2769 124.773 74.339 124.762C74.4024 124.75 74.4657 124.739 74.5278 124.728C74.5898 124.717 74.6519 124.706 74.7141 124.696C74.7673 124.686 74.8205 124.678 74.8724 124.67C74.9003 124.665 74.9269 124.661 74.9535 124.657C75.0574 124.641 75.1612 124.625 75.2638 124.611C75.4436 124.586 75.6221 124.564 75.7968 124.543C75.8551 124.536 75.9132 124.53 75.9714 124.524C76.0295 124.518 76.0878 124.512 76.1446 124.507C76.2016 124.501 76.2597 124.496 76.3167 124.491C76.3737 124.486 76.4305 124.481 76.4862 124.477C76.7125 124.459 76.9337 124.446 77.1523 124.436C78.8658 124.359 80.3406 124.525 81.6966 124.759C82.0185 124.814 82.3342 124.874 82.6447 124.936C82.8521 124.977 83.057 125.019 83.2593 125.059C83.3612 125.08 83.4617 125.101 83.5622 125.122C83.7621 125.163 83.9606 125.204 84.1593 125.244C84.2586 125.264 84.358 125.285 84.456 125.304C84.6534 125.342 84.8494 125.38 85.0445 125.415C86.0217 125.593 86.986 125.72 87.9936 125.709Z" fill="#875132"/>
<path d="M87.9939 125.709C88.6186 125.703 89.2447 125.643 89.8612 125.525C90.3774 125.431 90.7343 125.029 90.7478 124.606C84.5913 125.273 78.3342 122.101 72.3174 124.976C72.5589 125.28 73.0379 125.008 73.3717 124.963C74.6101 124.677 75.8832 124.491 77.1523 124.436C81.1404 124.172 84.1829 125.652 87.9939 125.709Z" fill="#441D07"/>
<path d="M119.231 128.045C122.871 125.507 124.866 121.939 124.061 119.659C124.06 119.657 124.06 119.655 124.059 119.652C123.878 119.163 123.195 119.089 122.783 119.505C119.228 123.099 114.585 122.128 109.292 128.27C109.071 128.527 109.038 128.876 109.209 129.124L109.212 129.128C110.736 131.324 115.223 130.839 119.231 128.045Z" fill="#6E4229"/>
<path d="M109.212 129.128L109.209 129.124C109.185 129.088 109.165 129.05 109.149 129.011C110.906 130.973 115.316 130.145 119.078 127.125C122.165 124.647 123.865 121.454 123.487 119.238C123.74 119.26 123.966 119.401 124.059 119.653C124.059 119.655 124.06 119.657 124.061 119.66C124.866 121.939 122.871 125.508 119.231 128.045C115.222 130.839 110.736 131.324 109.212 129.128Z" fill="#441D07"/>
<path d="M121.441 120.633C121.497 120.594 121.552 120.554 121.607 120.514L121.619 120.506C121.673 120.466 121.728 120.425 121.782 120.383C121.896 120.298 122.008 120.208 122.119 120.115C122.23 120.022 122.34 119.925 122.45 119.824C122.505 119.775 122.559 119.723 122.613 119.671C122.668 119.62 122.721 119.567 122.774 119.513C122.775 119.513 122.776 119.512 122.777 119.511C123.119 119.166 123.17 118.676 122.945 118.345C122.881 118.25 122.793 118.167 122.684 118.105C122.676 118.101 122.669 118.097 122.662 118.094C120.635 117.055 117.011 117.79 113.711 120.091C110.337 122.443 108.376 125.681 108.748 127.958L108.762 128.043C108.784 128.169 108.87 128.252 108.978 128.284C109.112 128.323 109.278 128.284 109.394 128.153C109.396 128.152 109.396 128.15 109.398 128.149C109.44 128.101 109.483 128.052 109.526 128.004C109.61 127.907 109.696 127.812 109.782 127.721C109.821 127.677 109.861 127.633 109.901 127.591C109.988 127.498 110.075 127.406 110.162 127.317C110.204 127.273 110.246 127.23 110.288 127.188C110.331 127.144 110.372 127.101 110.414 127.061C110.457 127.019 110.499 126.977 110.541 126.936C110.582 126.895 110.624 126.854 110.666 126.814C110.702 126.779 110.738 126.745 110.773 126.711C110.792 126.693 110.81 126.675 110.829 126.659C110.899 126.592 110.971 126.526 111.042 126.461C111.166 126.348 111.291 126.237 111.414 126.13C111.455 126.094 111.496 126.059 111.537 126.024C111.579 125.988 111.62 125.953 111.661 125.92C111.702 125.885 111.744 125.851 111.785 125.817C111.826 125.784 111.867 125.75 111.907 125.718C112.072 125.586 112.234 125.46 112.397 125.338C113.672 124.381 114.898 123.735 116.07 123.204C116.349 123.078 116.625 122.959 116.898 122.843C117.08 122.766 117.261 122.69 117.439 122.615C117.529 122.578 117.618 122.541 117.707 122.505C117.883 122.432 118.059 122.359 118.234 122.286C118.321 122.249 118.409 122.213 118.495 122.175C118.668 122.101 118.84 122.028 119.01 121.953C119.86 121.577 120.672 121.169 121.441 120.633Z" fill="#875132"/>
<path d="M121.441 120.633C121.917 120.301 122.366 119.927 122.774 119.513C123.119 119.171 123.17 118.677 122.946 118.345C118.582 122.082 112.01 122.932 108.979 128.284C109.333 128.391 109.55 127.931 109.782 127.722C110.576 126.855 111.452 126.045 112.397 125.338C115.317 123.047 118.478 122.585 121.441 120.633Z" fill="#441D07"/>
<path d="M55.4153 44.4634C54.8663 43.9013 53.8396 43.6947 53.055 44.1938C52.2142 44.7287 52.1524 45.8095 52.1472 45.9336C52.1599 45.9763 52.1727 46.0188 52.1855 46.0615C52.172 46.0191 52.1583 45.9767 52.1448 45.9342C52.0729 45.8332 51.4309 44.9626 50.435 44.9761C49.5058 44.9888 48.7593 45.725 48.6069 46.4965C48.3277 47.9101 50.1273 49.0194 50.3309 49.145C51.5488 49.8956 52.8064 49.7043 53.2535 49.6088C53.263 49.6067 53.272 49.6048 53.2809 49.6028C53.2918 49.5984 53.3032 49.5936 53.3153 49.5887C53.7384 49.413 54.8319 48.8774 55.4189 47.6254C55.523 47.4041 56.4198 45.4918 55.4153 44.4634ZM43.0838 33.9248C42.6503 33.6479 41.9649 33.6687 41.5383 34.1037C41.0812 34.5699 41.2017 35.2685 41.2168 35.3484C41.2313 35.3737 41.2457 35.3989 41.2603 35.4243C41.2453 35.3992 41.2305 35.3742 41.2155 35.3491C41.1546 35.2954 40.6162 34.8355 39.9829 34.9922C39.3921 35.1385 39.0248 35.7191 39.0418 36.2339C39.0729 37.1772 40.3851 37.6173 40.5335 37.6671C41.4216 37.9648 42.1956 37.6559 42.4665 37.5284C42.4722 37.5258 42.4777 37.5232 42.4831 37.5205C42.4893 37.5162 42.496 37.5114 42.503 37.5064C42.7469 37.3315 43.365 36.8272 43.5543 35.9412C43.5877 35.7848 43.8768 34.4316 43.0838 33.9248ZM54.6154 33.6726C54.4545 33.4438 54.1054 33.3125 53.8013 33.4431C53.4755 33.583 53.3923 33.9593 53.3833 34.0026C53.3854 34.0183 53.3875 34.034 53.3896 34.0498C53.3873 34.034 53.3849 34.0184 53.3825 34.0027C53.363 33.9631 53.1868 33.6205 52.8361 33.5683C52.5089 33.5197 52.2047 33.7357 52.1072 33.9982C51.9287 34.479 52.498 34.9717 52.5624 35.0273C52.9477 35.3606 53.4005 35.3653 53.5631 35.3573C53.5666 35.3571 53.5698 35.357 53.573 35.3567C53.5771 35.3558 53.5814 35.3548 53.5859 35.3536C53.7447 35.316 54.1593 35.1903 54.4368 34.7839C54.4859 34.7122 54.9099 34.0914 54.6154 33.6726ZM160.427 59.2946C160.976 58.7325 162.002 58.526 162.787 59.025C163.628 59.5599 163.69 60.6407 163.695 60.7649C163.682 60.8075 163.669 60.8501 163.656 60.8927C163.67 60.8504 163.684 60.808 163.697 60.7654C163.769 60.6645 164.411 59.7938 165.407 59.8074C166.336 59.8201 167.083 60.5563 167.235 61.3277C167.514 62.7414 165.715 63.8506 165.511 63.9762C164.293 64.7268 163.036 64.5356 162.589 64.44C162.579 64.438 162.57 64.4361 162.561 64.434C162.55 64.4297 162.539 64.425 162.527 64.4199C162.104 64.2442 161.01 63.7086 160.423 62.4566C160.319 62.2355 159.422 60.3232 160.427 59.2946ZM173.044 48.3831C173.477 48.1062 174.163 48.127 174.589 48.562C175.046 49.0283 174.926 49.7269 174.911 49.8067C174.896 49.8321 174.882 49.8573 174.867 49.8826C174.882 49.8575 174.897 49.8325 174.912 49.8074C174.973 49.7537 175.511 49.2938 176.145 49.4506C176.735 49.5968 177.103 50.1774 177.086 50.6922C177.055 51.6355 175.742 52.0756 175.594 52.1254C174.706 52.4232 173.932 52.1142 173.661 51.9867C173.655 51.9841 173.65 51.9815 173.644 51.9789C173.638 51.9745 173.632 51.9697 173.625 51.9647C173.381 51.7898 172.763 51.2855 172.573 50.3996C172.54 50.2431 172.251 48.8899 173.044 48.3831ZM162.39 47.6268C162.551 47.398 162.9 47.2667 163.204 47.3973C163.53 47.5372 163.613 47.9135 163.622 47.9568C163.62 47.9725 163.618 47.9882 163.616 48.004C163.618 47.9882 163.621 47.9726 163.623 47.9569C163.643 47.9173 163.819 47.5747 164.169 47.5225C164.497 47.4739 164.801 47.6899 164.898 47.9524C165.077 48.4332 164.507 48.9259 164.443 48.9815C164.058 49.3148 163.605 49.3195 163.442 49.3114C163.439 49.3113 163.436 49.3112 163.432 49.3109C163.428 49.31 163.424 49.309 163.419 49.3078C163.261 49.2702 162.846 49.1445 162.569 48.7381C162.52 48.6663 162.096 48.0456 162.39 47.6268Z" fill="#F2877A"/>
</svg>
