<svg xmlns="http://www.w3.org/2000/svg" width="14.172" height="12.4" viewBox="0 0 14.172 12.4">
  <path id="car-solid_1_" data-name="car-solid (1)" d="M1.1,36.562l.974-2.782A2.656,2.656,0,0,1,4.578,32H9.594A2.657,2.657,0,0,1,12.1,33.779l.974,2.782a1.775,1.775,0,0,1,1.1,1.639v5.314a.885.885,0,0,1-.886.886H12.4a.885.885,0,0,1-.886-.886V42.186H2.657v1.329a.885.885,0,0,1-.886.886H.886A.885.885,0,0,1,0,43.515V38.2a1.773,1.773,0,0,1,1.1-1.639Zm1.923-.133h8.132l-.722-2.065a.886.886,0,0,0-.836-.592H4.578a.886.886,0,0,0-.836.592ZM2.657,38.2a.886.886,0,1,0,.886.886A.885.885,0,0,0,2.657,38.2Zm8.857,1.771a.886.886,0,1,0-.886-.886A.885.885,0,0,0,11.515,39.972Z" transform="translate(0 -32)" fill="#929292"/>
</svg>
