<svg xmlns="http://www.w3.org/2000/svg" width="74.446" height="67" viewBox="0 0 74.446 67">
  <path id="quote_1_" data-name="quote (1)" d="M10.444,3A7.444,7.444,0,0,0,3,10.444V28.624a7.444,7.444,0,0,0,7.444,7.444H20.777a67.642,67.642,0,0,1-.462,7.846A26.12,26.12,0,0,1,18.008,51.3a13.721,13.721,0,0,1-4.161,5.085,9.857,9.857,0,0,1-6.462,2.077V70A22.439,22.439,0,0,0,18.7,67.231a24.73,24.73,0,0,0,8.077-7.385,36.627,36.627,0,0,0,4.616-10.854,57.412,57.412,0,0,0,1.385-12.924V10.444A7.444,7.444,0,0,0,25.333,3ZM55.111,3a7.444,7.444,0,0,0-7.444,7.444V28.624a7.444,7.444,0,0,0,7.444,7.444H65.444a67.643,67.643,0,0,1-.462,7.846A26.121,26.121,0,0,1,62.674,51.3a13.721,13.721,0,0,1-4.161,5.085,9.857,9.857,0,0,1-6.462,2.077V70a22.439,22.439,0,0,0,11.316-2.769,24.73,24.73,0,0,0,8.077-7.385A36.626,36.626,0,0,0,76.06,48.992a57.412,57.412,0,0,0,1.385-12.924V10.444A7.444,7.444,0,0,0,70,3Z" transform="translate(-3 -3)" fill="#0b162d" opacity="0.1"/>
</svg>
