<svg xmlns="http://www.w3.org/2000/svg" width="19.824" height="22.656" viewBox="0 0 19.824 22.656">
  <path id="toilet-solid" d="M19.116,2.124a.712.712,0,0,0,.708-.708V.708A.712.712,0,0,0,19.116,0H.708A.713.713,0,0,0,0,.708v.708a.713.713,0,0,0,.708.708h.708V9.147A2.777,2.777,0,0,0,0,11.328a8.164,8.164,0,0,0,3.721,6.655l-.867,2.848a1.456,1.456,0,0,0,1.395,1.825H15.573a1.414,1.414,0,0,0,1.355-1.825l-.865-2.848a8.161,8.161,0,0,0,3.761-6.655,2.825,2.825,0,0,0-1.416-2.18V2.124ZM4.248,3.186A.357.357,0,0,1,4.6,2.832H6.726a.356.356,0,0,1,.354.354v.708a.356.356,0,0,1-.354.354H4.6a.356.356,0,0,1-.354-.354Zm5.664,9.558c-3.912,0-7.08-.633-7.08-1.416S6,9.912,9.912,9.912s7.08.634,7.08,1.416S13.824,12.744,9.912,12.744Z" fill="#fff"/>
</svg>
