<svg id="Calendar" xmlns="http://www.w3.org/2000/svg" width="24" height="24" viewBox="0 0 24 24">
  <path id="Vector" d="M24,0V24H0V0Z" fill="none"/>
  <g id="Group" transform="translate(2.75 2.75)">
    <g id="Group-2" data-name="Group">
      <path id="Vector-2" data-name="Vector" d="M0,2.06V0" transform="translate(4.11)" fill="none" stroke="#69696a" stroke-linecap="round" stroke-linejoin="round" stroke-width="1.5" stroke-dasharray="0 0"/>
      <path id="Vector-3" data-name="Vector" d="M0,2.06V0" transform="translate(14.39)" fill="none" stroke="#69696a" stroke-linecap="round" stroke-linejoin="round" stroke-width="1.5" stroke-dasharray="0 0"/>
      <g id="Group-3" data-name="Group" transform="translate(0 1.03)">
        <path id="Vector-4" data-name="Vector" d="M3.2,0A3.2,3.2,0,0,0,0,3.2V14.28a3.2,3.2,0,0,0,3.2,3.2H15.31a3.2,3.2,0,0,0,3.2-3.2V3.2A3.212,3.212,0,0,0,15.3,0Z" fill="none" stroke="#69696a" stroke-linecap="round" stroke-linejoin="round" stroke-width="1.5" stroke-dasharray="0 0"/>
        <path id="Vector-5" data-name="Vector" d="M0,0H18.5" transform="translate(0 4.12)" fill="none" stroke="#69696a" stroke-linecap="round" stroke-linejoin="round" stroke-width="1.5" stroke-dasharray="0 0"/>
      </g>
    </g>
    <g id="Group-4" data-name="Group" transform="translate(14.25 7.25)">
      <path id="Vector-6" data-name="Vector" d="M1,2A1,1,0,1,1,2,1,1,1,0,0,1,1,2Z" fill="#69696a"/>
    </g>
    <g id="Group-5" data-name="Group" transform="translate(10.25 7.25)">
      <path id="Vector-7" data-name="Vector" d="M1,2A1,1,0,1,1,2,1,1,1,0,0,1,1,2Z" fill="#69696a"/>
    </g>
    <g id="Group-6" data-name="Group" transform="translate(6.25 7.25)">
      <path id="Vector-8" data-name="Vector" d="M1,2A1,1,0,1,1,2,1,1,1,0,0,1,1,2Z" fill="#69696a"/>
    </g>
    <g id="Group-7" data-name="Group" transform="translate(2.25 7.25)">
      <path id="Vector-9" data-name="Vector" d="M1,2A1,1,0,1,1,2,1,1,1,0,0,1,1,2Z" fill="#69696a"/>
    </g>
    <g id="Group-8" data-name="Group" transform="translate(14.25 10.74)">
      <path id="Vector-10" data-name="Vector" d="M1,2A1,1,0,1,1,2,1,1,1,0,0,1,1,2Z" fill="#69696a"/>
    </g>
    <g id="Group-9" data-name="Group" transform="translate(10.25 10.74)">
      <path id="Vector-11" data-name="Vector" d="M1,2A1,1,0,1,1,2,1,1,1,0,0,1,1,2Z" fill="#69696a"/>
    </g>
    <g id="Group-10" data-name="Group" transform="translate(6.25 10.74)">
      <path id="Vector-12" data-name="Vector" d="M1,2A1,1,0,1,1,2,1,1,1,0,0,1,1,2Z" fill="#69696a"/>
    </g>
    <g id="Group-11" data-name="Group" transform="translate(2.25 10.74)">
      <path id="Vector-13" data-name="Vector" d="M1,2A1,1,0,1,1,2,1,1,1,0,0,1,1,2Z" fill="#69696a"/>
    </g>
    <g id="Group-12" data-name="Group" transform="translate(10.25 14.22)">
      <path id="Vector-14" data-name="Vector" d="M1,2A1,1,0,1,1,2,1,1,1,0,0,1,1,2Z" fill="#69696a"/>
    </g>
    <g id="Group-13" data-name="Group" transform="translate(6.25 14.22)">
      <path id="Vector-15" data-name="Vector" d="M1,2A1,1,0,1,1,2,1,1,1,0,0,1,1,2Z" fill="#69696a"/>
    </g>
    <g id="Group-14" data-name="Group" transform="translate(2.25 14.22)">
      <path id="Vector-16" data-name="Vector" d="M1,2A1,1,0,1,1,2,1,1,1,0,0,1,1,2Z" fill="#69696a"/>
    </g>
  </g>
</svg>
