<svg xmlns="http://www.w3.org/2000/svg" width="19.126" height="17.002" viewBox="0 0 19.126 17.002">
  <path id="house-crack-solid" d="M17,9.55l.023,5.316A2.127,2.127,0,0,1,14.893,17H10.839L9.564,14.877l2.683-2.235a.533.533,0,0,0-.01-.827L8.322,8.74a.53.53,0,0,0-.757.731l2,2.75L6.724,14.584a.5.5,0,0,0-.113.684L7.651,17h-3.4a2.126,2.126,0,0,1-2.126-2.125V9.55H1.064A1.053,1.053,0,0,1,0,8.484a1.079,1.079,0,0,1,.332-.8L8.846.266A.957.957,0,0,1,9.577,0a1.117,1.117,0,0,1,.7.233l8.478,7.454a.9.9,0,0,1,.365.8A1.073,1.073,0,0,1,18.058,9.55Z" fill="#fff"/>
</svg>
