<svg width="18" height="17" viewBox="0 0 18 17" fill="none" xmlns="http://www.w3.org/2000/svg">
<path fill-rule="evenodd" clip-rule="evenodd" d="M10.9052 4.64197C10.9052 6.98104 8.99102 8.85545 6.60259 8.85545C4.21501 8.85545 2.30008 6.98104 2.30008 4.64197C2.30008 2.30292 4.21501 0.428467 6.60259 0.428467C8.99102 0.428467 10.9052 2.30292 10.9052 4.64197ZM0.100342 13.6265C0.100342 11.4612 3.09566 10.9195 6.60259 10.9195C10.1286 10.9195 13.1049 11.4799 13.1049 13.6468C13.1049 15.8121 10.1095 16.3538 6.60259 16.3538C3.07661 16.3538 0.100342 15.7934 0.100342 13.6265ZM12.6401 4.71835C12.6401 5.90949 12.2748 7.02094 11.6342 7.94416C11.5676 8.0391 11.6264 8.16712 11.7424 8.18747C11.9034 8.21374 12.0688 8.22985 12.2376 8.2333C13.9171 8.27647 15.4242 7.21761 15.8406 5.62294C16.4579 3.25677 14.6468 1.13222 12.3398 1.13222C12.0896 1.13222 11.8498 1.15765 11.616 1.20428C11.584 1.21106 11.5493 1.22632 11.5321 1.25345C11.5095 1.28821 11.526 1.33314 11.5485 1.36282C12.2419 2.31488 12.6401 3.4738 12.6401 4.71835ZM15.4217 9.89723C16.5505 10.1134 17.2924 10.5534 17.5997 11.1952C17.8603 11.7209 17.8603 12.3312 17.5997 12.8569C17.1297 13.8504 15.6129 14.1701 15.0234 14.2523C14.9014 14.2693 14.8035 14.1675 14.8165 14.0471C15.1178 11.2935 12.7224 9.98792 12.1026 9.68781C12.0765 9.67339 12.0705 9.65304 12.0731 9.63951C12.0749 9.63101 12.0861 9.61747 12.106 9.61491C13.447 9.58952 14.8892 9.77009 15.4217 9.89723Z" fill="#909090"/>
</svg>
