<svg width="17" height="18" viewBox="0 0 17 18" fill="none" xmlns="http://www.w3.org/2000/svg">
<path fill-rule="evenodd" clip-rule="evenodd" d="M11.9655 0.888284L11.9664 1.5515C14.4035 1.74251 16.0135 3.40322 16.016 5.95L16.0257 13.4046C16.0291 16.1814 14.2847 17.8898 11.4885 17.8942L4.65842 17.9031C1.87972 17.9066 0.113451 16.1575 0.109956 13.3728L0.100348 6.00571C0.096853 3.44213 1.64999 1.78584 4.08713 1.56212L4.08626 0.898892C4.08539 0.5098 4.37365 0.217101 4.758 0.217101C5.14235 0.216217 5.43062 0.508031 5.4315 0.897122L5.43237 1.51613L10.6211 1.50906L10.6203 0.890053C10.6194 0.500962 10.9076 0.209139 11.292 0.208254C11.6676 0.207369 11.9646 0.499192 11.9655 0.888284ZM1.44645 6.27897L14.6717 6.26128V5.95177C14.6342 4.05053 13.6802 3.05304 11.9681 2.90448L11.969 3.58539C11.969 3.96564 11.6728 4.26718 11.2973 4.26718C10.9129 4.26806 10.6237 3.9674 10.6237 3.58716L10.6229 2.87088L5.43411 2.87795L5.43499 3.59335C5.43499 3.97448 5.1476 4.27514 4.76324 4.27514C4.37889 4.27603 4.08975 3.97625 4.08975 3.59512L4.08888 2.91421C2.3855 3.08487 1.44296 4.08591 1.44558 6.00394L1.44645 6.27897ZM12.361 10.0881C12.5764 9.9154 12.6111 9.60072 12.4383 9.38528C12.2656 9.16983 11.9509 9.13521 11.7355 9.30795L6.89662 13.1876C6.68118 13.3603 6.36652 13.3257 6.19377 13.1103L4.46785 10.958C4.2951 10.7425 3.98042 10.7079 3.76498 10.8807C3.54955 11.0534 3.51495 11.3681 3.6877 11.5836L5.41362 13.7359C5.93185 14.3822 6.87585 14.486 7.52216 13.9678L12.361 10.0881Z" fill="#909090"/>
</svg>
