<svg width="16" height="19" viewBox="0 0 16 19" fill="none" xmlns="http://www.w3.org/2000/svg">
<path fill-rule="evenodd" clip-rule="evenodd" d="M5.33162 13.2019H10.097C10.4561 13.2019 10.754 12.9011 10.754 12.5383C10.754 12.1756 10.4561 11.8836 10.097 11.8836H5.33162C4.97247 11.8836 4.67464 12.1756 4.67464 12.5383C4.67464 12.9011 4.97247 13.2019 5.33162 13.2019ZM8.29246 7.45991H5.33162C4.97247 7.45991 4.67464 7.76072 4.67464 8.12347C4.67464 8.48621 4.97247 8.77818 5.33162 8.77818H8.29246C8.65158 8.77818 8.94947 8.48621 8.94947 8.12347C8.94947 7.76072 8.65158 7.45991 8.29246 7.45991ZM14.5439 6.6863C14.7497 6.68392 14.9739 6.68134 15.1777 6.68134C15.3967 6.68134 15.5718 6.85829 15.5718 7.07947V14.1928C15.5718 16.3869 13.8111 18.1653 11.6387 18.1653H4.66588C2.38833 18.1653 0.53125 16.2985 0.53125 13.9981V4.46064C0.53125 2.26648 2.30073 0.470459 4.48193 0.470459H9.15969C9.38742 0.470459 9.5626 0.656255 9.5626 0.87744V3.72631C9.5626 5.34538 10.8854 6.67249 12.4884 6.68134C12.8629 6.68134 13.193 6.68414 13.4818 6.68659C13.7065 6.6885 13.9063 6.69019 14.0826 6.69019C14.2074 6.69019 14.369 6.68832 14.5439 6.6863ZM14.7854 5.39493C14.0653 5.39758 13.2165 5.39493 12.6059 5.38873C11.6371 5.38873 10.8391 4.58273 10.8391 3.60421V1.27203C10.8391 0.890711 11.2972 0.701376 11.5592 0.976531C12.0332 1.47443 12.6848 2.15885 13.3334 2.84012C13.9801 3.51956 14.6239 4.19587 15.0859 4.68094C15.3416 4.94902 15.1542 5.39404 14.7854 5.39493Z" fill="#909090"/>
</svg>
