<svg width="18" height="17" viewBox="0 0 18 17" fill="none" xmlns="http://www.w3.org/2000/svg">
<path fill-rule="evenodd" clip-rule="evenodd" d="M13.3175 0.800781C14.5039 0.800781 15.6452 1.26969 16.4849 2.11108C17.3254 2.9507 17.7952 4.08317 17.7952 5.26872V12.2582C17.7952 14.7266 15.7868 16.7261 13.3175 16.7261H4.57713C2.10782 16.7261 0.100342 14.7266 0.100342 12.2582V5.26872C0.100342 2.8003 2.09897 0.800781 4.57713 0.800781H13.3175ZM14.7251 6.58699L14.7959 6.51621C15.0073 6.25963 15.0073 5.88804 14.7862 5.63147C14.6632 5.49964 14.4942 5.41913 14.3181 5.40143C14.1323 5.3917 13.9554 5.45452 13.8218 5.57838L9.83249 8.76345C9.31934 9.18901 8.58412 9.18901 8.06301 8.76345L4.08168 5.57838C3.80652 5.37489 3.42608 5.40143 3.19694 5.64031C2.95806 5.87919 2.93151 6.25963 3.13412 6.52506L3.25002 6.64007L7.27559 9.7809C7.77105 10.1702 8.37178 10.3825 9.00084 10.3825C9.62812 10.3825 10.2395 10.1702 10.734 9.7809L14.7251 6.58699Z" fill="#909090"/>
</svg>
