<svg width="18" height="17" viewBox="0 0 18 17" fill="none" xmlns="http://www.w3.org/2000/svg">
<path fill-rule="evenodd" clip-rule="evenodd" d="M14.1555 5.13967H17.8989C17.8989 2.13402 16.0979 0.378174 13.0466 0.378174H5.05641C2.00504 0.378174 0.204102 2.13402 0.204102 5.10134V11.5803C0.204102 14.5477 2.00504 16.3035 5.05641 16.3035H13.0466C16.0979 16.3035 17.8989 14.5477 17.8989 11.5803V11.3043H14.1555C12.4181 11.3043 11.0097 9.93116 11.0097 8.23733C11.0097 6.54348 12.4181 5.17035 14.1555 5.17035V5.13967ZM14.1555 6.45848H17.2383C17.6032 6.45848 17.8989 6.7468 17.8989 7.10256V9.34148C17.8947 9.69547 17.6014 9.98142 17.2383 9.98549H14.2263C13.3468 9.99708 12.5776 9.40996 12.3781 8.57468C12.2782 8.05622 12.4185 7.52122 12.7613 7.113C13.1041 6.70487 13.6144 6.46525 14.1555 6.45848ZM14.2892 8.81241H14.5802C14.9537 8.81241 15.2565 8.51717 15.2565 8.15301C15.2565 7.78885 14.9537 7.49361 14.5802 7.49361H14.2892C14.1105 7.49158 13.9385 7.55926 13.8114 7.68171C13.6844 7.80416 13.6128 7.97111 13.6129 8.14531C13.6128 8.5108 13.9144 8.80816 14.2892 8.81241ZM4.39581 5.13967H9.38966C9.7632 5.13967 10.066 4.84445 10.066 4.48027C10.066 4.11609 9.7632 3.82087 9.38966 3.82087H4.39581C4.02532 3.82084 3.72378 4.11143 3.71947 4.4726C3.71945 4.83804 4.02101 5.13547 4.39581 5.13967Z" fill="#909090"/>
</svg>
