<svg width="18" height="17" viewBox="0 0 18 17" fill="none" xmlns="http://www.w3.org/2000/svg">
<path fill-rule="evenodd" clip-rule="evenodd" d="M12.354 0.0479928C12.9123 0.0479928 13.4697 0.126735 13.9996 0.304568C17.2652 1.36626 18.4419 4.94946 17.459 8.08143C16.9016 9.68193 15.9903 11.1426 14.7968 12.3362C13.0884 13.9906 11.2136 15.4593 9.19549 16.7245L8.97431 16.8581L8.74428 16.7156C6.7191 15.4593 4.83372 13.9906 3.10936 12.3273C1.92381 11.1338 1.01164 9.68193 0.445405 8.08143C-0.554352 4.94946 0.622353 1.36626 3.92332 0.285988C4.1799 0.197514 4.44443 0.135582 4.70986 0.101077H4.81603C5.06464 0.0648029 5.31148 0.0479928 5.55921 0.0479928H5.65653C6.21392 0.0648029 6.75361 0.162124 7.27649 0.339957H7.32869C7.36408 0.356767 7.39062 0.375347 7.40832 0.392157C7.60384 0.454974 7.78875 0.525753 7.9657 0.623075L8.3019 0.77348C8.38312 0.816806 8.47434 0.883011 8.55317 0.940228C8.60307 0.976475 8.64802 1.00912 8.68234 1.03006C8.69676 1.03858 8.71145 1.04714 8.72623 1.05577C8.80214 1.10006 8.88114 1.14619 8.94777 1.19727C9.93071 0.446126 11.1242 0.0391454 12.354 0.0479928ZM14.7074 6.41813C15.0702 6.4084 15.3798 6.11732 15.4064 5.74484V5.63956C15.4329 4.40003 14.6818 3.2773 13.5396 2.84377C13.1768 2.71903 12.7787 2.91455 12.646 3.28614C12.5221 3.65774 12.7168 4.06472 13.0884 4.19654C13.6555 4.40888 14.035 4.96715 14.035 5.58559V5.61301C14.0182 5.81562 14.0793 6.01115 14.2031 6.16155C14.327 6.31196 14.5128 6.39955 14.7074 6.41813Z" fill="#909090"/>
</svg>
