<svg width="20" height="20" viewBox="0 0 20 20" fill="none" xmlns="http://www.w3.org/2000/svg">
<g clip-path="url(#clip0_1041_970)">
<path fill-rule="evenodd" clip-rule="evenodd" d="M10.3825 19.2333H1.18338C0.597736 19.2333 0.123291 18.7585 0.123291 18.1731V1.0862C0.123291 0.500642 0.597811 0.026123 1.18338 0.026123H18.2704C18.8558 0.026123 19.3304 0.500642 19.3304 1.0862V18.1731C19.3304 18.7586 18.8558 19.2333 18.2704 19.2333H13.3759V11.7952H15.8726L16.2464 8.89646H13.3759V7.0458C13.3759 6.20654 13.609 5.63461 14.8125 5.63461L16.3475 5.63394V3.04128C16.082 3.00596 15.1708 2.92703 14.1107 2.92703C11.8976 2.92703 10.3825 4.27792 10.3825 6.75871V8.89646H7.87943V11.7952H10.3825V19.2333Z" fill="#8D9197"/>
</g>
<defs>
<clipPath id="clip0_1041_970">
<rect width="19.2071" height="19.2071" fill="white" transform="translate(0.123291 0.026123)"/>
</clipPath>
</defs>
</svg>
