<svg width="20" height="19" viewBox="0 0 20 19" fill="none" xmlns="http://www.w3.org/2000/svg">
<g clip-path="url(#clip0_1041_980)">
<path fill-rule="evenodd" clip-rule="evenodd" d="M19.8771 18.3602H15.632V12.222C15.632 10.6153 14.968 9.51844 13.5078 9.51844C12.3909 9.51844 11.7698 10.2586 11.4807 10.9719C11.3723 11.228 11.3892 11.5847 11.3892 11.9413V18.3602H7.18374C7.18374 18.3602 7.23794 7.4869 7.18374 6.49852H11.3892V8.36012C11.6377 7.54616 12.9816 6.38447 15.1261 6.38447C17.7867 6.38447 19.8771 8.09066 19.8771 11.7647V18.3602ZM2.93078 5.01482H2.90368C1.54852 5.01482 0.669922 4.10805 0.669922 2.95867C0.669922 1.78692 1.57449 0.89917 2.95675 0.89917C4.33789 0.89917 5.18712 1.7847 5.21423 2.95532C5.21423 4.10471 4.33789 5.01482 2.93078 5.01482ZM1.15438 6.49852H4.89802V18.3602H1.15438V6.49852Z" fill="#8D9197"/>
</g>
<defs>
<clipPath id="clip0_1041_980">
<rect width="19.2071" height="17.461" fill="white" transform="translate(0.669922 0.89917)"/>
</clipPath>
</defs>
</svg>
