<svg width="20" height="20" viewBox="0 0 20 20" fill="none" xmlns="http://www.w3.org/2000/svg">
<g clip-path="url(#clip0_1041_974)">
<path fill-rule="evenodd" clip-rule="evenodd" d="M10.1803 0.026123C7.57207 0.026123 7.24503 0.0371773 6.2207 0.0839143C5.19852 0.130536 4.50038 0.292894 3.88953 0.530315C3.25801 0.775702 2.72244 1.10408 2.18852 1.63797C1.65462 2.1719 1.32624 2.70747 1.08085 3.33899C0.843431 3.94985 0.68108 4.64797 0.634458 5.67016C0.587721 6.69448 0.57666 7.02152 0.57666 9.62972C0.57666 12.2379 0.587721 12.5649 0.634458 13.5892C0.68108 14.6114 0.843431 15.3095 1.08085 15.9204C1.32624 16.5519 1.65462 17.0875 2.18852 17.6214C2.72244 18.1553 3.25801 18.4837 3.88953 18.7291C4.50038 18.9665 5.19852 19.1289 6.2207 19.1755C7.24503 19.2222 7.57207 19.2333 10.1803 19.2333C12.7884 19.2333 13.1154 19.2222 14.1398 19.1755C15.162 19.1289 15.8601 18.9665 16.4709 18.7291C17.1025 18.4837 17.638 18.1553 18.172 17.6214C18.7058 17.0875 19.0342 16.5519 19.2796 15.9204C19.517 15.3095 19.6794 14.6114 19.726 13.5892C19.7728 12.5649 19.7838 12.2379 19.7838 9.62972C19.7838 7.02152 19.7728 6.69448 19.726 5.67016C19.6794 4.64797 19.517 3.94985 19.2796 3.33899C19.0342 2.70747 18.7058 2.1719 18.172 1.63797C17.638 1.10408 17.1025 0.775702 16.4709 0.530315C15.8601 0.292894 15.162 0.130536 14.1398 0.0839143C13.1154 0.0371773 12.7884 0.026123 10.1803 0.026123ZM10.1803 1.75649C12.7445 1.75649 13.0482 1.76629 14.0609 1.81249C14.9972 1.85519 15.5058 2.01164 15.8442 2.14316C16.2924 2.31737 16.6123 2.52548 16.9484 2.86156C17.2845 3.1976 17.4925 3.51752 17.6668 3.96579C17.7983 4.30419 17.9547 4.81269 17.9974 5.74903C18.0436 6.76169 18.0534 7.06544 18.0534 9.62972C18.0534 12.194 18.0436 12.4977 17.9974 13.5104C17.9547 14.4467 17.7983 14.9552 17.6668 15.2936C17.4925 15.7419 17.2845 16.0618 16.9484 16.3978C16.6123 16.7339 16.2924 16.942 15.8442 17.1162C15.5058 17.2478 14.9972 17.4042 14.0609 17.4469C13.0484 17.4931 12.7447 17.5029 10.1803 17.5029C7.61579 17.5029 7.31211 17.4931 6.29957 17.4469C5.36323 17.4042 4.85473 17.2478 4.51632 17.1162C4.06805 16.942 3.74813 16.7339 3.41209 16.3978C3.07605 16.0618 2.86791 15.7419 2.6937 15.2936C2.56218 14.9552 2.40573 14.4467 2.36303 13.5104C2.31683 12.4977 2.30703 12.194 2.30703 9.62972C2.30703 7.06544 2.31683 6.76169 2.36303 5.74903C2.40573 4.81269 2.56218 4.30419 2.6937 3.96579C2.86791 3.51752 3.07601 3.1976 3.41209 2.86156C3.74813 2.52548 4.06805 2.31737 4.51632 2.14316C4.85473 2.01164 5.36323 1.85519 6.29957 1.81249C7.31223 1.76629 7.61598 1.75649 10.1803 1.75649ZM10.1803 4.69814C7.4566 4.69814 5.24868 6.90605 5.24868 9.62972C5.24868 12.3533 7.4566 14.5613 10.1803 14.5613C12.9039 14.5613 15.1118 12.3533 15.1118 9.62972C15.1118 6.90605 12.9039 4.69814 10.1803 4.69814ZM10.1803 12.8309C8.41226 12.8309 6.97904 11.3977 6.97904 9.62972C6.97904 7.86172 8.41226 6.42851 10.1803 6.42851C11.9482 6.42851 13.3814 7.86172 13.3814 9.62972C13.3814 11.3977 11.9482 12.8309 10.1803 12.8309ZM16.4591 4.5033C16.4591 5.13977 15.9431 5.65571 15.3066 5.65571C14.6702 5.65571 14.1542 5.13977 14.1542 4.5033C14.1542 3.86682 14.6702 3.35085 15.3066 3.35085C15.9431 3.35085 16.4591 3.86682 16.4591 4.5033Z" fill="#8D9197"/>
</g>
<defs>
<clipPath id="clip0_1041_974">
<rect width="19.2071" height="19.2071" fill="white" transform="translate(0.57666 0.026123)"/>
</clipPath>
</defs>
</svg>
