<svg width="20" height="17" viewBox="0 0 20 17" fill="none" xmlns="http://www.w3.org/2000/svg">
<g clip-path="url(#clip0_1041_985)">
<path fill-rule="evenodd" clip-rule="evenodd" d="M19.4237 2.52153C18.718 2.84292 17.9581 3.06026 17.1611 3.15737C17.975 2.65795 18.5996 1.86603 18.8938 0.922669C18.1317 1.3851 17.2896 1.72152 16.3899 1.90187C15.6729 1.11689 14.6481 0.626709 13.514 0.626709C11.3393 0.626709 9.57492 2.43598 9.57492 4.66721C9.57492 4.98398 9.60874 5.2915 9.67638 5.58746C6.40135 5.41867 3.49835 3.81171 1.55362 1.36429C1.21428 1.96314 1.02037 2.65795 1.02037 3.39784C1.02037 4.79901 1.71597 6.03602 2.77345 6.76088C2.12859 6.74123 1.5198 6.55741 0.987677 6.25683V6.30654C0.987677 8.26494 2.34617 9.89849 4.14998 10.2684C3.81965 10.3632 3.47129 10.4106 3.11166 10.4106C2.858 10.4106 2.60998 10.3864 2.36984 10.339C2.87153 11.9436 4.32584 13.1124 6.05073 13.1436C4.70239 14.228 3.0023 14.8743 1.15678 14.8743C0.838862 14.8743 0.524327 14.8558 0.216553 14.8188C1.96061 15.9633 4.03273 16.6327 6.25705 16.6327C13.5061 16.6327 17.4688 10.4765 17.4688 5.13658C17.4688 4.96086 17.4654 4.78513 17.4587 4.61288C18.2287 4.04293 18.8972 3.33194 19.4237 2.52153Z" fill="#8D9197"/>
</g>
<defs>
<clipPath id="clip0_1041_985">
<rect width="19.2071" height="16.006" fill="white" transform="translate(0.216553 0.626709)"/>
</clipPath>
</defs>
</svg>
