<svg width="36" height="43" viewBox="0 0 36 43" fill="none" xmlns="http://www.w3.org/2000/svg">
<path d="M22.8608 4.88974C25.4362 4.88848 27.9491 5.68259 30.056 7.1635C32.163 8.64442 33.7611 10.7399 34.6321 13.1635C33.6104 9.35893 31.3151 6.01974 28.1291 3.70291C24.9431 1.38607 21.059 0.231667 17.1248 0.432263C12.8699 0.66012 8.84939 2.4529 5.83639 5.4659C2.8234 8.47889 1.03062 12.4994 0.802764 16.7543C0.693452 18.929 0.996727 21.1047 1.69659 23.1665C2.24697 24.7737 3.03276 26.2903 4.02831 27.6668C4.02831 27.6668 5.00764 28.9142 5.13589 29.058L17.5717 41.4939L18.0342 41.9563C18.2734 42.2043 18.5959 42.355 18.9396 42.3794C19.2833 42.4038 19.6238 42.3002 19.8957 42.0884C20.0424 41.9685 20.1625 41.8191 20.248 41.65C20.3335 41.4808 20.3826 41.2956 20.3921 41.1063C20.4016 40.917 20.3713 40.7278 20.3032 40.5509C20.2351 40.374 20.1307 40.2133 19.9967 40.0793C20.251 40.333 20.5955 40.4754 20.9546 40.4754C21.3138 40.4754 21.6583 40.333 21.9126 40.0793C22.0393 39.9536 22.1398 39.804 22.2084 39.6393C22.277 39.4745 22.3123 39.2978 22.3123 39.1194C22.3123 38.9409 22.277 38.7642 22.2084 38.5995C22.1398 38.4347 22.0393 38.2852 21.9126 38.1595C22.0386 38.2857 22.1882 38.3858 22.3529 38.4541C22.5176 38.5224 22.6942 38.5576 22.8725 38.5576C23.0508 38.5576 23.2274 38.5224 23.3921 38.4541C23.5568 38.3858 23.7064 38.2857 23.8324 38.1595C23.9591 38.0338 24.0596 37.8842 24.1282 37.7195C24.1968 37.5548 24.2321 37.3781 24.2321 37.1996C24.2321 37.0211 24.1968 36.8445 24.1282 36.6797C24.0596 36.515 23.9591 36.3654 23.8324 36.2397C23.9662 36.3739 24.1266 36.4787 24.3034 36.5471C24.4801 36.6155 24.6692 36.6461 24.8585 36.637C25.0478 36.6278 25.2331 36.5791 25.4024 36.4939C25.5717 36.4088 25.7213 36.2891 25.8415 36.1426C26.0533 35.8707 26.1569 35.5302 26.1325 35.1865C26.1081 34.8428 25.9574 34.5203 25.7094 34.2811L24.7146 33.2862L24.6524 33.2318L19.8451 28.444C18.7243 27.3204 17.4072 26.4116 15.9589 25.7625L15.8735 25.7237C15.2078 25.4214 14.6022 25.0015 14.0858 24.484L12.1427 22.5409C10.9836 21.163 10.3526 19.4176 10.3628 17.617C10.3628 17.5432 10.3628 17.4694 10.3628 17.3955V17.3761C10.3659 14.0634 11.684 10.8875 14.0275 8.5462C16.371 6.20489 19.5482 4.88973 22.8608 4.88974Z" fill="#BDD7EF"/>
<path d="M10.3628 17.3916V17.411C10.3628 17.4849 10.3628 17.5587 10.3628 17.6287C10.3583 19.4193 10.9875 21.1538 12.1388 22.5253L14.0819 24.4684C14.5976 24.985 15.2017 25.4049 15.8657 25.7081L15.959 25.7469C17.4061 26.398 18.7229 27.3066 19.8452 28.4284L24.633 33.2123L24.699 33.2667L25.69 34.2616C25.9388 34.5003 26.09 34.823 26.1145 35.1669C26.1389 35.5108 26.0347 35.8516 25.8221 36.1231C25.7019 36.2696 25.5523 36.3893 25.383 36.4745C25.2137 36.5596 25.0284 36.6083 24.8391 36.6175C24.6498 36.6267 24.4607 36.596 24.284 36.5276C24.1072 36.4592 23.9468 36.3545 23.813 36.2202C23.9396 36.3459 24.0402 36.4955 24.1088 36.6602C24.1774 36.825 24.2127 37.0017 24.2127 37.1801C24.2127 37.3586 24.1774 37.5353 24.1088 37.7C24.0402 37.8648 23.9396 38.0143 23.813 38.14C23.5587 38.3937 23.2142 38.5362 22.855 38.5362C22.4958 38.5362 22.1514 38.3937 21.8971 38.14C22.0059 38.2534 22.094 38.3849 22.1575 38.5286C16.367 35.1515 5.68773 27.6084 5.13977 17.5742C5.13771 13.5687 6.7267 9.72624 9.55727 6.89203C12.3878 4.05782 16.2282 2.46391 20.2338 2.46082C23.2214 2.46158 26.1418 3.34804 28.6257 5.00816C31.1097 6.66827 33.0457 9.02752 34.1891 11.7877V11.811C34.3485 12.254 34.4884 12.7087 34.6127 13.1673C33.7421 10.7439 32.1447 8.64839 30.0385 7.16687C27.9324 5.68535 25.4203 4.89009 22.8453 4.88969C19.533 4.89484 16.3581 6.21427 14.0177 8.55828C11.6773 10.9023 10.3628 14.0792 10.3628 17.3916Z" fill="#BDD7EF"/>
<path d="M23.8052 32.4118L22.4722 31.0827C22.4722 31.0827 20.327 28.8948 18.1974 31.1527C16.4253 33.018 14.5793 32.5633 13.6039 30.97L13.9925 30.6358C13.9925 30.6358 15.6519 32.2447 17.5523 30.2005C19.4526 28.1564 22.5655 29.3067 23.8052 32.4118Z" fill="url(#paint0_linear_1039_532)"/>
<path d="M17.9603 28.3391C18.2479 28.067 18.5471 27.8067 18.8464 27.5618C17.9656 26.8442 16.9949 26.2445 15.9589 25.7781L15.8657 25.7392C15.2017 25.436 14.5975 25.0161 14.0819 24.4995L12.1388 22.5564C10.9779 21.1737 10.3482 19.4224 10.3628 17.617C10.3628 17.5471 10.3628 17.4733 10.3628 17.3994V17.38C10.3623 15.7379 10.6853 14.1118 11.3133 12.5945C11.9414 11.0773 12.8622 9.69861 14.0232 8.53729C15.1841 7.37597 16.5625 6.45474 18.0795 5.82622C19.5966 5.19769 21.2226 4.8742 22.8647 4.8742C25.4397 4.87459 27.9518 5.66986 30.058 7.15138C32.1641 8.63289 33.7615 10.7284 34.6321 13.1518C34.566 12.9031 34.4922 12.6583 34.4145 12.4134C34.4168 12.4045 34.4168 12.3951 34.4145 12.3862C33.4665 9.81322 31.7513 7.59337 29.5008 6.02678C27.2503 4.46018 24.573 3.62241 21.831 3.62673C18.2803 3.62673 14.875 5.03724 12.3643 7.54797C9.85354 10.0587 8.44301 13.464 8.44301 17.0147C8.43885 19.686 9.23371 22.2976 10.7254 24.5136C12.2171 26.7297 14.3374 28.449 16.8139 29.4505C17.2025 29.0697 17.5756 28.7044 17.9603 28.3391Z" fill="#BDD7EF"/>
<path d="M35.2189 17.617C35.2204 19.4936 34.9145 21.3577 34.3134 23.1354C33.931 24.2601 33.4335 25.3423 32.8289 26.3649C32.227 27.3744 31.5253 28.3209 30.7342 29.1901L28.9699 30.97L25.6822 34.2694L22.1613 30.7718C21.5854 30.1981 20.8077 29.8728 19.9948 29.8655C19.182 29.8583 18.3987 30.1696 17.8126 30.733L17.424 31.1216C17.0298 31.5024 16.5031 31.7153 15.955 31.7153C15.4069 31.7153 14.8802 31.5024 14.486 31.1216L14.2451 30.8845L14.1984 30.8418L14.0002 30.6475L15.9667 28.681C15.9667 28.681 17.3696 27.3792 18.0225 26.9284C18.6666 26.4799 19.3493 26.0898 20.0627 25.7625C20.7842 25.4316 21.4419 24.9765 22.0058 24.4179C22.6898 23.7339 23.5603 22.8634 23.6497 22.7701L23.6691 22.7468C24.3431 21.9981 24.8619 21.1231 25.1954 20.1726C25.5289 19.222 25.6706 18.2147 25.6122 17.209C25.5009 15.356 24.7218 13.6061 23.4192 12.2835C22.1166 10.9609 20.3788 10.1552 18.5277 10.0156C17.4923 9.94422 16.4533 10.0846 15.474 10.4282C14.4947 10.7718 13.5957 11.3114 12.832 12.0141C12.0682 12.7167 11.4557 13.5677 11.0318 14.515C10.608 15.4623 10.3816 16.4861 10.3666 17.5238C10.3648 17.4875 10.3648 17.4512 10.3666 17.415V17.3955C10.3666 14.0798 11.6838 10.8999 14.0284 8.55534C16.3729 6.21078 19.5528 4.89362 22.8686 4.89362C25.4439 4.89236 27.9568 5.68647 30.0637 7.16738C32.1707 8.6483 33.7689 10.7438 34.6398 13.1673C35.0255 14.6191 35.2202 16.1149 35.2189 17.617Z" fill="url(#paint1_linear_1039_532)"/>
<path d="M32.8562 17.617H35.219C35.2173 16.1171 35.02 14.6239 34.6322 13.1751C33.7616 10.7517 32.1641 8.65616 30.058 7.17464C27.9519 5.69312 25.4398 4.89786 22.8648 4.89746C19.6383 4.89871 16.5373 6.14688 14.2096 8.38111C11.8819 10.6153 10.5079 13.6627 10.3745 16.8864H10.4017C10.6228 14.0647 11.9 11.4303 13.9783 9.50903C16.0566 7.58777 18.7831 6.52107 21.6134 6.52189C24.5694 6.52264 27.4064 7.68718 29.5104 9.76356C31.6144 11.8399 32.8163 14.6612 32.8562 17.617Z" fill="#0169E8"/>
<path d="M10.3162 36.2397C10.1896 36.114 10.089 35.9644 10.0204 35.7997C9.95184 35.635 9.9165 35.4583 9.9165 35.2798C9.9165 35.1013 9.95184 34.9247 10.0204 34.7599C10.089 34.5952 10.1896 34.4456 10.3162 34.3199L11.35 33.2823C11.6049 33.0284 11.95 32.8858 12.3098 32.8858C12.6697 32.8858 13.0148 33.0284 13.2698 33.2823C13.5237 33.5372 13.6662 33.8824 13.6662 34.2422C13.6662 34.602 13.5237 34.9472 13.2698 35.2021L12.2321 36.2397C11.9779 36.4934 11.6334 36.6359 11.2742 36.6359C10.915 36.6359 10.5705 36.4934 10.3162 36.2397Z" fill="url(#paint2_linear_1039_532)"/>
<path d="M12.2319 38.1595C11.978 37.9046 11.8354 37.5594 11.8354 37.1996C11.8354 36.8398 11.978 36.4946 12.2319 36.2397L13.2696 35.2021C13.5245 34.9482 13.8696 34.8056 14.2295 34.8056C14.5893 34.8056 14.9344 34.9482 15.1894 35.2021C15.4433 35.457 15.5859 35.8022 15.5859 36.162C15.5859 36.5218 15.4433 36.867 15.1894 37.1219L14.1517 38.1595C13.8968 38.4134 13.5517 38.556 13.1918 38.556C12.832 38.556 12.4869 38.4134 12.2319 38.1595Z" fill="url(#paint3_linear_1039_532)"/>
<path d="M14.1519 40.0753C13.8982 39.8211 13.7557 39.4766 13.7557 39.1174C13.7557 38.7582 13.8982 38.4137 14.1519 38.1594L15.1895 37.1218C15.3152 36.9952 15.4648 36.8946 15.6295 36.826C15.7942 36.7574 15.9709 36.7221 16.1494 36.7221C16.3278 36.7221 16.5046 36.7574 16.6693 36.826C16.834 36.8946 16.9836 36.9952 17.1093 37.1218C17.3632 37.3768 17.5058 37.7219 17.5058 38.0817C17.5058 38.4415 17.3632 38.7867 17.1093 39.0416L16.0717 40.0753C15.9459 40.202 15.7964 40.3025 15.6317 40.3711C15.4669 40.4397 15.2902 40.4751 15.1118 40.4751C14.9333 40.4751 14.7566 40.4397 14.5919 40.3711C14.4271 40.3025 14.2776 40.202 14.1519 40.0753Z" fill="url(#paint4_linear_1039_532)"/>
<path d="M16.0717 41.9951C15.8177 41.7402 15.6752 41.395 15.6752 41.0352C15.6752 40.6754 15.8177 40.3303 16.0717 40.0753L17.1093 39.0416C17.2347 38.9151 17.3839 38.8146 17.5483 38.7461C17.7127 38.6775 17.8891 38.6422 18.0672 38.6422C18.2454 38.6422 18.4217 38.6775 18.5862 38.7461C18.7506 38.8146 18.8998 38.9151 19.0252 39.0416C19.1517 39.167 19.2522 39.3162 19.3207 39.4806C19.3893 39.645 19.4246 39.8214 19.4246 39.9996C19.4246 40.1777 19.3893 40.3541 19.3207 40.5185C19.2522 40.6829 19.1517 40.8321 19.0252 40.9575L17.9914 41.9951C17.7365 42.2491 17.3914 42.3916 17.0316 42.3916C16.6718 42.3916 16.3266 42.2491 16.0717 41.9951Z" fill="url(#paint5_linear_1039_532)"/>
<path d="M28.9699 30.9856L25.6822 34.285L22.1613 30.7874C21.5854 30.2137 20.8077 29.8884 19.9949 29.8811C19.182 29.8738 18.3987 30.1852 17.8126 30.7485L17.424 31.1372C17.0298 31.518 16.5031 31.7309 15.955 31.7309C15.4069 31.7309 14.8802 31.518 14.4861 31.1372L14.2451 30.9001C14.4861 31.1138 15.6092 31.9299 17.2375 30.1812C19.0756 28.2031 21.6639 28.3624 23.5487 30.5931C25.4335 32.8238 27.7302 32.2719 28.9311 31.0633C28.9403 31.0357 28.9534 31.0096 28.9699 30.9856Z" fill="#0257D1"/>
<defs>
<linearGradient id="paint0_linear_1039_532" x1="19.5575" y1="31.2304" x2="9.69825" y2="28.5489" gradientUnits="userSpaceOnUse">
<stop offset="0.16" stop-color="#0257D1"/>
<stop offset="0.78" stop-color="#0171F2"/>
<stop offset="1" stop-color="#007BFF"/>
</linearGradient>
<linearGradient id="paint1_linear_1039_532" x1="24.9243" y1="5.78356" x2="21.6755" y2="23.9554" gradientUnits="userSpaceOnUse">
<stop stop-color="#0257D1"/>
<stop offset="0.74" stop-color="#0171F2"/>
<stop offset="1" stop-color="#007BFF"/>
</linearGradient>
<linearGradient id="paint2_linear_1039_532" x1="9.91595" y1="34.7591" x2="13.6661" y2="34.7591" gradientUnits="userSpaceOnUse">
<stop stop-color="#0257D1"/>
<stop offset="1" stop-color="#007BFF"/>
</linearGradient>
<linearGradient id="paint3_linear_1039_532" x1="11.8356" y1="36.6789" x2="15.5858" y2="36.6789" gradientUnits="userSpaceOnUse">
<stop stop-color="#0257D1"/>
<stop offset="1" stop-color="#007BFF"/>
</linearGradient>
<linearGradient id="paint4_linear_1039_532" x1="13.7555" y1="38.5986" x2="17.5057" y2="38.5986" gradientUnits="userSpaceOnUse">
<stop stop-color="#0257D1"/>
<stop offset="1" stop-color="#007BFF"/>
</linearGradient>
<linearGradient id="paint5_linear_1039_532" x1="15.6753" y1="40.5184" x2="19.4255" y2="40.5184" gradientUnits="userSpaceOnUse">
<stop stop-color="#0257D1"/>
<stop offset="1" stop-color="#007BFF"/>
</linearGradient>
</defs>
</svg>
