<svg width="121" height="43" viewBox="0 0 121 43" fill="none" xmlns="http://www.w3.org/2000/svg">
<path d="M22.0798 5.20785C24.6552 5.2066 27.168 6.0007 29.275 7.48162C31.3819 8.96253 32.9801 11.058 33.8511 13.4816C32.8294 9.67704 30.5341 6.33786 27.3481 4.02102C24.1621 1.70419 20.278 0.549782 16.3438 0.750379C12.0889 0.978235 8.06838 2.77102 5.05539 5.78401C2.04239 8.79701 0.249615 12.8175 0.0217586 17.0724C-0.0875539 19.2471 0.215721 21.4228 0.91558 23.4846C1.46596 25.0918 2.25176 26.6084 3.2473 27.9849C3.2473 27.9849 4.22664 29.2323 4.35488 29.3761L16.7907 41.812L17.2532 42.2744C17.4924 42.5224 17.8149 42.6731 18.1586 42.6975C18.5023 42.7219 18.8428 42.6183 19.1147 42.4066C19.2614 42.2866 19.3815 42.1373 19.467 41.9681C19.5525 41.7989 19.6016 41.6137 19.6111 41.4244C19.6206 41.2351 19.5903 41.0459 19.5222 40.869C19.4541 40.6921 19.3497 40.5314 19.2157 40.3974C19.47 40.6511 19.8145 40.7935 20.1736 40.7935C20.5328 40.7935 20.8773 40.6511 21.1316 40.3974C21.2583 40.2717 21.3588 40.1221 21.4274 39.9574C21.496 39.7927 21.5313 39.616 21.5313 39.4375C21.5313 39.259 21.496 39.0824 21.4274 38.9176C21.3588 38.7529 21.2583 38.6033 21.1316 38.4776C21.2576 38.6038 21.4072 38.7039 21.5719 38.7722C21.7366 38.8405 21.9132 38.8757 22.0915 38.8757C22.2698 38.8757 22.4464 38.8405 22.6111 38.7722C22.7758 38.7039 22.9254 38.6038 23.0514 38.4776C23.178 38.3519 23.2786 38.2024 23.3472 38.0376C23.4158 37.8729 23.4511 37.6962 23.4511 37.5177C23.4511 37.3393 23.4158 37.1626 23.3472 36.9978C23.2786 36.8331 23.178 36.6835 23.0514 36.5578C23.1852 36.6921 23.3456 36.7968 23.5224 36.8652C23.6991 36.9336 23.8882 36.9642 24.0775 36.9551C24.2668 36.9459 24.4521 36.8972 24.6214 36.812C24.7907 36.7269 24.9403 36.6072 25.0605 36.4607C25.2723 36.1888 25.3759 35.8483 25.3515 35.5046C25.3271 35.1609 25.1764 34.8384 24.9284 34.5992L23.9336 33.6043L23.8714 33.5499L19.0641 28.7621C17.9433 27.6386 16.6262 26.7297 15.1779 26.0806L15.0925 26.0418C14.4268 25.7396 13.8212 25.3196 13.3048 24.8021L11.3617 22.859C10.2026 21.4811 9.57162 19.7357 9.5818 17.9352C9.5818 17.8613 9.5818 17.7875 9.5818 17.7136V17.6942C9.58489 14.3816 10.903 11.2056 13.2465 8.86432C15.59 6.523 18.7672 5.20785 22.0798 5.20785Z" fill="#BDD7EF"/>
<path d="M9.5817 17.7097V17.7292C9.5817 17.803 9.5817 17.8768 9.5817 17.9468C9.57721 19.7375 10.2063 21.472 11.3577 22.8434L13.3008 24.7865C13.8164 25.3031 14.4206 25.723 15.0846 26.0262L15.1778 26.0651C16.6249 26.7162 17.9417 27.6247 19.064 28.7466L23.8518 33.5305L23.9179 33.5849L24.9089 34.5797C25.1577 34.8185 25.3089 35.1411 25.3333 35.485C25.3577 35.829 25.2536 36.1697 25.041 36.4412C24.9208 36.5877 24.7712 36.7074 24.6019 36.7926C24.4326 36.8778 24.2473 36.9265 24.058 36.9356C23.8687 36.9448 23.6796 36.9142 23.5028 36.8457C23.3261 36.7773 23.1656 36.6726 23.0319 36.5384C23.1585 36.6641 23.259 36.8136 23.3276 36.9784C23.3962 37.1431 23.4316 37.3198 23.4316 37.4983C23.4316 37.6767 23.3962 37.8534 23.3276 38.0182C23.259 38.1829 23.1585 38.3325 23.0319 38.4582C22.7776 38.7118 22.4331 38.8543 22.0739 38.8543C21.7147 38.8543 21.3702 38.7118 21.116 38.4582C21.2247 38.5715 21.3128 38.7031 21.3763 38.8468C15.5859 35.4697 4.9066 27.9266 4.35864 17.8924C4.35658 13.8868 5.94557 10.0444 8.77614 7.21018C11.6067 4.37597 15.4471 2.78205 19.4527 2.77896C22.4403 2.77972 25.3607 3.66619 27.8446 5.3263C30.3286 6.98642 32.2646 9.34566 33.408 12.1058V12.1292C33.5673 12.5722 33.7072 13.0269 33.8316 13.4854C32.961 11.0621 31.3635 8.96653 29.2574 7.48501C27.1513 6.00349 24.6392 5.20823 22.0642 5.20784C18.7518 5.21298 15.5769 6.53242 13.2366 8.87642C10.8962 11.2204 9.58169 14.3974 9.5817 17.7097Z" fill="#BDD7EF"/>
<path d="M23.024 32.7299L21.6911 31.4008C21.6911 31.4008 19.5459 29.2129 17.4162 31.4708C15.6441 33.3361 13.7982 32.8815 12.8228 31.2881L13.2114 30.9539C13.2114 30.9539 14.8708 32.5628 16.7711 30.5186C18.6715 28.4745 21.7843 29.6248 23.024 32.7299Z" fill="url(#paint0_linear_1041_928)"/>
<path d="M17.1794 28.6572C17.467 28.3851 17.7663 28.1247 18.0655 27.8799C17.1847 27.1623 16.214 26.5626 15.178 26.0961L15.0848 26.0573C14.4208 25.7541 13.8167 25.3342 13.301 24.8176L11.3579 22.8745C10.197 21.4918 9.56728 19.7405 9.58191 17.9351C9.58191 17.8652 9.58191 17.7913 9.58191 17.7175V17.6981C9.5814 16.056 9.90439 14.4299 10.5324 12.9126C11.1605 11.3954 12.0813 10.0167 13.2423 8.85538C14.4032 7.69406 15.7816 6.77282 17.2987 6.1443C18.8157 5.51578 20.4417 5.19228 22.0838 5.19228C24.6588 5.19268 27.1709 5.98794 29.2771 7.46946C31.3832 8.95098 32.9806 11.0465 33.8512 13.4699C33.7852 13.2212 33.7113 12.9763 33.6336 12.7315C33.6359 12.7226 33.6359 12.7132 33.6336 12.7043C32.6856 10.1313 30.9704 7.91145 28.7199 6.34486C26.4694 4.77827 23.7922 3.94049 21.0501 3.94481C17.4994 3.94481 14.0941 5.35532 11.5834 7.86605C9.07265 10.3768 7.66213 13.7821 7.66213 17.3328C7.65796 20.0041 8.45283 22.6156 9.94451 24.8317C11.4362 27.0478 13.5565 28.7671 16.033 29.7686C16.4216 29.3878 16.7947 29.0225 17.1794 28.6572Z" fill="#BDD7EF"/>
<path d="M34.4379 17.9351C34.4394 19.8117 34.1335 21.6758 33.5324 23.4535C33.15 24.5782 32.6525 25.6604 32.0479 26.683C31.446 27.6925 30.7443 28.639 29.9532 29.5082L28.1889 31.2881L24.9012 34.5875L21.3803 31.0899C20.8044 30.5162 20.0267 30.1909 19.2138 30.1836C18.401 30.1763 17.6176 30.4877 17.0316 31.051L16.643 31.4397C16.2488 31.8205 15.7221 32.0334 15.174 32.0334C14.6259 32.0334 14.0992 31.8205 13.705 31.4397L13.4641 31.2026L13.4174 31.1599L13.2192 30.9655L15.1857 28.9991C15.1857 28.9991 16.5886 27.6973 17.2414 27.2465C17.8856 26.798 18.5683 26.4079 19.2817 26.0806C20.0032 25.7497 20.6609 25.2946 21.2248 24.736C21.9088 24.052 22.7793 23.1815 22.8687 23.0882L22.8881 23.0649C23.5621 22.3162 24.0809 21.4412 24.4144 20.4906C24.7479 19.5401 24.8896 18.5328 24.8312 17.5271C24.7199 15.674 23.9408 13.9242 22.6382 12.6015C21.3356 11.2789 19.5978 10.4732 17.7466 10.3337C16.7113 10.2623 15.6723 10.4027 14.693 10.7463C13.7137 11.0899 12.8147 11.6295 12.051 12.3321C11.2872 13.0348 10.6747 13.8858 10.2508 14.8331C9.82695 15.7804 9.6006 16.8041 9.58563 17.8419C9.58376 17.8056 9.58376 17.7693 9.58563 17.733V17.7136C9.58563 14.3979 10.9028 11.218 13.2473 8.87343C15.5919 6.52886 18.7718 5.2117 22.0876 5.2117C24.6629 5.21045 27.1758 6.00455 29.2827 7.48547C31.3897 8.96639 32.9879 11.0618 33.8588 13.4854C34.2445 14.9372 34.4392 16.433 34.4379 17.9351Z" fill="url(#paint1_linear_1041_928)"/>
<path d="M32.0752 17.9351H34.438C34.4363 16.4353 34.239 14.942 33.8512 13.4932C32.9806 11.0698 31.3831 8.9743 29.277 7.49278C27.1709 6.01126 24.6588 5.216 22.0838 5.21561C18.8573 5.21686 15.7562 6.46503 13.4286 8.69926C11.1009 10.9335 9.72685 13.9809 9.59351 17.2045H9.62071C9.84181 14.3829 11.119 11.7484 13.1973 9.82718C15.2756 7.90592 18.0021 6.83921 20.8324 6.84004C23.7884 6.84079 26.6253 8.00533 28.7294 10.0817C30.8334 12.1581 32.0353 14.9794 32.0752 17.9351Z" fill="#0169E8"/>
<path d="M9.53522 36.5578C9.40855 36.4321 9.30804 36.2826 9.23944 36.1178C9.17083 35.9531 9.1355 35.7764 9.1355 35.5979C9.1355 35.4195 9.17083 35.2428 9.23944 35.078C9.30804 34.9133 9.40855 34.7637 9.53522 34.638L10.569 33.6004C10.8239 33.3465 11.169 33.2039 11.5288 33.2039C11.8887 33.2039 12.2338 33.3465 12.4887 33.6004C12.7427 33.8553 12.8852 34.2005 12.8852 34.5603C12.8852 34.9201 12.7427 35.2653 12.4887 35.5202L11.4511 36.5578C11.1968 36.8115 10.8524 36.954 10.4932 36.954C10.134 36.954 9.78948 36.8115 9.53522 36.5578Z" fill="url(#paint2_linear_1041_928)"/>
<path d="M11.4509 38.4776C11.197 38.2227 11.0544 37.8775 11.0544 37.5177C11.0544 37.1579 11.197 36.8128 11.4509 36.5578L12.4886 35.5202C12.7435 35.2663 13.0886 35.1237 13.4485 35.1237C13.8083 35.1237 14.1534 35.2663 14.4084 35.5202C14.6623 35.7751 14.8048 36.1203 14.8048 36.4801C14.8048 36.8399 14.6623 37.1851 14.4084 37.44L13.3707 38.4776C13.1158 38.7315 12.7707 38.8741 12.4108 38.8741C12.051 38.8741 11.7059 38.7315 11.4509 38.4776Z" fill="url(#paint3_linear_1041_928)"/>
<path d="M13.3707 40.3935C13.1171 40.1392 12.9746 39.7947 12.9746 39.4355C12.9746 39.0764 13.1171 38.7319 13.3707 38.4776L14.4084 37.44C14.5341 37.3133 14.6836 37.2128 14.8484 37.1442C15.0131 37.0756 15.1898 37.0403 15.3683 37.0403C15.5467 37.0403 15.7234 37.0756 15.8882 37.1442C16.0529 37.2128 16.2025 37.3133 16.3282 37.44C16.5821 37.6949 16.7247 38.0401 16.7247 38.3999C16.7247 38.7597 16.5821 39.1048 16.3282 39.3598L15.2905 40.3935C15.1648 40.5202 15.0153 40.6207 14.8505 40.6893C14.6858 40.7579 14.5091 40.7932 14.3307 40.7932C14.1522 40.7932 13.9755 40.7579 13.8107 40.6893C13.646 40.6207 13.4965 40.5202 13.3707 40.3935Z" fill="url(#paint4_linear_1041_928)"/>
<path d="M15.2905 42.3132C15.0366 42.0583 14.894 41.7132 14.894 41.3533C14.894 40.9935 15.0366 40.6484 15.2905 40.3935L16.3282 39.3597C16.4535 39.2332 16.6027 39.1327 16.7672 39.0642C16.9316 38.9956 17.108 38.9603 17.2861 38.9603C17.4642 38.9603 17.6406 38.9956 17.805 39.0642C17.9695 39.1327 18.1187 39.2332 18.2441 39.3597C18.3706 39.4851 18.4711 39.6343 18.5396 39.7987C18.6082 39.9632 18.6435 40.1395 18.6435 40.3177C18.6435 40.4958 18.6082 40.6722 18.5396 40.8366C18.4711 41.001 18.3706 41.1502 18.2441 41.2756L17.2103 42.3132C16.9554 42.5672 16.6103 42.7097 16.2504 42.7097C15.8906 42.7097 15.5455 42.5672 15.2905 42.3132Z" fill="url(#paint5_linear_1041_928)"/>
<path d="M28.1889 31.3037L24.9012 34.6031L21.3803 31.1055C20.8044 30.5318 20.0267 30.2065 19.2139 30.1992C18.401 30.1919 17.6177 30.5033 17.0316 31.0666L16.643 31.4552C16.2488 31.8361 15.7221 32.049 15.174 32.049C14.6259 32.049 14.0992 31.8361 13.7051 31.4552L13.4641 31.2182C13.7051 31.4319 14.8281 32.248 16.4565 30.4992C18.2946 28.5212 20.8829 28.6805 22.7677 30.9112C24.6525 33.1419 26.9492 32.59 28.1501 31.3814C28.1593 31.3538 28.1724 31.3276 28.1889 31.3037Z" fill="#0257D1"/>
<path d="M48.4264 32.883V14.4438H51.7667V30.0829H59.8879V32.883H48.4264ZM68.6753 33.1531C67.3248 33.1531 66.1543 32.856 65.164 32.2618C64.1736 31.6675 63.4053 30.8362 62.8591 29.7678C62.3188 28.6994 62.0487 27.4509 62.0487 26.0223C62.0487 24.5938 62.3188 23.3423 62.8591 22.2679C63.4053 21.1934 64.1736 20.3591 65.164 19.7649C66.1543 19.1706 67.3248 18.8735 68.6753 18.8735C70.0259 18.8735 71.1963 19.1706 72.1867 19.7649C73.1771 20.3591 73.9424 21.1934 74.4826 22.2679C75.0288 23.3423 75.3019 24.5938 75.3019 26.0223C75.3019 27.4509 75.0288 28.6994 74.4826 29.7678C73.9424 30.8362 73.1771 31.6675 72.1867 32.2618C71.1963 32.856 70.0259 33.1531 68.6753 33.1531ZM68.6933 30.5421C69.4256 30.5421 70.0379 30.341 70.5301 29.9389C71.0223 29.5307 71.3884 28.9845 71.6285 28.3002C71.8746 27.616 71.9976 26.8537 71.9976 26.0133C71.9976 25.167 71.8746 24.4017 71.6285 23.7174C71.3884 23.0272 71.0223 22.4779 70.5301 22.0698C70.0379 21.6616 69.4256 21.4575 68.6933 21.4575C67.943 21.4575 67.3188 21.6616 66.8206 22.0698C66.3284 22.4779 65.9593 23.0272 65.7132 23.7174C65.4731 24.4017 65.353 25.167 65.353 26.0133C65.353 26.8537 65.4731 27.616 65.7132 28.3002C65.9593 28.9845 66.3284 29.5307 66.8206 29.9389C67.3188 30.341 67.943 30.5421 68.6933 30.5421ZM84.1006 33.1531C82.7201 33.1531 81.5346 32.85 80.5443 32.2438C79.5599 31.6375 78.8006 30.8002 78.2664 29.7318C77.7381 28.6574 77.474 27.4209 77.474 26.0223C77.474 24.6178 77.7442 23.3783 78.2844 22.3039C78.8246 21.2234 79.5869 20.3831 80.5713 19.7829C81.5617 19.1766 82.7321 18.8735 84.0826 18.8735C85.2051 18.8735 86.1985 19.0806 87.0628 19.4948C87.9332 19.9029 88.6264 20.4822 89.1426 21.2324C89.6588 21.9767 89.9529 22.8471 90.025 23.8435H86.9098C86.7837 23.1772 86.4836 22.622 86.0094 22.1778C85.5412 21.7276 84.914 21.5026 84.1277 21.5026C83.4614 21.5026 82.8762 21.6826 82.372 22.0428C81.8678 22.3969 81.4746 22.9071 81.1925 23.5734C80.9164 24.2396 80.7783 25.0379 80.7783 25.9683C80.7783 26.9107 80.9164 27.721 81.1925 28.3993C81.4686 29.0715 81.8558 29.5907 82.354 29.9569C82.8582 30.317 83.4494 30.4971 84.1277 30.4971C84.6078 30.4971 85.037 30.4071 85.4152 30.227C85.7993 30.0409 86.1204 29.7738 86.3785 29.4257C86.6366 29.0775 86.8137 28.6544 86.9098 28.1562H90.025C89.9469 29.1346 89.6588 30.0019 89.1606 30.7582C88.6624 31.5085 87.9842 32.0967 87.1258 32.5229C86.2675 32.943 85.2591 33.1531 84.1006 33.1531ZM101.516 27.0667V19.0536H104.775V32.883H101.615V30.4251H101.471C101.159 31.1994 100.645 31.8326 99.9311 32.3248C99.2228 32.817 98.3495 33.0631 97.3111 33.0631C96.4047 33.0631 95.6034 32.862 94.9071 32.4599C94.2169 32.0517 93.6767 31.4605 93.2865 30.6862C92.8964 29.9059 92.7013 28.9635 92.7013 27.8591V19.0536H95.9606V27.3549C95.9606 28.2312 96.2007 28.9275 96.6808 29.4437C97.161 29.9599 97.7913 30.218 98.5716 30.218C99.0518 30.218 99.517 30.1009 99.9671 29.8668C100.417 29.6327 100.786 29.2846 101.075 28.8224C101.369 28.3542 101.516 27.769 101.516 27.0667ZM119.057 22.709L116.086 23.0332C116.002 22.733 115.855 22.4509 115.645 22.1868C115.44 21.9227 115.164 21.7096 114.816 21.5476C114.468 21.3855 114.042 21.3045 113.538 21.3045C112.859 21.3045 112.289 21.4515 111.827 21.7456C111.371 22.0398 111.146 22.4209 111.152 22.8891C111.146 23.2913 111.293 23.6184 111.593 23.8705C111.899 24.1226 112.403 24.3297 113.106 24.4917L115.464 24.9959C116.773 25.278 117.745 25.7252 118.382 26.3375C119.024 26.9497 119.348 27.751 119.354 28.7414C119.348 29.6117 119.093 30.38 118.589 31.0463C118.091 31.7066 117.397 32.2228 116.509 32.5949C115.621 32.9671 114.6 33.1531 113.448 33.1531C111.755 33.1531 110.392 32.799 109.36 32.0907C108.328 31.3764 107.712 30.383 107.514 29.1105L110.693 28.8044C110.837 29.4287 111.143 29.8999 111.611 30.218C112.079 30.5361 112.688 30.6952 113.439 30.6952C114.213 30.6952 114.834 30.5361 115.302 30.218C115.777 29.8999 116.014 29.5067 116.014 29.0385C116.014 28.6424 115.861 28.3152 115.555 28.0571C115.254 27.799 114.786 27.601 114.15 27.4629L111.791 26.9677C110.465 26.6916 109.483 26.2264 108.847 25.5722C108.211 24.9119 107.895 24.0776 107.902 23.0692C107.895 22.2168 108.127 21.4785 108.595 20.8543C109.069 20.2241 109.726 19.7379 110.567 19.3957C111.413 19.0476 112.388 18.8735 113.493 18.8735C115.113 18.8735 116.389 19.2187 117.319 19.9089C118.256 20.5992 118.835 21.5326 119.057 22.709Z" fill="black"/>
<defs>
<linearGradient id="paint0_linear_1041_928" x1="18.7764" y1="31.5485" x2="8.91712" y2="28.867" gradientUnits="userSpaceOnUse">
<stop offset="0.16" stop-color="#0257D1"/>
<stop offset="0.78" stop-color="#0171F2"/>
<stop offset="1" stop-color="#007BFF"/>
</linearGradient>
<linearGradient id="paint1_linear_1041_928" x1="24.1433" y1="6.10164" x2="20.8945" y2="24.2735" gradientUnits="userSpaceOnUse">
<stop stop-color="#0257D1"/>
<stop offset="0.74" stop-color="#0171F2"/>
<stop offset="1" stop-color="#007BFF"/>
</linearGradient>
<linearGradient id="paint2_linear_1041_928" x1="9.13494" y1="35.0772" x2="12.8851" y2="35.0772" gradientUnits="userSpaceOnUse">
<stop stop-color="#0257D1"/>
<stop offset="1" stop-color="#007BFF"/>
</linearGradient>
<linearGradient id="paint3_linear_1041_928" x1="11.0545" y1="36.997" x2="14.8047" y2="36.997" gradientUnits="userSpaceOnUse">
<stop stop-color="#0257D1"/>
<stop offset="1" stop-color="#007BFF"/>
</linearGradient>
<linearGradient id="paint4_linear_1041_928" x1="12.9744" y1="38.9167" x2="16.7246" y2="38.9167" gradientUnits="userSpaceOnUse">
<stop stop-color="#0257D1"/>
<stop offset="1" stop-color="#007BFF"/>
</linearGradient>
<linearGradient id="paint5_linear_1041_928" x1="14.8941" y1="40.8365" x2="18.6443" y2="40.8365" gradientUnits="userSpaceOnUse">
<stop stop-color="#0257D1"/>
<stop offset="1" stop-color="#007BFF"/>
</linearGradient>
</defs>
</svg>
