<svg width="16" height="16" viewBox="0 0 16 16" fill="none" xmlns="http://www.w3.org/2000/svg">
<path fill-rule="evenodd" clip-rule="evenodd" d="M13.1737 7.82106C13.8134 7.82106 14.4226 8.09632 14.8457 8.57549L14.8451 8.57422C15.2682 9.05402 15.4657 9.69249 15.386 10.3271L15.3707 10.4514C15.2172 11.6805 14.622 12.7606 13.7574 13.5405L14.0001 14.0267C14.2289 14.4842 14.1046 15.071 13.6643 15.3316C13.5089 15.4234 13.34 15.4667 13.1743 15.4667C12.8239 15.4667 12.4862 15.273 12.3186 14.9385L12.1147 14.5301C11.5814 14.7238 11.0073 14.8295 10.4121 14.8295H5.27252C4.62386 14.8295 4.00069 14.7046 3.42785 14.4759L3.19655 14.9385C3.02897 15.273 2.69126 15.4667 2.3408 15.4667C2.17513 15.4667 2.00628 15.4234 1.8508 15.3316C1.4105 15.071 1.28625 14.4842 1.515 14.0267L1.81193 13.4334C1.00971 12.6637 0.460448 11.6257 0.313894 10.452C0.313894 10.452 0.195376 9.50834 0.143127 9.0878C0.12656 8.95399 0.117639 8.82272 0.117639 8.68764C0.115727 7.68024 0.111267 3.2543 0.111267 3.2543C0.111267 1.59314 1.43344 0.234649 3.08122 0.176665C3.99559 0.144805 5.19415 0.792829 5.74341 1.52305L5.97535 1.83209L7.4154 1.89645C7.69513 1.90919 7.95191 2.05702 8.10293 2.29278L8.11121 2.30616C8.35526 2.68656 8.26414 3.19122 7.90285 3.46203L5.60514 5.18499C5.20434 5.48575 4.63214 5.38252 4.36134 4.9607C4.24473 4.7791 4.20077 4.55991 4.23772 4.34709L4.4703 3.01281L4.12558 2.55275C3.90575 2.26092 3.55656 2.08633 3.19082 2.08633C2.54662 2.08633 2.02284 2.6101 2.02284 3.2543V7.82106H13.1737ZM12.9671 11.5625H2.71753C2.4513 11.1706 2.27225 10.7129 2.21018 10.2156L2.14964 9.73263H13.1737C13.2986 9.73263 13.377 9.79954 13.4127 9.84032C13.4483 9.8811 13.5057 9.96648 13.4898 10.0914L13.4745 10.2163C13.4126 10.7132 13.2334 11.1707 12.9671 11.5625Z" fill="#A8A8A8"/>
</svg>
