<svg width="18" height="15" viewBox="0 0 18 15" fill="none" xmlns="http://www.w3.org/2000/svg">
<path d="M13.5588 0.246338H4.22495C2.0473 0.246338 0.276031 2.01761 0.276031 4.19526V13.5291C0.276031 14.1236 0.7578 14.6061 1.35301 14.6061C1.94822 14.6061 2.42999 14.1236 2.42999 13.5291V12.4521H15.3537V13.5291C15.3537 14.1236 15.8362 14.6061 16.4307 14.6061C17.0252 14.6061 17.5077 14.1236 17.5077 13.5291V4.19526C17.5077 2.01761 15.7357 0.246338 13.5588 0.246338ZM13.9178 8.14418V7.78519C13.9178 6.79365 13.1143 5.99023 12.1228 5.99023H11.4048C10.4133 5.99023 9.60985 6.79365 9.60985 7.78519V8.14418H8.17388V7.78519C8.17388 6.79365 7.37045 5.99023 6.37891 5.99023H5.66093C4.66939 5.99023 3.86596 6.79365 3.86596 7.78519V8.14418H2.42999V4.19526C2.42999 3.20588 3.23557 2.4003 4.22495 2.4003H13.5588C14.5489 2.4003 15.3537 3.20588 15.3537 4.19526V8.14418H13.9178Z" fill="#A8A8A8"/>
</svg>
