<svg width="40" height="40" viewBox="0 0 40 40" fill="none" xmlns="http://www.w3.org/2000/svg">
<rect y="0.293945" width="39.4428" height="39.4428" rx="19.7214" fill="white"/>
<path d="M23.4532 13.2869C22.6892 13.2992 21.9419 13.5208 21.2868 13.9293C20.6316 14.3378 20.0917 14.9187 19.7217 15.6134C19.3517 14.9187 18.8119 14.3378 18.1567 13.9293C17.5016 13.5208 16.7543 13.2992 15.9903 13.2869C14.7725 13.3418 13.6251 13.8955 12.7988 14.8268C11.9725 15.758 11.5345 16.9913 11.5804 18.2571C11.5804 21.4628 14.8275 24.9638 17.5507 27.3376C18.1588 27.8685 18.9275 28.1596 19.7217 28.1596C20.516 28.1596 21.2847 27.8685 21.8928 27.3376C24.616 24.9638 27.8631 21.4628 27.8631 18.2571C27.909 16.9913 27.471 15.758 26.6447 14.8268C25.8184 13.8955 24.671 13.3418 23.4532 13.2869Z" fill="#F96D6D"/>
</svg>
